G04 EAGLE Gerber RS-274X export*
G75*
%MOMM*%
%FSLAX34Y34*%
%LPD*%
%INCopper Layer 15*%
%IPPOS*%
%AMOC8*
5,1,8,0,0,1.08239X$1,22.5*%
G01*
%ADD10C,1.422400*%
%ADD11C,1.244600*%
%ADD12C,1.400000*%
%ADD13C,1.288000*%
%ADD14C,3.220000*%
%ADD15C,4.191000*%
%ADD16C,0.654800*%
%ADD17C,0.609600*%

G36*
X1341746Y28718D02*
X1341746Y28718D01*
X1341865Y28725D01*
X1341903Y28738D01*
X1341944Y28743D01*
X1342054Y28786D01*
X1342167Y28823D01*
X1342202Y28845D01*
X1342239Y28860D01*
X1342335Y28929D01*
X1342436Y28993D01*
X1342464Y29023D01*
X1342497Y29046D01*
X1342573Y29138D01*
X1342654Y29225D01*
X1342674Y29260D01*
X1342699Y29291D01*
X1342750Y29399D01*
X1342808Y29503D01*
X1342818Y29543D01*
X1342835Y29579D01*
X1342857Y29696D01*
X1342887Y29811D01*
X1342891Y29871D01*
X1342895Y29891D01*
X1342893Y29912D01*
X1342897Y29972D01*
X1342897Y808228D01*
X1342882Y808346D01*
X1342875Y808465D01*
X1342862Y808503D01*
X1342857Y808544D01*
X1342814Y808654D01*
X1342777Y808767D01*
X1342755Y808802D01*
X1342740Y808839D01*
X1342671Y808935D01*
X1342607Y809036D01*
X1342577Y809064D01*
X1342554Y809097D01*
X1342462Y809173D01*
X1342375Y809254D01*
X1342340Y809274D01*
X1342309Y809299D01*
X1342201Y809350D01*
X1342097Y809408D01*
X1342057Y809418D01*
X1342021Y809435D01*
X1341904Y809457D01*
X1341789Y809487D01*
X1341729Y809491D01*
X1341709Y809495D01*
X1341688Y809493D01*
X1341628Y809497D01*
X55372Y809497D01*
X55254Y809482D01*
X55135Y809475D01*
X55097Y809462D01*
X55056Y809457D01*
X54946Y809414D01*
X54833Y809377D01*
X54798Y809355D01*
X54761Y809340D01*
X54665Y809271D01*
X54564Y809207D01*
X54536Y809177D01*
X54503Y809154D01*
X54427Y809062D01*
X54346Y808975D01*
X54326Y808940D01*
X54301Y808909D01*
X54250Y808801D01*
X54192Y808697D01*
X54182Y808657D01*
X54165Y808621D01*
X54143Y808504D01*
X54113Y808389D01*
X54109Y808329D01*
X54105Y808309D01*
X54107Y808288D01*
X54103Y808228D01*
X54103Y29972D01*
X54118Y29854D01*
X54125Y29735D01*
X54138Y29697D01*
X54143Y29656D01*
X54186Y29546D01*
X54223Y29433D01*
X54245Y29398D01*
X54260Y29361D01*
X54329Y29265D01*
X54393Y29164D01*
X54423Y29136D01*
X54446Y29103D01*
X54538Y29027D01*
X54625Y28946D01*
X54660Y28926D01*
X54691Y28901D01*
X54799Y28850D01*
X54903Y28792D01*
X54943Y28782D01*
X54979Y28765D01*
X55096Y28743D01*
X55211Y28713D01*
X55271Y28709D01*
X55291Y28705D01*
X55312Y28707D01*
X55372Y28703D01*
X1341628Y28703D01*
X1341746Y28718D01*
G37*
%LPC*%
G36*
X1311046Y758824D02*
X1311046Y758824D01*
X1302411Y762401D01*
X1295801Y769011D01*
X1292224Y777646D01*
X1292224Y786994D01*
X1295801Y795629D01*
X1302411Y802239D01*
X1311046Y805816D01*
X1320394Y805816D01*
X1329029Y802239D01*
X1335639Y795629D01*
X1339216Y786994D01*
X1339216Y777646D01*
X1335639Y769011D01*
X1329029Y762401D01*
X1320394Y758824D01*
X1311046Y758824D01*
G37*
%LPD*%
%LPC*%
G36*
X76606Y758824D02*
X76606Y758824D01*
X67971Y762401D01*
X61361Y769011D01*
X57784Y777646D01*
X57784Y786994D01*
X61361Y795629D01*
X67971Y802239D01*
X76606Y805816D01*
X85954Y805816D01*
X94589Y802239D01*
X101199Y795629D01*
X104776Y786994D01*
X104776Y777646D01*
X101199Y769011D01*
X94589Y762401D01*
X85954Y758824D01*
X76606Y758824D01*
G37*
%LPD*%
%LPC*%
G36*
X76606Y32384D02*
X76606Y32384D01*
X67971Y35961D01*
X61361Y42571D01*
X57784Y51206D01*
X57784Y60554D01*
X61361Y69189D01*
X67971Y75799D01*
X76606Y79376D01*
X85954Y79376D01*
X94589Y75799D01*
X101199Y69189D01*
X104776Y60554D01*
X104776Y51206D01*
X101199Y42571D01*
X94589Y35961D01*
X85954Y32384D01*
X76606Y32384D01*
G37*
%LPD*%
%LPC*%
G36*
X1311046Y32384D02*
X1311046Y32384D01*
X1302411Y35961D01*
X1295801Y42571D01*
X1292224Y51206D01*
X1292224Y60554D01*
X1295801Y69189D01*
X1302411Y75799D01*
X1311046Y79376D01*
X1320394Y79376D01*
X1329029Y75799D01*
X1335639Y69189D01*
X1339216Y60554D01*
X1339216Y51206D01*
X1335639Y42571D01*
X1329029Y35961D01*
X1320394Y32384D01*
X1311046Y32384D01*
G37*
%LPD*%
%LPC*%
G36*
X1230392Y668859D02*
X1230392Y668859D01*
X1223541Y671697D01*
X1218297Y676941D01*
X1215459Y683792D01*
X1215459Y691208D01*
X1218297Y698059D01*
X1223541Y703303D01*
X1230392Y706141D01*
X1237808Y706141D01*
X1244659Y703303D01*
X1249903Y698059D01*
X1252741Y691208D01*
X1252741Y683792D01*
X1249903Y676941D01*
X1244659Y671697D01*
X1237808Y668859D01*
X1230392Y668859D01*
G37*
%LPD*%
%LPC*%
G36*
X1098992Y668859D02*
X1098992Y668859D01*
X1092141Y671697D01*
X1086897Y676941D01*
X1084059Y683792D01*
X1084059Y691208D01*
X1086897Y698059D01*
X1092141Y703303D01*
X1098992Y706141D01*
X1106408Y706141D01*
X1113259Y703303D01*
X1118503Y698059D01*
X1121341Y691208D01*
X1121341Y683792D01*
X1118503Y676941D01*
X1113259Y671697D01*
X1106408Y668859D01*
X1098992Y668859D01*
G37*
%LPD*%
%LPC*%
G36*
X1253508Y169259D02*
X1253508Y169259D01*
X1247980Y171549D01*
X1243749Y175780D01*
X1241459Y181308D01*
X1241459Y187292D01*
X1243749Y192820D01*
X1247980Y197051D01*
X1253508Y199341D01*
X1259492Y199341D01*
X1265020Y197051D01*
X1269251Y192820D01*
X1271541Y187292D01*
X1271541Y181308D01*
X1269251Y175780D01*
X1265020Y171549D01*
X1259492Y169259D01*
X1253508Y169259D01*
G37*
%LPD*%
%LPC*%
G36*
X1153508Y169259D02*
X1153508Y169259D01*
X1147980Y171549D01*
X1143749Y175780D01*
X1141459Y181308D01*
X1141459Y187292D01*
X1143749Y192820D01*
X1147980Y197051D01*
X1153508Y199341D01*
X1159492Y199341D01*
X1165020Y197051D01*
X1169251Y192820D01*
X1171541Y187292D01*
X1171541Y181308D01*
X1169251Y175780D01*
X1165020Y171549D01*
X1159492Y169259D01*
X1153508Y169259D01*
G37*
%LPD*%
%LPC*%
G36*
X1156614Y651419D02*
X1156614Y651419D01*
X1153313Y652786D01*
X1150786Y655313D01*
X1149419Y658614D01*
X1149419Y662186D01*
X1150786Y665487D01*
X1153313Y668014D01*
X1156614Y669381D01*
X1160186Y669381D01*
X1163487Y668014D01*
X1166014Y665487D01*
X1167227Y662557D01*
X1167296Y662436D01*
X1167361Y662313D01*
X1167375Y662298D01*
X1167385Y662280D01*
X1167482Y662180D01*
X1167575Y662078D01*
X1167592Y662067D01*
X1167606Y662052D01*
X1167724Y661979D01*
X1167841Y661903D01*
X1167860Y661896D01*
X1167877Y661886D01*
X1168010Y661845D01*
X1168142Y661800D01*
X1168162Y661798D01*
X1168181Y661792D01*
X1168320Y661786D01*
X1168459Y661774D01*
X1168479Y661778D01*
X1168499Y661777D01*
X1168635Y661805D01*
X1168772Y661829D01*
X1168790Y661837D01*
X1168810Y661841D01*
X1168936Y661903D01*
X1169062Y661959D01*
X1169078Y661972D01*
X1169096Y661981D01*
X1169202Y662072D01*
X1169310Y662158D01*
X1169323Y662174D01*
X1169338Y662187D01*
X1169418Y662302D01*
X1169502Y662412D01*
X1169514Y662437D01*
X1169521Y662447D01*
X1169528Y662467D01*
X1169573Y662557D01*
X1170786Y665487D01*
X1173313Y668014D01*
X1176614Y669381D01*
X1180186Y669381D01*
X1183487Y668014D01*
X1186014Y665487D01*
X1187381Y662186D01*
X1187381Y658614D01*
X1186014Y655313D01*
X1183487Y652786D01*
X1180186Y651419D01*
X1176614Y651419D01*
X1173313Y652786D01*
X1170786Y655313D01*
X1169573Y658243D01*
X1169504Y658364D01*
X1169439Y658487D01*
X1169425Y658502D01*
X1169415Y658520D01*
X1169318Y658620D01*
X1169225Y658722D01*
X1169208Y658733D01*
X1169194Y658748D01*
X1169075Y658821D01*
X1168959Y658897D01*
X1168940Y658904D01*
X1168923Y658914D01*
X1168790Y658955D01*
X1168658Y659000D01*
X1168638Y659002D01*
X1168619Y659008D01*
X1168480Y659014D01*
X1168341Y659026D01*
X1168321Y659022D01*
X1168301Y659023D01*
X1168165Y658995D01*
X1168028Y658971D01*
X1168009Y658963D01*
X1167990Y658959D01*
X1167864Y658897D01*
X1167738Y658841D01*
X1167722Y658828D01*
X1167704Y658819D01*
X1167598Y658729D01*
X1167490Y658642D01*
X1167477Y658626D01*
X1167462Y658613D01*
X1167382Y658499D01*
X1167298Y658388D01*
X1167286Y658363D01*
X1167279Y658353D01*
X1167272Y658333D01*
X1167227Y658243D01*
X1166014Y655313D01*
X1163487Y652786D01*
X1160186Y651419D01*
X1156614Y651419D01*
G37*
%LPD*%
%LPC*%
G36*
X502965Y470059D02*
X502965Y470059D01*
X498356Y471968D01*
X494828Y475496D01*
X492919Y480105D01*
X492919Y485095D01*
X494828Y489704D01*
X498356Y493232D01*
X502965Y495141D01*
X507955Y495141D01*
X512564Y493232D01*
X516092Y489704D01*
X518001Y485095D01*
X518001Y480105D01*
X516092Y475496D01*
X512564Y471968D01*
X507955Y470059D01*
X502965Y470059D01*
G37*
%LPD*%
%LPC*%
G36*
X502965Y698659D02*
X502965Y698659D01*
X498356Y700568D01*
X494828Y704096D01*
X492919Y708705D01*
X492919Y713695D01*
X494828Y718304D01*
X498356Y721832D01*
X502965Y723741D01*
X507955Y723741D01*
X512564Y721832D01*
X516092Y718304D01*
X518001Y713695D01*
X518001Y708705D01*
X516092Y704096D01*
X512564Y700568D01*
X507955Y698659D01*
X502965Y698659D01*
G37*
%LPD*%
%LPC*%
G36*
X939845Y698659D02*
X939845Y698659D01*
X935236Y700568D01*
X931708Y704096D01*
X929799Y708705D01*
X929799Y713695D01*
X931708Y718304D01*
X935236Y721832D01*
X939845Y723741D01*
X944835Y723741D01*
X949444Y721832D01*
X952972Y718304D01*
X954881Y713695D01*
X954881Y708705D01*
X952972Y704096D01*
X949444Y700568D01*
X944835Y698659D01*
X939845Y698659D01*
G37*
%LPD*%
%LPC*%
G36*
X939845Y470059D02*
X939845Y470059D01*
X935236Y471968D01*
X931708Y475496D01*
X929799Y480105D01*
X929799Y485095D01*
X931708Y489704D01*
X935236Y493232D01*
X939845Y495141D01*
X944835Y495141D01*
X949444Y493232D01*
X952972Y489704D01*
X954881Y485095D01*
X954881Y480105D01*
X952972Y475496D01*
X949444Y471968D01*
X944835Y470059D01*
X939845Y470059D01*
G37*
%LPD*%
%LPC*%
G36*
X686420Y701547D02*
X686420Y701547D01*
X682872Y703017D01*
X680157Y705732D01*
X678687Y709280D01*
X678687Y713120D01*
X680157Y716668D01*
X682872Y719383D01*
X686420Y720853D01*
X690260Y720853D01*
X693808Y719383D01*
X696523Y716668D01*
X697993Y713120D01*
X697993Y709280D01*
X696523Y705732D01*
X693808Y703017D01*
X690260Y701547D01*
X686420Y701547D01*
G37*
%LPD*%
%LPC*%
G36*
X737220Y701547D02*
X737220Y701547D01*
X733672Y703017D01*
X730957Y705732D01*
X729487Y709280D01*
X729487Y713120D01*
X730957Y716668D01*
X733672Y719383D01*
X737220Y720853D01*
X741060Y720853D01*
X744608Y719383D01*
X747323Y716668D01*
X748793Y713120D01*
X748793Y709280D01*
X747323Y705732D01*
X744608Y703017D01*
X741060Y701547D01*
X737220Y701547D01*
G37*
%LPD*%
%LPC*%
G36*
X711820Y701547D02*
X711820Y701547D01*
X708272Y703017D01*
X705557Y705732D01*
X704087Y709280D01*
X704087Y713120D01*
X705557Y716668D01*
X708272Y719383D01*
X711820Y720853D01*
X715660Y720853D01*
X719208Y719383D01*
X721923Y716668D01*
X723393Y713120D01*
X723393Y709280D01*
X721923Y705732D01*
X719208Y703017D01*
X715660Y701547D01*
X711820Y701547D01*
G37*
%LPD*%
%LPC*%
G36*
X762620Y701547D02*
X762620Y701547D01*
X759072Y703017D01*
X756357Y705732D01*
X754887Y709280D01*
X754887Y713120D01*
X756357Y716668D01*
X759072Y719383D01*
X762620Y720853D01*
X766460Y720853D01*
X770008Y719383D01*
X772723Y716668D01*
X774193Y713120D01*
X774193Y709280D01*
X772723Y705732D01*
X770008Y703017D01*
X766460Y701547D01*
X762620Y701547D01*
G37*
%LPD*%
%LPC*%
G36*
X1179602Y104759D02*
X1179602Y104759D01*
X1176096Y106212D01*
X1173412Y108896D01*
X1171959Y112402D01*
X1171959Y116198D01*
X1173412Y119704D01*
X1176096Y122388D01*
X1179602Y123841D01*
X1183398Y123841D01*
X1186904Y122388D01*
X1189588Y119704D01*
X1191041Y116198D01*
X1191041Y112402D01*
X1189588Y108896D01*
X1186904Y106212D01*
X1183398Y104759D01*
X1179602Y104759D01*
G37*
%LPD*%
%LPC*%
G36*
X1229602Y104759D02*
X1229602Y104759D01*
X1226096Y106212D01*
X1223412Y108896D01*
X1221959Y112402D01*
X1221959Y116198D01*
X1223412Y119704D01*
X1226096Y122388D01*
X1229602Y123841D01*
X1233398Y123841D01*
X1236904Y122388D01*
X1239588Y119704D01*
X1241041Y116198D01*
X1241041Y112402D01*
X1239588Y108896D01*
X1236904Y106212D01*
X1233398Y104759D01*
X1229602Y104759D01*
G37*
%LPD*%
%LPC*%
G36*
X1204602Y104759D02*
X1204602Y104759D01*
X1201096Y106212D01*
X1198412Y108896D01*
X1196959Y112402D01*
X1196959Y116198D01*
X1198412Y119704D01*
X1201096Y122388D01*
X1204602Y123841D01*
X1208398Y123841D01*
X1211904Y122388D01*
X1214588Y119704D01*
X1216041Y116198D01*
X1216041Y112402D01*
X1214588Y108896D01*
X1211904Y106212D01*
X1208398Y104759D01*
X1204602Y104759D01*
G37*
%LPD*%
%LPC*%
G36*
X1201614Y651419D02*
X1201614Y651419D01*
X1198313Y652786D01*
X1195786Y655313D01*
X1194419Y658614D01*
X1194419Y662186D01*
X1195786Y665487D01*
X1198313Y668014D01*
X1201614Y669381D01*
X1205186Y669381D01*
X1208487Y668014D01*
X1211014Y665487D01*
X1212381Y662186D01*
X1212381Y658614D01*
X1211014Y655313D01*
X1208487Y652786D01*
X1205186Y651419D01*
X1201614Y651419D01*
G37*
%LPD*%
%LPC*%
G36*
X1131614Y651419D02*
X1131614Y651419D01*
X1128313Y652786D01*
X1125786Y655313D01*
X1124419Y658614D01*
X1124419Y662186D01*
X1125786Y665487D01*
X1128313Y668014D01*
X1131614Y669381D01*
X1135186Y669381D01*
X1138487Y668014D01*
X1141014Y665487D01*
X1142381Y662186D01*
X1142381Y658614D01*
X1141014Y655313D01*
X1138487Y652786D01*
X1135186Y651419D01*
X1131614Y651419D01*
G37*
%LPD*%
%LPC*%
G36*
X1183757Y559936D02*
X1183757Y559936D01*
X1180536Y561270D01*
X1178070Y563736D01*
X1176736Y566957D01*
X1176736Y570443D01*
X1178070Y573664D01*
X1180536Y576130D01*
X1183757Y577464D01*
X1187243Y577464D01*
X1190464Y576130D01*
X1192930Y573664D01*
X1194264Y570443D01*
X1194264Y566957D01*
X1192930Y563736D01*
X1190464Y561270D01*
X1187243Y559936D01*
X1183757Y559936D01*
G37*
%LPD*%
%LPC*%
G36*
X1158357Y559936D02*
X1158357Y559936D01*
X1155136Y561270D01*
X1152670Y563736D01*
X1151336Y566957D01*
X1151336Y570443D01*
X1152670Y573664D01*
X1155136Y576130D01*
X1158357Y577464D01*
X1161843Y577464D01*
X1165064Y576130D01*
X1167530Y573664D01*
X1168864Y570443D01*
X1168864Y566957D01*
X1167530Y563736D01*
X1165064Y561270D01*
X1161843Y559936D01*
X1158357Y559936D01*
G37*
%LPD*%
%LPC*%
G36*
X1132957Y559936D02*
X1132957Y559936D01*
X1129736Y561270D01*
X1127270Y563736D01*
X1125936Y566957D01*
X1125936Y570443D01*
X1127270Y573664D01*
X1129736Y576130D01*
X1132957Y577464D01*
X1136443Y577464D01*
X1139664Y576130D01*
X1142130Y573664D01*
X1143464Y570443D01*
X1143464Y566957D01*
X1142130Y563736D01*
X1139664Y561270D01*
X1136443Y559936D01*
X1132957Y559936D01*
G37*
%LPD*%
%LPC*%
G36*
X1107557Y559936D02*
X1107557Y559936D01*
X1104336Y561270D01*
X1101870Y563736D01*
X1100536Y566957D01*
X1100536Y570443D01*
X1101870Y573664D01*
X1104336Y576130D01*
X1107557Y577464D01*
X1111043Y577464D01*
X1114264Y576130D01*
X1116730Y573664D01*
X1118064Y570443D01*
X1118064Y566957D01*
X1116730Y563736D01*
X1114264Y561270D01*
X1111043Y559936D01*
X1107557Y559936D01*
G37*
%LPD*%
%LPC*%
G36*
X1082157Y559936D02*
X1082157Y559936D01*
X1078936Y561270D01*
X1076470Y563736D01*
X1075136Y566957D01*
X1075136Y570443D01*
X1076470Y573664D01*
X1078936Y576130D01*
X1082157Y577464D01*
X1085643Y577464D01*
X1088864Y576130D01*
X1091330Y573664D01*
X1092664Y570443D01*
X1092664Y566957D01*
X1091330Y563736D01*
X1088864Y561270D01*
X1085643Y559936D01*
X1082157Y559936D01*
G37*
%LPD*%
%LPC*%
G36*
X1056757Y559936D02*
X1056757Y559936D01*
X1053536Y561270D01*
X1051070Y563736D01*
X1049736Y566957D01*
X1049736Y570443D01*
X1051070Y573664D01*
X1053536Y576130D01*
X1056757Y577464D01*
X1060243Y577464D01*
X1063464Y576130D01*
X1065930Y573664D01*
X1067264Y570443D01*
X1067264Y566957D01*
X1065930Y563736D01*
X1063464Y561270D01*
X1060243Y559936D01*
X1056757Y559936D01*
G37*
%LPD*%
%LPC*%
G36*
X1031357Y559936D02*
X1031357Y559936D01*
X1028136Y561270D01*
X1025670Y563736D01*
X1024336Y566957D01*
X1024336Y570443D01*
X1025670Y573664D01*
X1028136Y576130D01*
X1031357Y577464D01*
X1034843Y577464D01*
X1038064Y576130D01*
X1040530Y573664D01*
X1041864Y570443D01*
X1041864Y566957D01*
X1040530Y563736D01*
X1038064Y561270D01*
X1034843Y559936D01*
X1031357Y559936D01*
G37*
%LPD*%
%LPC*%
G36*
X1005957Y559936D02*
X1005957Y559936D01*
X1002736Y561270D01*
X1000270Y563736D01*
X998936Y566957D01*
X998936Y570443D01*
X1000270Y573664D01*
X1002736Y576130D01*
X1005957Y577464D01*
X1009443Y577464D01*
X1012664Y576130D01*
X1015130Y573664D01*
X1016464Y570443D01*
X1016464Y566957D01*
X1015130Y563736D01*
X1012664Y561270D01*
X1009443Y559936D01*
X1005957Y559936D01*
G37*
%LPD*%
%LPC*%
G36*
X980557Y559936D02*
X980557Y559936D01*
X977336Y561270D01*
X974870Y563736D01*
X973536Y566957D01*
X973536Y570443D01*
X974870Y573664D01*
X977336Y576130D01*
X980557Y577464D01*
X984043Y577464D01*
X987264Y576130D01*
X989730Y573664D01*
X991064Y570443D01*
X991064Y566957D01*
X989730Y563736D01*
X987264Y561270D01*
X984043Y559936D01*
X980557Y559936D01*
G37*
%LPD*%
%LPC*%
G36*
X955157Y559936D02*
X955157Y559936D01*
X951936Y561270D01*
X949470Y563736D01*
X948136Y566957D01*
X948136Y570443D01*
X949470Y573664D01*
X951936Y576130D01*
X955157Y577464D01*
X958643Y577464D01*
X961864Y576130D01*
X964330Y573664D01*
X965664Y570443D01*
X965664Y566957D01*
X964330Y563736D01*
X961864Y561270D01*
X958643Y559936D01*
X955157Y559936D01*
G37*
%LPD*%
%LPC*%
G36*
X929757Y559936D02*
X929757Y559936D01*
X926536Y561270D01*
X924070Y563736D01*
X922736Y566957D01*
X922736Y570443D01*
X924070Y573664D01*
X926536Y576130D01*
X929757Y577464D01*
X933243Y577464D01*
X936464Y576130D01*
X938930Y573664D01*
X940264Y570443D01*
X940264Y566957D01*
X938930Y563736D01*
X936464Y561270D01*
X933243Y559936D01*
X929757Y559936D01*
G37*
%LPD*%
%LPC*%
G36*
X904357Y559936D02*
X904357Y559936D01*
X901136Y561270D01*
X898670Y563736D01*
X897336Y566957D01*
X897336Y570443D01*
X898670Y573664D01*
X901136Y576130D01*
X904357Y577464D01*
X907843Y577464D01*
X911064Y576130D01*
X913530Y573664D01*
X914864Y570443D01*
X914864Y566957D01*
X913530Y563736D01*
X911064Y561270D01*
X907843Y559936D01*
X904357Y559936D01*
G37*
%LPD*%
%LPC*%
G36*
X878957Y559936D02*
X878957Y559936D01*
X875736Y561270D01*
X873270Y563736D01*
X871936Y566957D01*
X871936Y570443D01*
X873270Y573664D01*
X875736Y576130D01*
X878957Y577464D01*
X882443Y577464D01*
X885664Y576130D01*
X888130Y573664D01*
X889464Y570443D01*
X889464Y566957D01*
X888130Y563736D01*
X885664Y561270D01*
X882443Y559936D01*
X878957Y559936D01*
G37*
%LPD*%
%LPC*%
G36*
X878957Y534536D02*
X878957Y534536D01*
X875736Y535870D01*
X873270Y538336D01*
X871936Y541557D01*
X871936Y545043D01*
X873270Y548264D01*
X875736Y550730D01*
X878957Y552064D01*
X882443Y552064D01*
X885664Y550730D01*
X888130Y548264D01*
X889464Y545043D01*
X889464Y541557D01*
X888130Y538336D01*
X885664Y535870D01*
X882443Y534536D01*
X878957Y534536D01*
G37*
%LPD*%
%LPC*%
G36*
X853557Y534536D02*
X853557Y534536D01*
X850336Y535870D01*
X847870Y538336D01*
X846536Y541557D01*
X846536Y545043D01*
X847870Y548264D01*
X850336Y550730D01*
X853557Y552064D01*
X857043Y552064D01*
X860264Y550730D01*
X862730Y548264D01*
X864064Y545043D01*
X864064Y541557D01*
X862730Y538336D01*
X860264Y535870D01*
X857043Y534536D01*
X853557Y534536D01*
G37*
%LPD*%
%LPC*%
G36*
X1259957Y534536D02*
X1259957Y534536D01*
X1256736Y535870D01*
X1254270Y538336D01*
X1252936Y541557D01*
X1252936Y545043D01*
X1254270Y548264D01*
X1256736Y550730D01*
X1259957Y552064D01*
X1263443Y552064D01*
X1266664Y550730D01*
X1269130Y548264D01*
X1270464Y545043D01*
X1270464Y541557D01*
X1269130Y538336D01*
X1266664Y535870D01*
X1263443Y534536D01*
X1259957Y534536D01*
G37*
%LPD*%
%LPC*%
G36*
X1234557Y534536D02*
X1234557Y534536D01*
X1231336Y535870D01*
X1228870Y538336D01*
X1227536Y541557D01*
X1227536Y545043D01*
X1228870Y548264D01*
X1231336Y550730D01*
X1234557Y552064D01*
X1238043Y552064D01*
X1241264Y550730D01*
X1243730Y548264D01*
X1245064Y545043D01*
X1245064Y541557D01*
X1243730Y538336D01*
X1241264Y535870D01*
X1238043Y534536D01*
X1234557Y534536D01*
G37*
%LPD*%
%LPC*%
G36*
X1209157Y534536D02*
X1209157Y534536D01*
X1205936Y535870D01*
X1203470Y538336D01*
X1202136Y541557D01*
X1202136Y545043D01*
X1203470Y548264D01*
X1205936Y550730D01*
X1209157Y552064D01*
X1212643Y552064D01*
X1215864Y550730D01*
X1218330Y548264D01*
X1219664Y545043D01*
X1219664Y541557D01*
X1218330Y538336D01*
X1215864Y535870D01*
X1212643Y534536D01*
X1209157Y534536D01*
G37*
%LPD*%
%LPC*%
G36*
X1183757Y534536D02*
X1183757Y534536D01*
X1180536Y535870D01*
X1178070Y538336D01*
X1176736Y541557D01*
X1176736Y545043D01*
X1178070Y548264D01*
X1180536Y550730D01*
X1183757Y552064D01*
X1187243Y552064D01*
X1190464Y550730D01*
X1192930Y548264D01*
X1194264Y545043D01*
X1194264Y541557D01*
X1192930Y538336D01*
X1190464Y535870D01*
X1187243Y534536D01*
X1183757Y534536D01*
G37*
%LPD*%
%LPC*%
G36*
X1158357Y534536D02*
X1158357Y534536D01*
X1155136Y535870D01*
X1152670Y538336D01*
X1151336Y541557D01*
X1151336Y545043D01*
X1152670Y548264D01*
X1155136Y550730D01*
X1158357Y552064D01*
X1161843Y552064D01*
X1165064Y550730D01*
X1167530Y548264D01*
X1168864Y545043D01*
X1168864Y541557D01*
X1167530Y538336D01*
X1165064Y535870D01*
X1161843Y534536D01*
X1158357Y534536D01*
G37*
%LPD*%
%LPC*%
G36*
X1132957Y534536D02*
X1132957Y534536D01*
X1129736Y535870D01*
X1127270Y538336D01*
X1125936Y541557D01*
X1125936Y545043D01*
X1127270Y548264D01*
X1129736Y550730D01*
X1132957Y552064D01*
X1136443Y552064D01*
X1139664Y550730D01*
X1142130Y548264D01*
X1143464Y545043D01*
X1143464Y541557D01*
X1142130Y538336D01*
X1139664Y535870D01*
X1136443Y534536D01*
X1132957Y534536D01*
G37*
%LPD*%
%LPC*%
G36*
X1107557Y534536D02*
X1107557Y534536D01*
X1104336Y535870D01*
X1101870Y538336D01*
X1100536Y541557D01*
X1100536Y545043D01*
X1101870Y548264D01*
X1104336Y550730D01*
X1107557Y552064D01*
X1111043Y552064D01*
X1114264Y550730D01*
X1116730Y548264D01*
X1118064Y545043D01*
X1118064Y541557D01*
X1116730Y538336D01*
X1114264Y535870D01*
X1111043Y534536D01*
X1107557Y534536D01*
G37*
%LPD*%
%LPC*%
G36*
X1082157Y534536D02*
X1082157Y534536D01*
X1078936Y535870D01*
X1076470Y538336D01*
X1075136Y541557D01*
X1075136Y545043D01*
X1076470Y548264D01*
X1078936Y550730D01*
X1082157Y552064D01*
X1085643Y552064D01*
X1088864Y550730D01*
X1091330Y548264D01*
X1092664Y545043D01*
X1092664Y541557D01*
X1091330Y538336D01*
X1088864Y535870D01*
X1085643Y534536D01*
X1082157Y534536D01*
G37*
%LPD*%
%LPC*%
G36*
X1056757Y534536D02*
X1056757Y534536D01*
X1053536Y535870D01*
X1051070Y538336D01*
X1049736Y541557D01*
X1049736Y545043D01*
X1051070Y548264D01*
X1053536Y550730D01*
X1056757Y552064D01*
X1060243Y552064D01*
X1063464Y550730D01*
X1065930Y548264D01*
X1067264Y545043D01*
X1067264Y541557D01*
X1065930Y538336D01*
X1063464Y535870D01*
X1060243Y534536D01*
X1056757Y534536D01*
G37*
%LPD*%
%LPC*%
G36*
X1031357Y534536D02*
X1031357Y534536D01*
X1028136Y535870D01*
X1025670Y538336D01*
X1024336Y541557D01*
X1024336Y545043D01*
X1025670Y548264D01*
X1028136Y550730D01*
X1031357Y552064D01*
X1034843Y552064D01*
X1038064Y550730D01*
X1040530Y548264D01*
X1041864Y545043D01*
X1041864Y541557D01*
X1040530Y538336D01*
X1038064Y535870D01*
X1034843Y534536D01*
X1031357Y534536D01*
G37*
%LPD*%
%LPC*%
G36*
X1005957Y534536D02*
X1005957Y534536D01*
X1002736Y535870D01*
X1000270Y538336D01*
X998936Y541557D01*
X998936Y545043D01*
X1000270Y548264D01*
X1002736Y550730D01*
X1005957Y552064D01*
X1009443Y552064D01*
X1012664Y550730D01*
X1015130Y548264D01*
X1016464Y545043D01*
X1016464Y541557D01*
X1015130Y538336D01*
X1012664Y535870D01*
X1009443Y534536D01*
X1005957Y534536D01*
G37*
%LPD*%
%LPC*%
G36*
X955157Y534536D02*
X955157Y534536D01*
X951936Y535870D01*
X949470Y538336D01*
X948136Y541557D01*
X948136Y545043D01*
X949470Y548264D01*
X951936Y550730D01*
X955157Y552064D01*
X958643Y552064D01*
X961864Y550730D01*
X964330Y548264D01*
X965664Y545043D01*
X965664Y541557D01*
X964330Y538336D01*
X961864Y535870D01*
X958643Y534536D01*
X955157Y534536D01*
G37*
%LPD*%
%LPC*%
G36*
X929757Y534536D02*
X929757Y534536D01*
X926536Y535870D01*
X924070Y538336D01*
X922736Y541557D01*
X922736Y545043D01*
X924070Y548264D01*
X926536Y550730D01*
X929757Y552064D01*
X933243Y552064D01*
X936464Y550730D01*
X938930Y548264D01*
X940264Y545043D01*
X940264Y541557D01*
X938930Y538336D01*
X936464Y535870D01*
X933243Y534536D01*
X929757Y534536D01*
G37*
%LPD*%
%LPC*%
G36*
X904357Y534536D02*
X904357Y534536D01*
X901136Y535870D01*
X898670Y538336D01*
X897336Y541557D01*
X897336Y545043D01*
X898670Y548264D01*
X901136Y550730D01*
X904357Y552064D01*
X907843Y552064D01*
X911064Y550730D01*
X913530Y548264D01*
X914864Y545043D01*
X914864Y541557D01*
X913530Y538336D01*
X911064Y535870D01*
X907843Y534536D01*
X904357Y534536D01*
G37*
%LPD*%
%LPC*%
G36*
X828157Y534536D02*
X828157Y534536D01*
X824936Y535870D01*
X822470Y538336D01*
X821136Y541557D01*
X821136Y545043D01*
X822470Y548264D01*
X824936Y550730D01*
X828157Y552064D01*
X831643Y552064D01*
X834864Y550730D01*
X837330Y548264D01*
X838664Y545043D01*
X838664Y541557D01*
X837330Y538336D01*
X834864Y535870D01*
X831643Y534536D01*
X828157Y534536D01*
G37*
%LPD*%
%LPC*%
G36*
X1209157Y559936D02*
X1209157Y559936D01*
X1205936Y561270D01*
X1203470Y563736D01*
X1202136Y566957D01*
X1202136Y570443D01*
X1203470Y573664D01*
X1205936Y576130D01*
X1209157Y577464D01*
X1212643Y577464D01*
X1215864Y576130D01*
X1218330Y573664D01*
X1219664Y570443D01*
X1219664Y566957D01*
X1218330Y563736D01*
X1215864Y561270D01*
X1212643Y559936D01*
X1209157Y559936D01*
G37*
%LPD*%
%LPC*%
G36*
X1234557Y559936D02*
X1234557Y559936D01*
X1231336Y561270D01*
X1228870Y563736D01*
X1227536Y566957D01*
X1227536Y570443D01*
X1228870Y573664D01*
X1231336Y576130D01*
X1234557Y577464D01*
X1238043Y577464D01*
X1241264Y576130D01*
X1243730Y573664D01*
X1245064Y570443D01*
X1245064Y566957D01*
X1243730Y563736D01*
X1241264Y561270D01*
X1238043Y559936D01*
X1234557Y559936D01*
G37*
%LPD*%
%LPC*%
G36*
X391957Y727836D02*
X391957Y727836D01*
X388736Y729170D01*
X386270Y731636D01*
X384936Y734857D01*
X384936Y738343D01*
X386270Y741564D01*
X388736Y744030D01*
X391957Y745364D01*
X395443Y745364D01*
X398664Y744030D01*
X401130Y741564D01*
X402464Y738343D01*
X402464Y734857D01*
X401130Y731636D01*
X398664Y729170D01*
X395443Y727836D01*
X391957Y727836D01*
G37*
%LPD*%
%LPC*%
G36*
X828157Y280536D02*
X828157Y280536D01*
X824936Y281870D01*
X822470Y284336D01*
X821136Y287557D01*
X821136Y291043D01*
X822470Y294264D01*
X824936Y296730D01*
X828157Y298064D01*
X831643Y298064D01*
X834864Y296730D01*
X837330Y294264D01*
X838664Y291043D01*
X838664Y287557D01*
X837330Y284336D01*
X834864Y281870D01*
X831643Y280536D01*
X828157Y280536D01*
G37*
%LPD*%
%LPC*%
G36*
X1259957Y559936D02*
X1259957Y559936D01*
X1256736Y561270D01*
X1254270Y563736D01*
X1252936Y566957D01*
X1252936Y570443D01*
X1254270Y573664D01*
X1256736Y576130D01*
X1259957Y577464D01*
X1263443Y577464D01*
X1266664Y576130D01*
X1269130Y573664D01*
X1270464Y570443D01*
X1270464Y566957D01*
X1269130Y563736D01*
X1266664Y561270D01*
X1263443Y559936D01*
X1259957Y559936D01*
G37*
%LPD*%
%LPC*%
G36*
X828157Y559936D02*
X828157Y559936D01*
X824936Y561270D01*
X822470Y563736D01*
X821136Y566957D01*
X821136Y570443D01*
X822470Y573664D01*
X824936Y576130D01*
X828157Y577464D01*
X831643Y577464D01*
X834864Y576130D01*
X837330Y573664D01*
X838664Y570443D01*
X838664Y566957D01*
X837330Y563736D01*
X834864Y561270D01*
X831643Y559936D01*
X828157Y559936D01*
G37*
%LPD*%
%LPC*%
G36*
X929757Y305936D02*
X929757Y305936D01*
X926536Y307270D01*
X924070Y309736D01*
X922736Y312957D01*
X922736Y316443D01*
X924070Y319664D01*
X926536Y322130D01*
X929757Y323464D01*
X933243Y323464D01*
X936464Y322130D01*
X938930Y319664D01*
X940264Y316443D01*
X940264Y312957D01*
X938930Y309736D01*
X936464Y307270D01*
X933243Y305936D01*
X929757Y305936D01*
G37*
%LPD*%
%LPC*%
G36*
X904357Y305936D02*
X904357Y305936D01*
X901136Y307270D01*
X898670Y309736D01*
X897336Y312957D01*
X897336Y316443D01*
X898670Y319664D01*
X901136Y322130D01*
X904357Y323464D01*
X907843Y323464D01*
X911064Y322130D01*
X913530Y319664D01*
X914864Y316443D01*
X914864Y312957D01*
X913530Y309736D01*
X911064Y307270D01*
X907843Y305936D01*
X904357Y305936D01*
G37*
%LPD*%
%LPC*%
G36*
X1259957Y305936D02*
X1259957Y305936D01*
X1256736Y307270D01*
X1254270Y309736D01*
X1252936Y312957D01*
X1252936Y316443D01*
X1254270Y319664D01*
X1256736Y322130D01*
X1259957Y323464D01*
X1263443Y323464D01*
X1266664Y322130D01*
X1269130Y319664D01*
X1270464Y316443D01*
X1270464Y312957D01*
X1269130Y309736D01*
X1266664Y307270D01*
X1263443Y305936D01*
X1259957Y305936D01*
G37*
%LPD*%
%LPC*%
G36*
X1234557Y305936D02*
X1234557Y305936D01*
X1231336Y307270D01*
X1228870Y309736D01*
X1227536Y312957D01*
X1227536Y316443D01*
X1228870Y319664D01*
X1231336Y322130D01*
X1234557Y323464D01*
X1238043Y323464D01*
X1241264Y322130D01*
X1243730Y319664D01*
X1245064Y316443D01*
X1245064Y312957D01*
X1243730Y309736D01*
X1241264Y307270D01*
X1238043Y305936D01*
X1234557Y305936D01*
G37*
%LPD*%
%LPC*%
G36*
X1209157Y305936D02*
X1209157Y305936D01*
X1205936Y307270D01*
X1203470Y309736D01*
X1202136Y312957D01*
X1202136Y316443D01*
X1203470Y319664D01*
X1205936Y322130D01*
X1209157Y323464D01*
X1212643Y323464D01*
X1215864Y322130D01*
X1218330Y319664D01*
X1219664Y316443D01*
X1219664Y312957D01*
X1218330Y309736D01*
X1215864Y307270D01*
X1212643Y305936D01*
X1209157Y305936D01*
G37*
%LPD*%
%LPC*%
G36*
X1183757Y305936D02*
X1183757Y305936D01*
X1180536Y307270D01*
X1178070Y309736D01*
X1176736Y312957D01*
X1176736Y316443D01*
X1178070Y319664D01*
X1180536Y322130D01*
X1183757Y323464D01*
X1187243Y323464D01*
X1190464Y322130D01*
X1192930Y319664D01*
X1194264Y316443D01*
X1194264Y312957D01*
X1192930Y309736D01*
X1190464Y307270D01*
X1187243Y305936D01*
X1183757Y305936D01*
G37*
%LPD*%
%LPC*%
G36*
X1158357Y305936D02*
X1158357Y305936D01*
X1155136Y307270D01*
X1152670Y309736D01*
X1151336Y312957D01*
X1151336Y316443D01*
X1152670Y319664D01*
X1155136Y322130D01*
X1158357Y323464D01*
X1161843Y323464D01*
X1165064Y322130D01*
X1167530Y319664D01*
X1168864Y316443D01*
X1168864Y312957D01*
X1167530Y309736D01*
X1165064Y307270D01*
X1161843Y305936D01*
X1158357Y305936D01*
G37*
%LPD*%
%LPC*%
G36*
X1132957Y305936D02*
X1132957Y305936D01*
X1129736Y307270D01*
X1127270Y309736D01*
X1125936Y312957D01*
X1125936Y316443D01*
X1127270Y319664D01*
X1129736Y322130D01*
X1132957Y323464D01*
X1136443Y323464D01*
X1139664Y322130D01*
X1142130Y319664D01*
X1143464Y316443D01*
X1143464Y312957D01*
X1142130Y309736D01*
X1139664Y307270D01*
X1136443Y305936D01*
X1132957Y305936D01*
G37*
%LPD*%
%LPC*%
G36*
X1082157Y305936D02*
X1082157Y305936D01*
X1078936Y307270D01*
X1076470Y309736D01*
X1075136Y312957D01*
X1075136Y316443D01*
X1076470Y319664D01*
X1078936Y322130D01*
X1082157Y323464D01*
X1085643Y323464D01*
X1088864Y322130D01*
X1091330Y319664D01*
X1092664Y316443D01*
X1092664Y312957D01*
X1091330Y309736D01*
X1088864Y307270D01*
X1085643Y305936D01*
X1082157Y305936D01*
G37*
%LPD*%
%LPC*%
G36*
X1056757Y305936D02*
X1056757Y305936D01*
X1053536Y307270D01*
X1051070Y309736D01*
X1049736Y312957D01*
X1049736Y316443D01*
X1051070Y319664D01*
X1053536Y322130D01*
X1056757Y323464D01*
X1060243Y323464D01*
X1063464Y322130D01*
X1065930Y319664D01*
X1067264Y316443D01*
X1067264Y312957D01*
X1065930Y309736D01*
X1063464Y307270D01*
X1060243Y305936D01*
X1056757Y305936D01*
G37*
%LPD*%
%LPC*%
G36*
X1031357Y305936D02*
X1031357Y305936D01*
X1028136Y307270D01*
X1025670Y309736D01*
X1024336Y312957D01*
X1024336Y316443D01*
X1025670Y319664D01*
X1028136Y322130D01*
X1031357Y323464D01*
X1034843Y323464D01*
X1038064Y322130D01*
X1040530Y319664D01*
X1041864Y316443D01*
X1041864Y312957D01*
X1040530Y309736D01*
X1038064Y307270D01*
X1034843Y305936D01*
X1031357Y305936D01*
G37*
%LPD*%
%LPC*%
G36*
X1005957Y305936D02*
X1005957Y305936D01*
X1002736Y307270D01*
X1000270Y309736D01*
X998936Y312957D01*
X998936Y316443D01*
X1000270Y319664D01*
X1002736Y322130D01*
X1005957Y323464D01*
X1009443Y323464D01*
X1012664Y322130D01*
X1015130Y319664D01*
X1016464Y316443D01*
X1016464Y312957D01*
X1015130Y309736D01*
X1012664Y307270D01*
X1009443Y305936D01*
X1005957Y305936D01*
G37*
%LPD*%
%LPC*%
G36*
X980557Y305936D02*
X980557Y305936D01*
X977336Y307270D01*
X974870Y309736D01*
X973536Y312957D01*
X973536Y316443D01*
X974870Y319664D01*
X977336Y322130D01*
X980557Y323464D01*
X984043Y323464D01*
X987264Y322130D01*
X989730Y319664D01*
X991064Y316443D01*
X991064Y312957D01*
X989730Y309736D01*
X987264Y307270D01*
X984043Y305936D01*
X980557Y305936D01*
G37*
%LPD*%
%LPC*%
G36*
X955157Y305936D02*
X955157Y305936D01*
X951936Y307270D01*
X949470Y309736D01*
X948136Y312957D01*
X948136Y316443D01*
X949470Y319664D01*
X951936Y322130D01*
X955157Y323464D01*
X958643Y323464D01*
X961864Y322130D01*
X964330Y319664D01*
X965664Y316443D01*
X965664Y312957D01*
X964330Y309736D01*
X961864Y307270D01*
X958643Y305936D01*
X955157Y305936D01*
G37*
%LPD*%
%LPC*%
G36*
X878957Y305936D02*
X878957Y305936D01*
X875736Y307270D01*
X873270Y309736D01*
X871936Y312957D01*
X871936Y316443D01*
X873270Y319664D01*
X875736Y322130D01*
X878957Y323464D01*
X882443Y323464D01*
X885664Y322130D01*
X888130Y319664D01*
X889464Y316443D01*
X889464Y312957D01*
X888130Y309736D01*
X885664Y307270D01*
X882443Y305936D01*
X878957Y305936D01*
G37*
%LPD*%
%LPC*%
G36*
X853557Y305936D02*
X853557Y305936D01*
X850336Y307270D01*
X847870Y309736D01*
X846536Y312957D01*
X846536Y316443D01*
X847870Y319664D01*
X850336Y322130D01*
X853557Y323464D01*
X857043Y323464D01*
X860264Y322130D01*
X862730Y319664D01*
X864064Y316443D01*
X864064Y312957D01*
X862730Y309736D01*
X860264Y307270D01*
X857043Y305936D01*
X853557Y305936D01*
G37*
%LPD*%
%LPC*%
G36*
X828157Y305936D02*
X828157Y305936D01*
X824936Y307270D01*
X822470Y309736D01*
X821136Y312957D01*
X821136Y316443D01*
X822470Y319664D01*
X824936Y322130D01*
X828157Y323464D01*
X831643Y323464D01*
X834864Y322130D01*
X837330Y319664D01*
X838664Y316443D01*
X838664Y312957D01*
X837330Y309736D01*
X834864Y307270D01*
X831643Y305936D01*
X828157Y305936D01*
G37*
%LPD*%
%LPC*%
G36*
X853557Y280536D02*
X853557Y280536D01*
X850336Y281870D01*
X847870Y284336D01*
X846536Y287557D01*
X846536Y291043D01*
X847870Y294264D01*
X850336Y296730D01*
X853557Y298064D01*
X857043Y298064D01*
X860264Y296730D01*
X862730Y294264D01*
X864064Y291043D01*
X864064Y287557D01*
X862730Y284336D01*
X860264Y281870D01*
X857043Y280536D01*
X853557Y280536D01*
G37*
%LPD*%
%LPC*%
G36*
X853557Y559936D02*
X853557Y559936D01*
X850336Y561270D01*
X847870Y563736D01*
X846536Y566957D01*
X846536Y570443D01*
X847870Y573664D01*
X850336Y576130D01*
X853557Y577464D01*
X857043Y577464D01*
X860264Y576130D01*
X862730Y573664D01*
X864064Y570443D01*
X864064Y566957D01*
X862730Y563736D01*
X860264Y561270D01*
X857043Y559936D01*
X853557Y559936D01*
G37*
%LPD*%
%LPC*%
G36*
X341157Y727836D02*
X341157Y727836D01*
X337936Y729170D01*
X335470Y731636D01*
X334136Y734857D01*
X334136Y738343D01*
X335470Y741564D01*
X337936Y744030D01*
X341157Y745364D01*
X344643Y745364D01*
X347864Y744030D01*
X350330Y741564D01*
X351664Y738343D01*
X351664Y734857D01*
X350330Y731636D01*
X347864Y729170D01*
X344643Y727836D01*
X341157Y727836D01*
G37*
%LPD*%
%LPC*%
G36*
X366557Y727836D02*
X366557Y727836D01*
X363336Y729170D01*
X360870Y731636D01*
X359536Y734857D01*
X359536Y738343D01*
X360870Y741564D01*
X363336Y744030D01*
X366557Y745364D01*
X370043Y745364D01*
X373264Y744030D01*
X375730Y741564D01*
X377064Y738343D01*
X377064Y734857D01*
X375730Y731636D01*
X373264Y729170D01*
X370043Y727836D01*
X366557Y727836D01*
G37*
%LPD*%
%LPC*%
G36*
X1209157Y280536D02*
X1209157Y280536D01*
X1205936Y281870D01*
X1203470Y284336D01*
X1202136Y287557D01*
X1202136Y291043D01*
X1203470Y294264D01*
X1205936Y296730D01*
X1209157Y298064D01*
X1212643Y298064D01*
X1215864Y296730D01*
X1218330Y294264D01*
X1219664Y291043D01*
X1219664Y287557D01*
X1218330Y284336D01*
X1215864Y281870D01*
X1212643Y280536D01*
X1209157Y280536D01*
G37*
%LPD*%
%LPC*%
G36*
X1183757Y280536D02*
X1183757Y280536D01*
X1180536Y281870D01*
X1178070Y284336D01*
X1176736Y287557D01*
X1176736Y291043D01*
X1178070Y294264D01*
X1180536Y296730D01*
X1183757Y298064D01*
X1187243Y298064D01*
X1190464Y296730D01*
X1192930Y294264D01*
X1194264Y291043D01*
X1194264Y287557D01*
X1192930Y284336D01*
X1190464Y281870D01*
X1187243Y280536D01*
X1183757Y280536D01*
G37*
%LPD*%
%LPC*%
G36*
X1259957Y280536D02*
X1259957Y280536D01*
X1256736Y281870D01*
X1254270Y284336D01*
X1252936Y287557D01*
X1252936Y291043D01*
X1254270Y294264D01*
X1256736Y296730D01*
X1259957Y298064D01*
X1263443Y298064D01*
X1266664Y296730D01*
X1269130Y294264D01*
X1270464Y291043D01*
X1270464Y287557D01*
X1269130Y284336D01*
X1266664Y281870D01*
X1263443Y280536D01*
X1259957Y280536D01*
G37*
%LPD*%
%LPC*%
G36*
X1234557Y280536D02*
X1234557Y280536D01*
X1231336Y281870D01*
X1228870Y284336D01*
X1227536Y287557D01*
X1227536Y291043D01*
X1228870Y294264D01*
X1231336Y296730D01*
X1234557Y298064D01*
X1238043Y298064D01*
X1241264Y296730D01*
X1243730Y294264D01*
X1245064Y291043D01*
X1245064Y287557D01*
X1243730Y284336D01*
X1241264Y281870D01*
X1238043Y280536D01*
X1234557Y280536D01*
G37*
%LPD*%
%LPC*%
G36*
X1158357Y280536D02*
X1158357Y280536D01*
X1155136Y281870D01*
X1152670Y284336D01*
X1151336Y287557D01*
X1151336Y291043D01*
X1152670Y294264D01*
X1155136Y296730D01*
X1158357Y298064D01*
X1161843Y298064D01*
X1165064Y296730D01*
X1167530Y294264D01*
X1168864Y291043D01*
X1168864Y287557D01*
X1167530Y284336D01*
X1165064Y281870D01*
X1161843Y280536D01*
X1158357Y280536D01*
G37*
%LPD*%
%LPC*%
G36*
X1132957Y280536D02*
X1132957Y280536D01*
X1129736Y281870D01*
X1127270Y284336D01*
X1125936Y287557D01*
X1125936Y291043D01*
X1127270Y294264D01*
X1129736Y296730D01*
X1132957Y298064D01*
X1136443Y298064D01*
X1139664Y296730D01*
X1142130Y294264D01*
X1143464Y291043D01*
X1143464Y287557D01*
X1142130Y284336D01*
X1139664Y281870D01*
X1136443Y280536D01*
X1132957Y280536D01*
G37*
%LPD*%
%LPC*%
G36*
X1107557Y280536D02*
X1107557Y280536D01*
X1104336Y281870D01*
X1101870Y284336D01*
X1100536Y287557D01*
X1100536Y291043D01*
X1101870Y294264D01*
X1104336Y296730D01*
X1107557Y298064D01*
X1111043Y298064D01*
X1114264Y296730D01*
X1116730Y294264D01*
X1118064Y291043D01*
X1118064Y287557D01*
X1116730Y284336D01*
X1114264Y281870D01*
X1111043Y280536D01*
X1107557Y280536D01*
G37*
%LPD*%
%LPC*%
G36*
X1082157Y280536D02*
X1082157Y280536D01*
X1078936Y281870D01*
X1076470Y284336D01*
X1075136Y287557D01*
X1075136Y291043D01*
X1076470Y294264D01*
X1078936Y296730D01*
X1082157Y298064D01*
X1085643Y298064D01*
X1088864Y296730D01*
X1091330Y294264D01*
X1092664Y291043D01*
X1092664Y287557D01*
X1091330Y284336D01*
X1088864Y281870D01*
X1085643Y280536D01*
X1082157Y280536D01*
G37*
%LPD*%
%LPC*%
G36*
X1056757Y280536D02*
X1056757Y280536D01*
X1053536Y281870D01*
X1051070Y284336D01*
X1049736Y287557D01*
X1049736Y291043D01*
X1051070Y294264D01*
X1053536Y296730D01*
X1056757Y298064D01*
X1060243Y298064D01*
X1063464Y296730D01*
X1065930Y294264D01*
X1067264Y291043D01*
X1067264Y287557D01*
X1065930Y284336D01*
X1063464Y281870D01*
X1060243Y280536D01*
X1056757Y280536D01*
G37*
%LPD*%
%LPC*%
G36*
X1031357Y280536D02*
X1031357Y280536D01*
X1028136Y281870D01*
X1025670Y284336D01*
X1024336Y287557D01*
X1024336Y291043D01*
X1025670Y294264D01*
X1028136Y296730D01*
X1031357Y298064D01*
X1034843Y298064D01*
X1038064Y296730D01*
X1040530Y294264D01*
X1041864Y291043D01*
X1041864Y287557D01*
X1040530Y284336D01*
X1038064Y281870D01*
X1034843Y280536D01*
X1031357Y280536D01*
G37*
%LPD*%
%LPC*%
G36*
X1005957Y280536D02*
X1005957Y280536D01*
X1002736Y281870D01*
X1000270Y284336D01*
X998936Y287557D01*
X998936Y291043D01*
X1000270Y294264D01*
X1002736Y296730D01*
X1005957Y298064D01*
X1009443Y298064D01*
X1012664Y296730D01*
X1015130Y294264D01*
X1016464Y291043D01*
X1016464Y287557D01*
X1015130Y284336D01*
X1012664Y281870D01*
X1009443Y280536D01*
X1005957Y280536D01*
G37*
%LPD*%
%LPC*%
G36*
X980557Y280536D02*
X980557Y280536D01*
X977336Y281870D01*
X974870Y284336D01*
X973536Y287557D01*
X973536Y291043D01*
X974870Y294264D01*
X977336Y296730D01*
X980557Y298064D01*
X984043Y298064D01*
X987264Y296730D01*
X989730Y294264D01*
X991064Y291043D01*
X991064Y287557D01*
X989730Y284336D01*
X987264Y281870D01*
X984043Y280536D01*
X980557Y280536D01*
G37*
%LPD*%
%LPC*%
G36*
X955157Y280536D02*
X955157Y280536D01*
X951936Y281870D01*
X949470Y284336D01*
X948136Y287557D01*
X948136Y291043D01*
X949470Y294264D01*
X951936Y296730D01*
X955157Y298064D01*
X958643Y298064D01*
X961864Y296730D01*
X964330Y294264D01*
X965664Y291043D01*
X965664Y287557D01*
X964330Y284336D01*
X961864Y281870D01*
X958643Y280536D01*
X955157Y280536D01*
G37*
%LPD*%
%LPC*%
G36*
X929757Y280536D02*
X929757Y280536D01*
X926536Y281870D01*
X924070Y284336D01*
X922736Y287557D01*
X922736Y291043D01*
X924070Y294264D01*
X926536Y296730D01*
X929757Y298064D01*
X933243Y298064D01*
X936464Y296730D01*
X938930Y294264D01*
X940264Y291043D01*
X940264Y287557D01*
X938930Y284336D01*
X936464Y281870D01*
X933243Y280536D01*
X929757Y280536D01*
G37*
%LPD*%
%LPC*%
G36*
X904357Y280536D02*
X904357Y280536D01*
X901136Y281870D01*
X898670Y284336D01*
X897336Y287557D01*
X897336Y291043D01*
X898670Y294264D01*
X901136Y296730D01*
X904357Y298064D01*
X907843Y298064D01*
X911064Y296730D01*
X913530Y294264D01*
X914864Y291043D01*
X914864Y287557D01*
X913530Y284336D01*
X911064Y281870D01*
X907843Y280536D01*
X904357Y280536D01*
G37*
%LPD*%
%LPC*%
G36*
X878957Y280536D02*
X878957Y280536D01*
X875736Y281870D01*
X873270Y284336D01*
X871936Y287557D01*
X871936Y291043D01*
X873270Y294264D01*
X875736Y296730D01*
X878957Y298064D01*
X882443Y298064D01*
X885664Y296730D01*
X888130Y294264D01*
X889464Y291043D01*
X889464Y287557D01*
X888130Y284336D01*
X885664Y281870D01*
X882443Y280536D01*
X878957Y280536D01*
G37*
%LPD*%
%LPC*%
G36*
X222363Y95785D02*
X222363Y95785D01*
X220226Y96670D01*
X218590Y98306D01*
X217705Y100443D01*
X217705Y102757D01*
X218590Y104894D01*
X220226Y106530D01*
X222363Y107415D01*
X224677Y107415D01*
X226814Y106530D01*
X228450Y104894D01*
X229335Y102757D01*
X229335Y100443D01*
X228450Y98306D01*
X226814Y96670D01*
X224677Y95785D01*
X222363Y95785D01*
G37*
%LPD*%
%LPC*%
G36*
X158863Y88165D02*
X158863Y88165D01*
X156726Y89050D01*
X155090Y90686D01*
X154205Y92823D01*
X154205Y95137D01*
X155090Y97274D01*
X156726Y98910D01*
X158863Y99795D01*
X161177Y99795D01*
X163314Y98910D01*
X164950Y97274D01*
X165835Y95137D01*
X165835Y92823D01*
X164950Y90686D01*
X163314Y89050D01*
X161177Y88165D01*
X158863Y88165D01*
G37*
%LPD*%
%LPC*%
G36*
X250303Y128805D02*
X250303Y128805D01*
X248166Y129690D01*
X246530Y131326D01*
X245645Y133463D01*
X245645Y135777D01*
X246530Y137914D01*
X248166Y139550D01*
X250303Y140435D01*
X252617Y140435D01*
X254754Y139550D01*
X256390Y137914D01*
X257275Y135777D01*
X257275Y133463D01*
X256390Y131326D01*
X254754Y129690D01*
X252617Y128805D01*
X250303Y128805D01*
G37*
%LPD*%
%LPC*%
G36*
X738028Y741171D02*
X738028Y741171D01*
X735974Y742022D01*
X734402Y743594D01*
X733551Y745648D01*
X733551Y747872D01*
X734402Y749926D01*
X735974Y751498D01*
X738028Y752349D01*
X740252Y752349D01*
X742306Y751498D01*
X743878Y749926D01*
X744729Y747872D01*
X744729Y745648D01*
X743878Y743594D01*
X742306Y742022D01*
X740252Y741171D01*
X738028Y741171D01*
G37*
%LPD*%
%LPC*%
G36*
X1111522Y316922D02*
X1111522Y316922D01*
X1111522Y323193D01*
X1111856Y323127D01*
X1113451Y322466D01*
X1114887Y321507D01*
X1116107Y320287D01*
X1117066Y318851D01*
X1117727Y317256D01*
X1117793Y316922D01*
X1111522Y316922D01*
G37*
%LPD*%
%LPC*%
G36*
X984522Y545522D02*
X984522Y545522D01*
X984522Y551793D01*
X984856Y551727D01*
X986451Y551066D01*
X987887Y550107D01*
X989107Y548887D01*
X990066Y547451D01*
X990727Y545856D01*
X990793Y545522D01*
X984522Y545522D01*
G37*
%LPD*%
%LPC*%
G36*
X1100807Y316922D02*
X1100807Y316922D01*
X1100873Y317256D01*
X1101534Y318851D01*
X1102493Y320287D01*
X1103713Y321507D01*
X1105149Y322466D01*
X1106744Y323127D01*
X1107078Y323193D01*
X1107078Y316922D01*
X1100807Y316922D01*
G37*
%LPD*%
%LPC*%
G36*
X1111522Y312478D02*
X1111522Y312478D01*
X1117793Y312478D01*
X1117727Y312144D01*
X1117066Y310549D01*
X1116107Y309113D01*
X1114887Y307893D01*
X1113451Y306934D01*
X1111856Y306273D01*
X1111522Y306207D01*
X1111522Y312478D01*
G37*
%LPD*%
%LPC*%
G36*
X973807Y545522D02*
X973807Y545522D01*
X973873Y545856D01*
X974534Y547451D01*
X975493Y548887D01*
X976713Y550107D01*
X978149Y551066D01*
X979744Y551727D01*
X980078Y551793D01*
X980078Y545522D01*
X973807Y545522D01*
G37*
%LPD*%
%LPC*%
G36*
X984522Y541078D02*
X984522Y541078D01*
X990793Y541078D01*
X990727Y540744D01*
X990066Y539149D01*
X989107Y537713D01*
X987887Y536493D01*
X986451Y535534D01*
X984856Y534873D01*
X984522Y534807D01*
X984522Y541078D01*
G37*
%LPD*%
%LPC*%
G36*
X979744Y534873D02*
X979744Y534873D01*
X978149Y535534D01*
X976713Y536493D01*
X975493Y537713D01*
X974534Y539149D01*
X973873Y540744D01*
X973807Y541078D01*
X980078Y541078D01*
X980078Y534807D01*
X979744Y534873D01*
G37*
%LPD*%
%LPC*%
G36*
X1106744Y306273D02*
X1106744Y306273D01*
X1105149Y306934D01*
X1103713Y307893D01*
X1102493Y309113D01*
X1101534Y310549D01*
X1100873Y312144D01*
X1100807Y312478D01*
X1107078Y312478D01*
X1107078Y306207D01*
X1106744Y306273D01*
G37*
%LPD*%
D10*
X688340Y711200D03*
X713740Y711200D03*
X739140Y711200D03*
X764540Y711200D03*
D11*
X1261700Y289300D03*
X1261700Y314700D03*
X1236300Y289300D03*
X1236300Y314700D03*
X1210900Y289300D03*
X1210900Y314700D03*
X1185500Y289300D03*
X1185500Y314700D03*
X1160100Y289300D03*
X1160100Y314700D03*
X1134700Y289300D03*
X1134700Y314700D03*
X1109300Y289300D03*
X1109300Y314700D03*
X1083900Y289300D03*
X1083900Y314700D03*
X1058500Y289300D03*
X1058500Y314700D03*
X1033100Y289300D03*
X1033100Y314700D03*
X1007700Y289300D03*
X1007700Y314700D03*
X982300Y289300D03*
X982300Y314700D03*
X956900Y289300D03*
X956900Y314700D03*
X931500Y289300D03*
X931500Y314700D03*
X906100Y289300D03*
X906100Y314700D03*
X880700Y289300D03*
X880700Y314700D03*
X855300Y289300D03*
X855300Y314700D03*
X829900Y289300D03*
X829900Y314700D03*
X1261700Y543300D03*
X1261700Y568700D03*
X1236300Y543300D03*
X1236300Y568700D03*
X1210900Y543300D03*
X1210900Y568700D03*
X1185500Y543300D03*
X1185500Y568700D03*
X1160100Y543300D03*
X1160100Y568700D03*
X1134700Y543300D03*
X1134700Y568700D03*
X1109300Y543300D03*
X1109300Y568700D03*
X1083900Y543300D03*
X1083900Y568700D03*
X1058500Y543300D03*
X1058500Y568700D03*
X1033100Y543300D03*
X1033100Y568700D03*
X1007700Y543300D03*
X1007700Y568700D03*
X982300Y543300D03*
X982300Y568700D03*
X956900Y543300D03*
X956900Y568700D03*
X931500Y543300D03*
X931500Y568700D03*
X906100Y543300D03*
X906100Y568700D03*
X880700Y543300D03*
X880700Y568700D03*
X855300Y543300D03*
X855300Y568700D03*
X829900Y543300D03*
X829900Y568700D03*
X342900Y736600D03*
X368300Y736600D03*
X393700Y736600D03*
D12*
X1181500Y114300D03*
X1206500Y114300D03*
X1231500Y114300D03*
D13*
X1203400Y660400D03*
X1133400Y660400D03*
X1158400Y660400D03*
X1178400Y660400D03*
D14*
X1102700Y687500D03*
X1234100Y687500D03*
D15*
X81280Y55880D03*
X1315720Y55880D03*
X81280Y782320D03*
X1315720Y782320D03*
D16*
X195580Y114300D03*
X157480Y167640D03*
X154940Y132080D03*
D17*
X238760Y114300D03*
X985520Y528320D03*
X706120Y772160D03*
X756920Y769620D03*
X251460Y170180D03*
D16*
X160020Y93980D03*
X251460Y134620D03*
X223520Y101600D03*
D17*
X739140Y746760D03*
M02*
