G04 EAGLE Gerber RS-274X export*
G75*
%MOMM*%
%FSLAX34Y34*%
%LPD*%
%INTop Copper*%
%IPPOS*%
%AMOC8*
5,1,8,0,0,1.08239X$1,22.5*%
G01*
%ADD10C,1.778000*%
%ADD11R,1.524000X1.524000*%
%ADD12P,1.649562X8X202.500000*%
%ADD13C,1.524000*%
%ADD14R,1.300000X0.400000*%
%ADD15R,0.800000X0.800000*%
%ADD16C,1.400000*%
%ADD17R,0.949959X1.031241*%
%ADD18R,1.100000X1.000000*%
%ADD19R,1.200000X2.500000*%
%ADD20C,1.288000*%
%ADD21C,3.220000*%
%ADD22C,1.016000*%
%ADD23C,4.445000*%
%ADD24C,0.254000*%
%ADD25C,0.381000*%
%ADD26C,0.654800*%
%ADD27C,0.609600*%


D10*
X688340Y711200D03*
X713740Y711200D03*
X739140Y711200D03*
X764540Y711200D03*
D11*
X1261700Y289300D03*
D12*
X1261700Y314700D03*
X1236300Y289300D03*
X1236300Y314700D03*
X1210900Y289300D03*
X1210900Y314700D03*
X1185500Y289300D03*
X1185500Y314700D03*
X1160100Y289300D03*
X1160100Y314700D03*
X1134700Y289300D03*
X1134700Y314700D03*
X1109300Y289300D03*
X1109300Y314700D03*
X1083900Y289300D03*
X1083900Y314700D03*
X1058500Y289300D03*
X1058500Y314700D03*
X1033100Y289300D03*
X1033100Y314700D03*
X1007700Y289300D03*
X1007700Y314700D03*
X982300Y289300D03*
X982300Y314700D03*
X956900Y289300D03*
X956900Y314700D03*
X931500Y289300D03*
X931500Y314700D03*
X906100Y289300D03*
X906100Y314700D03*
X880700Y289300D03*
X880700Y314700D03*
X855300Y289300D03*
X855300Y314700D03*
X829900Y289300D03*
X829900Y314700D03*
D11*
X1261700Y543300D03*
D12*
X1261700Y568700D03*
X1236300Y543300D03*
X1236300Y568700D03*
X1210900Y543300D03*
X1210900Y568700D03*
X1185500Y543300D03*
X1185500Y568700D03*
X1160100Y543300D03*
X1160100Y568700D03*
X1134700Y543300D03*
X1134700Y568700D03*
X1109300Y543300D03*
X1109300Y568700D03*
X1083900Y543300D03*
X1083900Y568700D03*
X1058500Y543300D03*
X1058500Y568700D03*
X1033100Y543300D03*
X1033100Y568700D03*
X1007700Y543300D03*
X1007700Y568700D03*
X982300Y543300D03*
X982300Y568700D03*
X956900Y543300D03*
X956900Y568700D03*
X931500Y543300D03*
X931500Y568700D03*
X906100Y543300D03*
X906100Y568700D03*
X880700Y543300D03*
X880700Y568700D03*
X855300Y543300D03*
X855300Y568700D03*
X829900Y543300D03*
X829900Y568700D03*
D13*
X342900Y736600D03*
X368300Y736600D03*
X393700Y736600D03*
D14*
X251080Y152400D03*
X267080Y145900D03*
X267080Y158900D03*
X267080Y152400D03*
X251080Y158900D03*
X251080Y145900D03*
D15*
X266580Y114300D03*
X251580Y114300D03*
D16*
X1181500Y114300D03*
X1206500Y114300D03*
X1231500Y114300D03*
D17*
X185801Y132080D03*
X169799Y132080D03*
X185801Y167640D03*
X169799Y167640D03*
X172339Y93980D03*
X188341Y93980D03*
D18*
X207400Y114300D03*
X224400Y114300D03*
D19*
X991000Y150300D03*
X1016000Y150300D03*
X1041000Y150300D03*
X991000Y205300D03*
X1016000Y205300D03*
X1041000Y205300D03*
D17*
X728599Y769620D03*
X744601Y769620D03*
X677799Y772160D03*
X693801Y772160D03*
D20*
X1203400Y660400D03*
X1133400Y660400D03*
X1158400Y660400D03*
X1178400Y660400D03*
D21*
X1102700Y687500D03*
X1234100Y687500D03*
D22*
X106680Y81280D03*
X1290320Y81280D03*
X1290320Y756920D03*
D23*
X81280Y55880D03*
X1315720Y55880D03*
X81280Y782320D03*
X1315720Y782320D03*
D24*
X185801Y144399D02*
X185801Y132080D01*
X185801Y144399D02*
X177800Y152400D01*
X142240Y152400D01*
X137160Y157480D01*
X137160Y185420D01*
X142240Y190500D01*
X281940Y172720D02*
X281940Y149860D01*
X277980Y145900D01*
X267080Y145900D01*
X264160Y190500D02*
X142240Y190500D01*
X264160Y190500D02*
X281940Y172720D01*
X267080Y145900D02*
X266700Y145520D01*
X266700Y137160D01*
X271780Y132080D01*
X789940Y132080D02*
X919480Y261620D01*
X919480Y304800D01*
X929380Y314700D01*
X931500Y314700D01*
X789940Y132080D02*
X271780Y132080D01*
X718820Y769620D02*
X728599Y769620D01*
X718820Y769620D02*
X706120Y782320D01*
X706120Y789940D01*
X698500Y797560D01*
X657860Y797560D01*
X645160Y784860D01*
X645160Y744220D01*
X678180Y711200D01*
X688340Y711200D01*
X728599Y769620D02*
X728599Y784479D01*
X736600Y792480D01*
X982980Y792480D01*
X1071880Y703580D01*
X1071880Y612140D01*
X1097280Y586740D01*
X1146130Y557270D02*
X1160100Y543300D01*
X1146130Y557270D02*
X1146130Y573435D01*
X1132825Y586740D01*
X1097280Y586740D01*
X677799Y772160D02*
X665480Y772160D01*
X657860Y764540D01*
X657860Y759460D01*
X670560Y746760D01*
X685800Y746760D01*
X713740Y718820D01*
X713740Y711200D01*
X678180Y771779D02*
X677799Y772160D01*
X678180Y771779D02*
X678180Y756920D01*
X980440Y756920D01*
X1059180Y678180D01*
X1059180Y594360D01*
X1071880Y581660D01*
X1112520Y581660D01*
X1122680Y571500D01*
X1122680Y553720D01*
X1133100Y543300D01*
X1134700Y543300D01*
X993140Y93980D02*
X188341Y93980D01*
X1013460Y114300D02*
X1013460Y147320D01*
X1013460Y114300D02*
X993140Y93980D01*
X1016000Y205300D02*
X1016000Y226060D01*
X1026160Y236220D01*
X1064260Y236220D01*
X1066800Y233680D01*
X1066800Y124460D01*
X1033780Y124460D01*
X1023620Y134620D01*
X1023620Y144780D01*
X1016220Y150080D02*
X1016000Y150300D01*
X1016220Y150080D02*
X1013460Y147320D01*
X1018320Y150080D02*
X1023620Y144780D01*
X1018320Y150080D02*
X1016220Y150080D01*
X195961Y177800D02*
X185801Y167640D01*
X195961Y177800D02*
X256540Y177800D01*
X267080Y167260D01*
X267080Y158900D01*
X270660Y158900D01*
X276860Y165100D01*
X276860Y170180D01*
X261620Y185420D01*
X149860Y185420D01*
X144780Y180340D01*
X144780Y162560D01*
X149860Y157480D01*
X205740Y157480D02*
X218440Y144780D01*
X218440Y138350D01*
X203200Y123110D01*
X123270Y123110D01*
X116840Y129540D01*
X116840Y193040D01*
X121920Y198120D01*
X149860Y157480D02*
X205740Y157480D01*
X828040Y198120D02*
X894080Y264160D01*
X894080Y327660D01*
X901700Y335280D01*
X939800Y335280D01*
X956900Y318180D01*
X956900Y314700D01*
X828040Y198120D02*
X121920Y198120D01*
X1201020Y144780D02*
X1231500Y114300D01*
X1201020Y144780D02*
X1122680Y144780D01*
X1097280Y170180D01*
X1097280Y294640D01*
X1089660Y302260D01*
X1069340Y302260D01*
X1058500Y313100D01*
X1058500Y314700D01*
X1206500Y114300D02*
X1206500Y81280D01*
X1191260Y66040D02*
X1087120Y66040D01*
X1074420Y78740D01*
X1074420Y264160D01*
X1066800Y271780D01*
X1018540Y271780D01*
X1007700Y282620D01*
X1007700Y289300D01*
X1206500Y81280D02*
X1191260Y66040D01*
D25*
X207400Y114300D02*
X195580Y114300D01*
D26*
X195580Y114300D03*
D25*
X169799Y167640D02*
X157480Y167640D01*
D26*
X157480Y167640D03*
D25*
X154940Y132080D02*
X169799Y132080D01*
D26*
X154940Y132080D03*
D25*
X238760Y114300D02*
X251580Y114300D01*
D27*
X238760Y114300D03*
X985520Y528320D03*
D25*
X706120Y772160D02*
X693801Y772160D01*
D27*
X706120Y772160D03*
D25*
X744601Y769620D02*
X756920Y769620D01*
D27*
X756920Y769620D03*
D24*
X251460Y159280D02*
X251080Y158900D01*
D25*
X251460Y159280D02*
X251460Y170180D01*
D27*
X251460Y170180D03*
D25*
X172339Y93980D02*
X160020Y93980D01*
D26*
X160020Y93980D03*
X251460Y134620D03*
X223520Y101600D03*
D25*
X223520Y113420D01*
D24*
X224400Y114300D01*
D25*
X739140Y711200D02*
X739140Y746760D01*
D27*
X739140Y746760D03*
D24*
X251080Y145900D02*
X251460Y145520D01*
D25*
X251460Y134620D01*
X982300Y314700D02*
X1109300Y441700D01*
X1109300Y543300D01*
X764540Y688340D02*
X764540Y711200D01*
X764540Y688340D02*
X751840Y675640D01*
X406400Y675640D01*
X368300Y713740D01*
X368300Y736600D01*
X1079080Y513080D02*
X1109300Y543300D01*
X759460Y513080D02*
X746760Y525780D01*
X746760Y619760D01*
X812800Y685800D02*
X812800Y695960D01*
X797560Y711200D01*
X764540Y711200D01*
X759460Y513080D02*
X1079080Y513080D01*
X812800Y685800D02*
X746760Y619760D01*
D24*
X988060Y114300D02*
X266580Y114300D01*
X988060Y114300D02*
X1003300Y129540D01*
X1003300Y165100D01*
X1008380Y170180D01*
X1021120Y170180D02*
X1041000Y150300D01*
X1021120Y170180D02*
X1008380Y170180D01*
X1041000Y150300D02*
X1041000Y205300D01*
X1181500Y114300D02*
X1181500Y96920D01*
X1173480Y88900D02*
X1140460Y88900D01*
X1092200Y137160D01*
X1092200Y261620D01*
X1064520Y289300D01*
X1058500Y289300D01*
X1181500Y96920D02*
X1173480Y88900D01*
M02*
