G04 EAGLE Gerber RS-274X export*
G75*
%MOMM*%
%FSLAX34Y34*%
%LPD*%
%IN*%
%IPPOS*%
%AMOC8*
5,1,8,0,0,1.08239X$1,22.5*%
G01*
%ADD10C,0.254000*%


D10*
X50800Y25400D02*
X1346200Y25400D01*
X1346200Y812800D01*
X50800Y812800D01*
X50800Y25400D01*
X515460Y710763D02*
X515384Y709894D01*
X515232Y709034D01*
X515006Y708190D01*
X514708Y707370D01*
X514339Y706578D01*
X513902Y705822D01*
X513401Y705107D01*
X512840Y704438D01*
X512222Y703820D01*
X511553Y703259D01*
X510838Y702758D01*
X510082Y702321D01*
X509290Y701952D01*
X508470Y701654D01*
X507626Y701428D01*
X506767Y701276D01*
X505897Y701200D01*
X505023Y701200D01*
X504154Y701276D01*
X503294Y701428D01*
X502450Y701654D01*
X501630Y701952D01*
X500838Y702321D01*
X500082Y702758D01*
X499367Y703259D01*
X498698Y703820D01*
X498080Y704438D01*
X497519Y705107D01*
X497018Y705822D01*
X496581Y706578D01*
X496212Y707370D01*
X495914Y708190D01*
X495688Y709034D01*
X495536Y709894D01*
X495460Y710763D01*
X495460Y711637D01*
X495536Y712507D01*
X495688Y713366D01*
X495914Y714210D01*
X496212Y715030D01*
X496581Y715822D01*
X497018Y716578D01*
X497519Y717293D01*
X498080Y717962D01*
X498698Y718580D01*
X499367Y719141D01*
X500082Y719642D01*
X500838Y720079D01*
X501630Y720448D01*
X502450Y720746D01*
X503294Y720972D01*
X504154Y721124D01*
X505023Y721200D01*
X505897Y721200D01*
X506767Y721124D01*
X507626Y720972D01*
X508470Y720746D01*
X509290Y720448D01*
X510082Y720079D01*
X510838Y719642D01*
X511553Y719141D01*
X512222Y718580D01*
X512840Y717962D01*
X513401Y717293D01*
X513902Y716578D01*
X514339Y715822D01*
X514708Y715030D01*
X515006Y714210D01*
X515232Y713366D01*
X515384Y712507D01*
X515460Y711637D01*
X515460Y710763D01*
X515460Y482163D02*
X515384Y481294D01*
X515232Y480434D01*
X515006Y479590D01*
X514708Y478770D01*
X514339Y477978D01*
X513902Y477222D01*
X513401Y476507D01*
X512840Y475838D01*
X512222Y475220D01*
X511553Y474659D01*
X510838Y474158D01*
X510082Y473721D01*
X509290Y473352D01*
X508470Y473054D01*
X507626Y472828D01*
X506767Y472676D01*
X505897Y472600D01*
X505023Y472600D01*
X504154Y472676D01*
X503294Y472828D01*
X502450Y473054D01*
X501630Y473352D01*
X500838Y473721D01*
X500082Y474158D01*
X499367Y474659D01*
X498698Y475220D01*
X498080Y475838D01*
X497519Y476507D01*
X497018Y477222D01*
X496581Y477978D01*
X496212Y478770D01*
X495914Y479590D01*
X495688Y480434D01*
X495536Y481294D01*
X495460Y482163D01*
X495460Y483037D01*
X495536Y483907D01*
X495688Y484766D01*
X495914Y485610D01*
X496212Y486430D01*
X496581Y487222D01*
X497018Y487978D01*
X497519Y488693D01*
X498080Y489362D01*
X498698Y489980D01*
X499367Y490541D01*
X500082Y491042D01*
X500838Y491479D01*
X501630Y491848D01*
X502450Y492146D01*
X503294Y492372D01*
X504154Y492524D01*
X505023Y492600D01*
X505897Y492600D01*
X506767Y492524D01*
X507626Y492372D01*
X508470Y492146D01*
X509290Y491848D01*
X510082Y491479D01*
X510838Y491042D01*
X511553Y490541D01*
X512222Y489980D01*
X512840Y489362D01*
X513401Y488693D01*
X513902Y487978D01*
X514339Y487222D01*
X514708Y486430D01*
X515006Y485610D01*
X515232Y484766D01*
X515384Y483907D01*
X515460Y483037D01*
X515460Y482163D01*
X952340Y710763D02*
X952264Y709894D01*
X952112Y709034D01*
X951886Y708190D01*
X951588Y707370D01*
X951219Y706578D01*
X950782Y705822D01*
X950281Y705107D01*
X949720Y704438D01*
X949102Y703820D01*
X948433Y703259D01*
X947718Y702758D01*
X946962Y702321D01*
X946170Y701952D01*
X945350Y701654D01*
X944506Y701428D01*
X943647Y701276D01*
X942777Y701200D01*
X941903Y701200D01*
X941034Y701276D01*
X940174Y701428D01*
X939330Y701654D01*
X938510Y701952D01*
X937718Y702321D01*
X936962Y702758D01*
X936247Y703259D01*
X935578Y703820D01*
X934960Y704438D01*
X934399Y705107D01*
X933898Y705822D01*
X933461Y706578D01*
X933092Y707370D01*
X932794Y708190D01*
X932568Y709034D01*
X932416Y709894D01*
X932340Y710763D01*
X932340Y711637D01*
X932416Y712507D01*
X932568Y713366D01*
X932794Y714210D01*
X933092Y715030D01*
X933461Y715822D01*
X933898Y716578D01*
X934399Y717293D01*
X934960Y717962D01*
X935578Y718580D01*
X936247Y719141D01*
X936962Y719642D01*
X937718Y720079D01*
X938510Y720448D01*
X939330Y720746D01*
X940174Y720972D01*
X941034Y721124D01*
X941903Y721200D01*
X942777Y721200D01*
X943647Y721124D01*
X944506Y720972D01*
X945350Y720746D01*
X946170Y720448D01*
X946962Y720079D01*
X947718Y719642D01*
X948433Y719141D01*
X949102Y718580D01*
X949720Y717962D01*
X950281Y717293D01*
X950782Y716578D01*
X951219Y715822D01*
X951588Y715030D01*
X951886Y714210D01*
X952112Y713366D01*
X952264Y712507D01*
X952340Y711637D01*
X952340Y710763D01*
X952340Y482163D02*
X952264Y481294D01*
X952112Y480434D01*
X951886Y479590D01*
X951588Y478770D01*
X951219Y477978D01*
X950782Y477222D01*
X950281Y476507D01*
X949720Y475838D01*
X949102Y475220D01*
X948433Y474659D01*
X947718Y474158D01*
X946962Y473721D01*
X946170Y473352D01*
X945350Y473054D01*
X944506Y472828D01*
X943647Y472676D01*
X942777Y472600D01*
X941903Y472600D01*
X941034Y472676D01*
X940174Y472828D01*
X939330Y473054D01*
X938510Y473352D01*
X937718Y473721D01*
X936962Y474158D01*
X936247Y474659D01*
X935578Y475220D01*
X934960Y475838D01*
X934399Y476507D01*
X933898Y477222D01*
X933461Y477978D01*
X933092Y478770D01*
X932794Y479590D01*
X932568Y480434D01*
X932416Y481294D01*
X932340Y482163D01*
X932340Y483037D01*
X932416Y483907D01*
X932568Y484766D01*
X932794Y485610D01*
X933092Y486430D01*
X933461Y487222D01*
X933898Y487978D01*
X934399Y488693D01*
X934960Y489362D01*
X935578Y489980D01*
X936247Y490541D01*
X936962Y491042D01*
X937718Y491479D01*
X938510Y491848D01*
X939330Y492146D01*
X940174Y492372D01*
X941034Y492524D01*
X941903Y492600D01*
X942777Y492600D01*
X943647Y492524D01*
X944506Y492372D01*
X945350Y492146D01*
X946170Y491848D01*
X946962Y491479D01*
X947718Y491042D01*
X948433Y490541D01*
X949102Y489980D01*
X949720Y489362D01*
X950281Y488693D01*
X950782Y487978D01*
X951219Y487222D01*
X951588Y486430D01*
X951886Y485610D01*
X952112Y484766D01*
X952264Y483907D01*
X952340Y483037D01*
X952340Y482163D01*
X1169000Y183809D02*
X1168923Y182830D01*
X1168769Y181860D01*
X1168540Y180904D01*
X1168236Y179970D01*
X1167861Y179063D01*
X1167415Y178188D01*
X1166901Y177350D01*
X1166324Y176555D01*
X1165686Y175808D01*
X1164992Y175114D01*
X1164245Y174476D01*
X1163450Y173899D01*
X1162612Y173385D01*
X1161737Y172939D01*
X1160830Y172564D01*
X1159896Y172260D01*
X1158941Y172031D01*
X1157970Y171877D01*
X1156991Y171800D01*
X1156009Y171800D01*
X1155030Y171877D01*
X1154060Y172031D01*
X1153104Y172260D01*
X1152170Y172564D01*
X1151263Y172939D01*
X1150388Y173385D01*
X1149550Y173899D01*
X1148755Y174476D01*
X1148008Y175114D01*
X1147314Y175808D01*
X1146676Y176555D01*
X1146099Y177350D01*
X1145585Y178188D01*
X1145139Y179063D01*
X1144764Y179970D01*
X1144460Y180904D01*
X1144231Y181860D01*
X1144077Y182830D01*
X1144000Y183809D01*
X1144000Y184791D01*
X1144077Y185770D01*
X1144231Y186741D01*
X1144460Y187696D01*
X1144764Y188630D01*
X1145139Y189537D01*
X1145585Y190412D01*
X1146099Y191250D01*
X1146676Y192045D01*
X1147314Y192792D01*
X1148008Y193486D01*
X1148755Y194124D01*
X1149550Y194701D01*
X1150388Y195215D01*
X1151263Y195661D01*
X1152170Y196036D01*
X1153104Y196340D01*
X1154060Y196569D01*
X1155030Y196723D01*
X1156009Y196800D01*
X1156991Y196800D01*
X1157970Y196723D01*
X1158941Y196569D01*
X1159896Y196340D01*
X1160830Y196036D01*
X1161737Y195661D01*
X1162612Y195215D01*
X1163450Y194701D01*
X1164245Y194124D01*
X1164992Y193486D01*
X1165686Y192792D01*
X1166324Y192045D01*
X1166901Y191250D01*
X1167415Y190412D01*
X1167861Y189537D01*
X1168236Y188630D01*
X1168540Y187696D01*
X1168769Y186741D01*
X1168923Y185770D01*
X1169000Y184791D01*
X1169000Y183809D01*
X1269000Y183809D02*
X1268923Y182830D01*
X1268769Y181860D01*
X1268540Y180904D01*
X1268236Y179970D01*
X1267861Y179063D01*
X1267415Y178188D01*
X1266901Y177350D01*
X1266324Y176555D01*
X1265686Y175808D01*
X1264992Y175114D01*
X1264245Y174476D01*
X1263450Y173899D01*
X1262612Y173385D01*
X1261737Y172939D01*
X1260830Y172564D01*
X1259896Y172260D01*
X1258941Y172031D01*
X1257970Y171877D01*
X1256991Y171800D01*
X1256009Y171800D01*
X1255030Y171877D01*
X1254060Y172031D01*
X1253104Y172260D01*
X1252170Y172564D01*
X1251263Y172939D01*
X1250388Y173385D01*
X1249550Y173899D01*
X1248755Y174476D01*
X1248008Y175114D01*
X1247314Y175808D01*
X1246676Y176555D01*
X1246099Y177350D01*
X1245585Y178188D01*
X1245139Y179063D01*
X1244764Y179970D01*
X1244460Y180904D01*
X1244231Y181860D01*
X1244077Y182830D01*
X1244000Y183809D01*
X1244000Y184791D01*
X1244077Y185770D01*
X1244231Y186741D01*
X1244460Y187696D01*
X1244764Y188630D01*
X1245139Y189537D01*
X1245585Y190412D01*
X1246099Y191250D01*
X1246676Y192045D01*
X1247314Y192792D01*
X1248008Y193486D01*
X1248755Y194124D01*
X1249550Y194701D01*
X1250388Y195215D01*
X1251263Y195661D01*
X1252170Y196036D01*
X1253104Y196340D01*
X1254060Y196569D01*
X1255030Y196723D01*
X1256009Y196800D01*
X1256991Y196800D01*
X1257970Y196723D01*
X1258941Y196569D01*
X1259896Y196340D01*
X1260830Y196036D01*
X1261737Y195661D01*
X1262612Y195215D01*
X1263450Y194701D01*
X1264245Y194124D01*
X1264992Y193486D01*
X1265686Y192792D01*
X1266324Y192045D01*
X1266901Y191250D01*
X1267415Y190412D01*
X1267861Y189537D01*
X1268236Y188630D01*
X1268540Y187696D01*
X1268769Y186741D01*
X1268923Y185770D01*
X1269000Y184791D01*
X1269000Y183809D01*
M02*
