G04 EAGLE Gerber RS-274X export*
G75*
%MOMM*%
%FSLAX34Y34*%
%LPD*%
%INSilkscreen Bottom*%
%IPPOS*%
%AMOC8*
5,1,8,0,0,1.08239X$1,22.5*%
G01*
%ADD10C,0.152400*%
%ADD11C,0.254000*%
%ADD12C,0.101600*%


D10*
X452882Y51562D02*
X452882Y67818D01*
X457398Y67818D01*
X457531Y67816D01*
X457663Y67810D01*
X457795Y67800D01*
X457927Y67787D01*
X458059Y67769D01*
X458189Y67748D01*
X458320Y67723D01*
X458449Y67694D01*
X458577Y67661D01*
X458705Y67625D01*
X458831Y67585D01*
X458956Y67541D01*
X459080Y67493D01*
X459202Y67442D01*
X459323Y67387D01*
X459442Y67329D01*
X459560Y67267D01*
X459675Y67202D01*
X459789Y67133D01*
X459900Y67062D01*
X460009Y66986D01*
X460116Y66908D01*
X460221Y66827D01*
X460323Y66742D01*
X460423Y66655D01*
X460520Y66565D01*
X460615Y66472D01*
X460706Y66376D01*
X460795Y66278D01*
X460881Y66177D01*
X460964Y66073D01*
X461044Y65967D01*
X461120Y65859D01*
X461194Y65749D01*
X461264Y65636D01*
X461331Y65522D01*
X461394Y65405D01*
X461454Y65287D01*
X461511Y65167D01*
X461564Y65045D01*
X461613Y64922D01*
X461659Y64798D01*
X461701Y64672D01*
X461739Y64545D01*
X461774Y64417D01*
X461805Y64288D01*
X461832Y64159D01*
X461855Y64028D01*
X461875Y63897D01*
X461890Y63765D01*
X461902Y63633D01*
X461910Y63501D01*
X461914Y63368D01*
X461914Y63236D01*
X461910Y63103D01*
X461902Y62971D01*
X461890Y62839D01*
X461875Y62707D01*
X461855Y62576D01*
X461832Y62445D01*
X461805Y62316D01*
X461774Y62187D01*
X461739Y62059D01*
X461701Y61932D01*
X461659Y61806D01*
X461613Y61682D01*
X461564Y61559D01*
X461511Y61437D01*
X461454Y61317D01*
X461394Y61199D01*
X461331Y61082D01*
X461264Y60968D01*
X461194Y60855D01*
X461120Y60745D01*
X461044Y60637D01*
X460964Y60531D01*
X460881Y60427D01*
X460795Y60326D01*
X460706Y60228D01*
X460615Y60132D01*
X460520Y60039D01*
X460423Y59949D01*
X460323Y59862D01*
X460221Y59777D01*
X460116Y59696D01*
X460009Y59618D01*
X459900Y59542D01*
X459789Y59471D01*
X459675Y59402D01*
X459560Y59337D01*
X459442Y59275D01*
X459323Y59217D01*
X459202Y59162D01*
X459080Y59111D01*
X458956Y59063D01*
X458831Y59019D01*
X458705Y58979D01*
X458577Y58943D01*
X458449Y58910D01*
X458320Y58881D01*
X458189Y58856D01*
X458059Y58835D01*
X457927Y58817D01*
X457795Y58804D01*
X457663Y58794D01*
X457531Y58788D01*
X457398Y58786D01*
X457398Y58787D02*
X452882Y58787D01*
X458301Y58787D02*
X461913Y51562D01*
X468973Y51562D02*
X476197Y51562D01*
X468973Y51562D02*
X468973Y67818D01*
X476197Y67818D01*
X474391Y60593D02*
X468973Y60593D01*
X481066Y67818D02*
X486484Y51562D01*
X491903Y67818D01*
X505937Y64206D02*
X510452Y67818D01*
X510452Y51562D01*
X505937Y51562D02*
X514968Y51562D01*
X520942Y51562D02*
X520942Y52465D01*
X521846Y52465D01*
X521846Y51562D01*
X520942Y51562D01*
X539630Y51562D02*
X539630Y67818D01*
X535115Y67818D02*
X544146Y67818D01*
X550086Y67818D02*
X550086Y51562D01*
X550086Y62399D02*
X554602Y62399D01*
X554706Y62397D01*
X554809Y62391D01*
X554913Y62381D01*
X555016Y62367D01*
X555118Y62349D01*
X555219Y62328D01*
X555320Y62302D01*
X555419Y62273D01*
X555518Y62240D01*
X555615Y62203D01*
X555710Y62162D01*
X555804Y62118D01*
X555896Y62070D01*
X555986Y62019D01*
X556075Y61964D01*
X556161Y61906D01*
X556244Y61844D01*
X556326Y61780D01*
X556404Y61712D01*
X556480Y61642D01*
X556554Y61569D01*
X556624Y61492D01*
X556692Y61414D01*
X556756Y61332D01*
X556818Y61249D01*
X556876Y61163D01*
X556931Y61074D01*
X556982Y60984D01*
X557030Y60892D01*
X557074Y60798D01*
X557115Y60703D01*
X557152Y60606D01*
X557185Y60507D01*
X557214Y60408D01*
X557240Y60307D01*
X557261Y60206D01*
X557279Y60104D01*
X557293Y60001D01*
X557303Y59897D01*
X557309Y59794D01*
X557311Y59690D01*
X557311Y51562D01*
X566863Y51562D02*
X571379Y51562D01*
X566863Y51562D02*
X566762Y51564D01*
X566661Y51570D01*
X566560Y51579D01*
X566459Y51592D01*
X566359Y51609D01*
X566260Y51630D01*
X566162Y51654D01*
X566065Y51682D01*
X565968Y51714D01*
X565873Y51749D01*
X565780Y51788D01*
X565688Y51830D01*
X565597Y51876D01*
X565509Y51925D01*
X565422Y51977D01*
X565337Y52033D01*
X565254Y52091D01*
X565174Y52153D01*
X565096Y52218D01*
X565020Y52285D01*
X564947Y52355D01*
X564877Y52428D01*
X564810Y52504D01*
X564745Y52582D01*
X564683Y52662D01*
X564625Y52745D01*
X564569Y52830D01*
X564517Y52916D01*
X564468Y53005D01*
X564422Y53096D01*
X564380Y53188D01*
X564341Y53281D01*
X564306Y53376D01*
X564274Y53473D01*
X564246Y53570D01*
X564222Y53668D01*
X564201Y53767D01*
X564184Y53867D01*
X564171Y53968D01*
X564162Y54069D01*
X564156Y54170D01*
X564154Y54271D01*
X564154Y58787D01*
X564155Y58787D02*
X564157Y58906D01*
X564163Y59026D01*
X564173Y59145D01*
X564187Y59263D01*
X564204Y59382D01*
X564226Y59499D01*
X564251Y59616D01*
X564281Y59731D01*
X564314Y59846D01*
X564351Y59960D01*
X564391Y60072D01*
X564436Y60183D01*
X564484Y60292D01*
X564535Y60400D01*
X564590Y60506D01*
X564649Y60610D01*
X564711Y60712D01*
X564776Y60812D01*
X564845Y60910D01*
X564917Y61006D01*
X564992Y61099D01*
X565069Y61189D01*
X565150Y61277D01*
X565234Y61362D01*
X565321Y61444D01*
X565410Y61524D01*
X565502Y61600D01*
X565596Y61674D01*
X565693Y61744D01*
X565791Y61811D01*
X565892Y61875D01*
X565996Y61935D01*
X566101Y61992D01*
X566208Y62045D01*
X566316Y62095D01*
X566426Y62141D01*
X566538Y62183D01*
X566651Y62222D01*
X566765Y62257D01*
X566880Y62288D01*
X566997Y62316D01*
X567114Y62339D01*
X567231Y62359D01*
X567350Y62375D01*
X567469Y62387D01*
X567588Y62395D01*
X567707Y62399D01*
X567827Y62399D01*
X567946Y62395D01*
X568065Y62387D01*
X568184Y62375D01*
X568303Y62359D01*
X568420Y62339D01*
X568537Y62316D01*
X568654Y62288D01*
X568769Y62257D01*
X568883Y62222D01*
X568996Y62183D01*
X569108Y62141D01*
X569218Y62095D01*
X569326Y62045D01*
X569433Y61992D01*
X569538Y61935D01*
X569642Y61875D01*
X569743Y61811D01*
X569841Y61744D01*
X569938Y61674D01*
X570032Y61600D01*
X570124Y61524D01*
X570213Y61444D01*
X570300Y61362D01*
X570384Y61277D01*
X570465Y61189D01*
X570542Y61099D01*
X570617Y61006D01*
X570689Y60910D01*
X570758Y60812D01*
X570823Y60712D01*
X570885Y60610D01*
X570944Y60506D01*
X570999Y60400D01*
X571050Y60292D01*
X571098Y60183D01*
X571143Y60072D01*
X571183Y59960D01*
X571220Y59846D01*
X571253Y59731D01*
X571283Y59616D01*
X571308Y59499D01*
X571330Y59382D01*
X571347Y59263D01*
X571361Y59145D01*
X571371Y59026D01*
X571377Y58906D01*
X571379Y58787D01*
X571379Y56981D01*
X564154Y56981D01*
X593020Y60593D02*
X595729Y60593D01*
X595729Y51562D01*
X590310Y51562D01*
X590192Y51564D01*
X590074Y51570D01*
X589956Y51579D01*
X589839Y51593D01*
X589722Y51610D01*
X589605Y51631D01*
X589490Y51656D01*
X589375Y51685D01*
X589261Y51718D01*
X589149Y51754D01*
X589038Y51794D01*
X588928Y51837D01*
X588819Y51884D01*
X588712Y51934D01*
X588607Y51989D01*
X588504Y52046D01*
X588403Y52107D01*
X588303Y52171D01*
X588206Y52238D01*
X588111Y52308D01*
X588019Y52382D01*
X587928Y52458D01*
X587841Y52538D01*
X587756Y52620D01*
X587674Y52705D01*
X587594Y52792D01*
X587518Y52883D01*
X587444Y52975D01*
X587374Y53070D01*
X587307Y53167D01*
X587243Y53267D01*
X587182Y53368D01*
X587125Y53471D01*
X587070Y53576D01*
X587020Y53683D01*
X586973Y53792D01*
X586930Y53902D01*
X586890Y54013D01*
X586854Y54125D01*
X586821Y54239D01*
X586792Y54354D01*
X586767Y54469D01*
X586746Y54586D01*
X586729Y54703D01*
X586715Y54820D01*
X586706Y54938D01*
X586700Y55056D01*
X586698Y55174D01*
X586698Y64206D01*
X586700Y64324D01*
X586706Y64442D01*
X586715Y64560D01*
X586729Y64677D01*
X586746Y64794D01*
X586767Y64911D01*
X586792Y65026D01*
X586821Y65141D01*
X586854Y65255D01*
X586890Y65367D01*
X586930Y65478D01*
X586973Y65588D01*
X587020Y65697D01*
X587070Y65804D01*
X587124Y65909D01*
X587182Y66012D01*
X587243Y66113D01*
X587307Y66213D01*
X587374Y66310D01*
X587444Y66405D01*
X587518Y66497D01*
X587594Y66588D01*
X587674Y66675D01*
X587756Y66760D01*
X587841Y66842D01*
X587928Y66922D01*
X588019Y66998D01*
X588111Y67072D01*
X588206Y67142D01*
X588303Y67209D01*
X588403Y67273D01*
X588504Y67334D01*
X588607Y67391D01*
X588712Y67445D01*
X588819Y67496D01*
X588928Y67543D01*
X589038Y67586D01*
X589149Y67626D01*
X589261Y67662D01*
X589375Y67695D01*
X589490Y67724D01*
X589605Y67749D01*
X589722Y67770D01*
X589839Y67787D01*
X589956Y67801D01*
X590074Y67810D01*
X590192Y67816D01*
X590310Y67818D01*
X595729Y67818D01*
X602948Y67818D02*
X602948Y54271D01*
X602950Y54170D01*
X602956Y54069D01*
X602965Y53968D01*
X602978Y53867D01*
X602995Y53767D01*
X603016Y53668D01*
X603040Y53570D01*
X603068Y53473D01*
X603100Y53376D01*
X603135Y53281D01*
X603174Y53188D01*
X603216Y53096D01*
X603262Y53005D01*
X603311Y52916D01*
X603363Y52830D01*
X603419Y52745D01*
X603477Y52662D01*
X603539Y52582D01*
X603604Y52504D01*
X603671Y52428D01*
X603741Y52355D01*
X603814Y52285D01*
X603890Y52218D01*
X603968Y52153D01*
X604048Y52091D01*
X604131Y52033D01*
X604216Y51977D01*
X604303Y51925D01*
X604391Y51876D01*
X604482Y51830D01*
X604574Y51788D01*
X604667Y51749D01*
X604762Y51714D01*
X604859Y51682D01*
X604956Y51654D01*
X605054Y51630D01*
X605153Y51609D01*
X605253Y51592D01*
X605354Y51579D01*
X605455Y51570D01*
X605556Y51564D01*
X605657Y51562D01*
X611048Y55174D02*
X611048Y58787D01*
X611050Y58906D01*
X611056Y59026D01*
X611066Y59145D01*
X611080Y59263D01*
X611097Y59382D01*
X611119Y59499D01*
X611144Y59616D01*
X611174Y59731D01*
X611207Y59846D01*
X611244Y59960D01*
X611284Y60072D01*
X611329Y60183D01*
X611377Y60292D01*
X611428Y60400D01*
X611483Y60506D01*
X611542Y60610D01*
X611604Y60712D01*
X611669Y60812D01*
X611738Y60910D01*
X611810Y61006D01*
X611885Y61099D01*
X611962Y61189D01*
X612043Y61277D01*
X612127Y61362D01*
X612214Y61444D01*
X612303Y61524D01*
X612395Y61600D01*
X612489Y61674D01*
X612586Y61744D01*
X612684Y61811D01*
X612785Y61875D01*
X612889Y61935D01*
X612994Y61992D01*
X613101Y62045D01*
X613209Y62095D01*
X613319Y62141D01*
X613431Y62183D01*
X613544Y62222D01*
X613658Y62257D01*
X613773Y62288D01*
X613890Y62316D01*
X614007Y62339D01*
X614124Y62359D01*
X614243Y62375D01*
X614362Y62387D01*
X614481Y62395D01*
X614600Y62399D01*
X614720Y62399D01*
X614839Y62395D01*
X614958Y62387D01*
X615077Y62375D01*
X615196Y62359D01*
X615313Y62339D01*
X615430Y62316D01*
X615547Y62288D01*
X615662Y62257D01*
X615776Y62222D01*
X615889Y62183D01*
X616001Y62141D01*
X616111Y62095D01*
X616219Y62045D01*
X616326Y61992D01*
X616431Y61935D01*
X616535Y61875D01*
X616636Y61811D01*
X616734Y61744D01*
X616831Y61674D01*
X616925Y61600D01*
X617017Y61524D01*
X617106Y61444D01*
X617193Y61362D01*
X617277Y61277D01*
X617358Y61189D01*
X617435Y61099D01*
X617510Y61006D01*
X617582Y60910D01*
X617651Y60812D01*
X617716Y60712D01*
X617778Y60610D01*
X617837Y60506D01*
X617892Y60400D01*
X617943Y60292D01*
X617991Y60183D01*
X618036Y60072D01*
X618076Y59960D01*
X618113Y59846D01*
X618146Y59731D01*
X618176Y59616D01*
X618201Y59499D01*
X618223Y59382D01*
X618240Y59263D01*
X618254Y59145D01*
X618264Y59026D01*
X618270Y58906D01*
X618272Y58787D01*
X618273Y58787D02*
X618273Y55174D01*
X618272Y55174D02*
X618270Y55055D01*
X618264Y54935D01*
X618254Y54816D01*
X618240Y54698D01*
X618223Y54579D01*
X618201Y54462D01*
X618176Y54345D01*
X618146Y54230D01*
X618113Y54115D01*
X618076Y54001D01*
X618036Y53889D01*
X617991Y53778D01*
X617943Y53669D01*
X617892Y53561D01*
X617837Y53455D01*
X617778Y53351D01*
X617716Y53249D01*
X617651Y53149D01*
X617582Y53051D01*
X617510Y52955D01*
X617435Y52862D01*
X617358Y52772D01*
X617277Y52684D01*
X617193Y52599D01*
X617106Y52517D01*
X617017Y52437D01*
X616925Y52361D01*
X616831Y52287D01*
X616734Y52217D01*
X616636Y52150D01*
X616535Y52086D01*
X616431Y52026D01*
X616326Y51969D01*
X616219Y51916D01*
X616111Y51866D01*
X616001Y51820D01*
X615889Y51778D01*
X615776Y51739D01*
X615662Y51704D01*
X615547Y51673D01*
X615430Y51645D01*
X615313Y51622D01*
X615196Y51602D01*
X615077Y51586D01*
X614958Y51574D01*
X614839Y51566D01*
X614720Y51562D01*
X614600Y51562D01*
X614481Y51566D01*
X614362Y51574D01*
X614243Y51586D01*
X614124Y51602D01*
X614007Y51622D01*
X613890Y51645D01*
X613773Y51673D01*
X613658Y51704D01*
X613544Y51739D01*
X613431Y51778D01*
X613319Y51820D01*
X613209Y51866D01*
X613101Y51916D01*
X612994Y51969D01*
X612889Y52026D01*
X612785Y52086D01*
X612684Y52150D01*
X612586Y52217D01*
X612489Y52287D01*
X612395Y52361D01*
X612303Y52437D01*
X612214Y52517D01*
X612127Y52599D01*
X612043Y52684D01*
X611962Y52772D01*
X611885Y52862D01*
X611810Y52955D01*
X611738Y53051D01*
X611669Y53149D01*
X611604Y53249D01*
X611542Y53351D01*
X611483Y53455D01*
X611428Y53561D01*
X611377Y53669D01*
X611329Y53778D01*
X611284Y53889D01*
X611244Y54001D01*
X611207Y54115D01*
X611174Y54230D01*
X611144Y54345D01*
X611119Y54462D01*
X611097Y54579D01*
X611080Y54698D01*
X611066Y54816D01*
X611056Y54935D01*
X611050Y55055D01*
X611048Y55174D01*
X625189Y51562D02*
X625189Y67818D01*
X625189Y51562D02*
X629705Y51562D01*
X629809Y51564D01*
X629912Y51570D01*
X630016Y51580D01*
X630119Y51594D01*
X630221Y51612D01*
X630322Y51633D01*
X630423Y51659D01*
X630522Y51688D01*
X630621Y51721D01*
X630718Y51758D01*
X630813Y51799D01*
X630907Y51843D01*
X630999Y51891D01*
X631089Y51942D01*
X631178Y51997D01*
X631264Y52055D01*
X631347Y52117D01*
X631429Y52181D01*
X631507Y52249D01*
X631583Y52319D01*
X631657Y52392D01*
X631727Y52469D01*
X631795Y52547D01*
X631859Y52629D01*
X631921Y52712D01*
X631979Y52798D01*
X632034Y52887D01*
X632085Y52977D01*
X632133Y53069D01*
X632177Y53163D01*
X632218Y53258D01*
X632255Y53355D01*
X632288Y53454D01*
X632317Y53553D01*
X632343Y53654D01*
X632364Y53755D01*
X632382Y53857D01*
X632396Y53960D01*
X632406Y54064D01*
X632412Y54167D01*
X632414Y54271D01*
X632414Y59690D01*
X632412Y59791D01*
X632406Y59892D01*
X632397Y59993D01*
X632384Y60094D01*
X632367Y60194D01*
X632346Y60293D01*
X632322Y60391D01*
X632294Y60488D01*
X632262Y60585D01*
X632227Y60680D01*
X632188Y60773D01*
X632146Y60865D01*
X632100Y60956D01*
X632051Y61045D01*
X631999Y61131D01*
X631943Y61216D01*
X631885Y61299D01*
X631823Y61379D01*
X631758Y61457D01*
X631691Y61533D01*
X631621Y61606D01*
X631548Y61676D01*
X631472Y61743D01*
X631394Y61808D01*
X631314Y61870D01*
X631231Y61928D01*
X631146Y61984D01*
X631060Y62036D01*
X630971Y62085D01*
X630880Y62131D01*
X630788Y62173D01*
X630695Y62212D01*
X630600Y62247D01*
X630503Y62279D01*
X630406Y62307D01*
X630308Y62331D01*
X630209Y62352D01*
X630109Y62369D01*
X630008Y62382D01*
X629907Y62391D01*
X629806Y62397D01*
X629705Y62399D01*
X625189Y62399D01*
X641372Y51562D02*
X645888Y51562D01*
X641372Y51562D02*
X641271Y51564D01*
X641170Y51570D01*
X641069Y51579D01*
X640968Y51592D01*
X640868Y51609D01*
X640769Y51630D01*
X640671Y51654D01*
X640574Y51682D01*
X640477Y51714D01*
X640382Y51749D01*
X640289Y51788D01*
X640197Y51830D01*
X640106Y51876D01*
X640018Y51925D01*
X639931Y51977D01*
X639846Y52033D01*
X639763Y52091D01*
X639683Y52153D01*
X639605Y52218D01*
X639529Y52285D01*
X639456Y52355D01*
X639386Y52428D01*
X639319Y52504D01*
X639254Y52582D01*
X639192Y52662D01*
X639134Y52745D01*
X639078Y52830D01*
X639026Y52916D01*
X638977Y53005D01*
X638931Y53096D01*
X638889Y53188D01*
X638850Y53281D01*
X638815Y53376D01*
X638783Y53473D01*
X638755Y53570D01*
X638731Y53668D01*
X638710Y53767D01*
X638693Y53867D01*
X638680Y53968D01*
X638671Y54069D01*
X638665Y54170D01*
X638663Y54271D01*
X638663Y58787D01*
X638665Y58906D01*
X638671Y59026D01*
X638681Y59145D01*
X638695Y59263D01*
X638712Y59382D01*
X638734Y59499D01*
X638759Y59616D01*
X638789Y59731D01*
X638822Y59846D01*
X638859Y59960D01*
X638899Y60072D01*
X638944Y60183D01*
X638992Y60292D01*
X639043Y60400D01*
X639098Y60506D01*
X639157Y60610D01*
X639219Y60712D01*
X639284Y60812D01*
X639353Y60910D01*
X639425Y61006D01*
X639500Y61099D01*
X639577Y61189D01*
X639658Y61277D01*
X639742Y61362D01*
X639829Y61444D01*
X639918Y61524D01*
X640010Y61600D01*
X640104Y61674D01*
X640201Y61744D01*
X640299Y61811D01*
X640400Y61875D01*
X640504Y61935D01*
X640609Y61992D01*
X640716Y62045D01*
X640824Y62095D01*
X640934Y62141D01*
X641046Y62183D01*
X641159Y62222D01*
X641273Y62257D01*
X641388Y62288D01*
X641505Y62316D01*
X641622Y62339D01*
X641739Y62359D01*
X641858Y62375D01*
X641977Y62387D01*
X642096Y62395D01*
X642215Y62399D01*
X642335Y62399D01*
X642454Y62395D01*
X642573Y62387D01*
X642692Y62375D01*
X642811Y62359D01*
X642928Y62339D01*
X643045Y62316D01*
X643162Y62288D01*
X643277Y62257D01*
X643391Y62222D01*
X643504Y62183D01*
X643616Y62141D01*
X643726Y62095D01*
X643834Y62045D01*
X643941Y61992D01*
X644046Y61935D01*
X644150Y61875D01*
X644251Y61811D01*
X644349Y61744D01*
X644446Y61674D01*
X644540Y61600D01*
X644632Y61524D01*
X644721Y61444D01*
X644808Y61362D01*
X644892Y61277D01*
X644973Y61189D01*
X645050Y61099D01*
X645125Y61006D01*
X645197Y60910D01*
X645266Y60812D01*
X645331Y60712D01*
X645393Y60610D01*
X645452Y60506D01*
X645507Y60400D01*
X645558Y60292D01*
X645606Y60183D01*
X645651Y60072D01*
X645691Y59960D01*
X645728Y59846D01*
X645761Y59731D01*
X645791Y59616D01*
X645816Y59499D01*
X645838Y59382D01*
X645855Y59263D01*
X645869Y59145D01*
X645879Y59026D01*
X645885Y58906D01*
X645887Y58787D01*
X645888Y58787D02*
X645888Y56981D01*
X638663Y56981D01*
D11*
X872070Y602730D02*
X1222070Y602730D01*
X1224486Y602701D01*
X1226901Y602613D01*
X1229313Y602467D01*
X1231721Y602263D01*
X1234124Y602001D01*
X1236519Y601681D01*
X1238906Y601303D01*
X1241283Y600867D01*
X1243648Y600374D01*
X1246002Y599824D01*
X1248341Y599218D01*
X1250665Y598555D01*
X1252972Y597836D01*
X1255261Y597061D01*
X1257530Y596232D01*
X1259779Y595347D01*
X1262006Y594409D01*
X1264210Y593417D01*
X1266389Y592373D01*
X1268542Y591276D01*
X1270668Y590127D01*
X1272766Y588927D01*
X1274834Y587677D01*
X1276871Y586377D01*
X1278876Y585028D01*
X1280849Y583632D01*
X1282786Y582188D01*
X1284689Y580697D01*
X1286554Y579162D01*
X1288382Y577581D01*
X1290172Y575957D01*
X1291921Y574290D01*
X1293630Y572581D01*
X1295297Y570832D01*
X1296921Y569042D01*
X1298502Y567214D01*
X1300037Y565349D01*
X1301528Y563446D01*
X1302972Y561509D01*
X1304368Y559536D01*
X1305717Y557531D01*
X1307017Y555494D01*
X1308267Y553426D01*
X1309467Y551328D01*
X1310616Y549202D01*
X1311713Y547049D01*
X1312757Y544870D01*
X1313749Y542666D01*
X1314687Y540439D01*
X1315572Y538190D01*
X1316401Y535921D01*
X1317176Y533632D01*
X1317895Y531325D01*
X1318558Y529001D01*
X1319164Y526662D01*
X1319714Y524308D01*
X1320207Y521943D01*
X1320643Y519566D01*
X1321021Y517179D01*
X1321341Y514784D01*
X1321603Y512381D01*
X1321807Y509973D01*
X1321953Y507561D01*
X1322041Y505146D01*
X1322070Y502730D01*
X1322070Y352730D01*
X1322041Y350314D01*
X1321953Y347899D01*
X1321807Y345487D01*
X1321603Y343079D01*
X1321341Y340676D01*
X1321021Y338281D01*
X1320643Y335894D01*
X1320207Y333517D01*
X1319714Y331152D01*
X1319164Y328798D01*
X1318558Y326459D01*
X1317895Y324135D01*
X1317176Y321828D01*
X1316401Y319539D01*
X1315572Y317270D01*
X1314687Y315021D01*
X1313749Y312794D01*
X1312757Y310590D01*
X1311713Y308411D01*
X1310616Y306258D01*
X1309467Y304132D01*
X1308267Y302034D01*
X1307017Y299966D01*
X1305717Y297929D01*
X1304368Y295924D01*
X1302972Y293951D01*
X1301528Y292014D01*
X1300037Y290111D01*
X1298502Y288246D01*
X1296921Y286418D01*
X1295297Y284628D01*
X1293630Y282879D01*
X1291921Y281170D01*
X1290172Y279503D01*
X1288382Y277879D01*
X1286554Y276298D01*
X1284689Y274763D01*
X1282786Y273272D01*
X1280849Y271828D01*
X1278876Y270432D01*
X1276871Y269083D01*
X1274834Y267783D01*
X1272766Y266533D01*
X1270668Y265333D01*
X1268542Y264184D01*
X1266389Y263087D01*
X1264210Y262043D01*
X1262006Y261051D01*
X1259779Y260113D01*
X1257530Y259228D01*
X1255261Y258399D01*
X1252972Y257624D01*
X1250665Y256905D01*
X1248341Y256242D01*
X1246002Y255636D01*
X1243648Y255086D01*
X1241283Y254593D01*
X1238906Y254157D01*
X1236519Y253779D01*
X1234124Y253459D01*
X1231721Y253197D01*
X1229313Y252993D01*
X1226901Y252847D01*
X1224486Y252759D01*
X1222070Y252730D01*
X872070Y252730D01*
X869654Y252759D01*
X867239Y252847D01*
X864827Y252993D01*
X862419Y253197D01*
X860016Y253459D01*
X857621Y253779D01*
X855234Y254157D01*
X852857Y254593D01*
X850492Y255086D01*
X848138Y255636D01*
X845799Y256242D01*
X843475Y256905D01*
X841168Y257624D01*
X838879Y258399D01*
X836610Y259228D01*
X834361Y260113D01*
X832134Y261051D01*
X829930Y262043D01*
X827751Y263087D01*
X825598Y264184D01*
X823472Y265333D01*
X821374Y266533D01*
X819306Y267783D01*
X817269Y269083D01*
X815264Y270432D01*
X813291Y271828D01*
X811354Y273272D01*
X809451Y274763D01*
X807586Y276298D01*
X805758Y277879D01*
X803968Y279503D01*
X802219Y281170D01*
X800510Y282879D01*
X798843Y284628D01*
X797219Y286418D01*
X795638Y288246D01*
X794103Y290111D01*
X792612Y292014D01*
X791168Y293951D01*
X789772Y295924D01*
X788423Y297929D01*
X787123Y299966D01*
X785873Y302034D01*
X784673Y304132D01*
X783524Y306258D01*
X782427Y308411D01*
X781383Y310590D01*
X780391Y312794D01*
X779453Y315021D01*
X778568Y317270D01*
X777739Y319539D01*
X776964Y321828D01*
X776245Y324135D01*
X775582Y326459D01*
X774976Y328798D01*
X774426Y331152D01*
X773933Y333517D01*
X773497Y335894D01*
X773119Y338281D01*
X772799Y340676D01*
X772537Y343079D01*
X772333Y345487D01*
X772187Y347899D01*
X772099Y350314D01*
X772070Y352730D01*
X772070Y502730D01*
X772099Y505146D01*
X772187Y507561D01*
X772333Y509973D01*
X772537Y512381D01*
X772799Y514784D01*
X773119Y517179D01*
X773497Y519566D01*
X773933Y521943D01*
X774426Y524308D01*
X774976Y526662D01*
X775582Y529001D01*
X776245Y531325D01*
X776964Y533632D01*
X777739Y535921D01*
X778568Y538190D01*
X779453Y540439D01*
X780391Y542666D01*
X781383Y544870D01*
X782427Y547049D01*
X783524Y549202D01*
X784673Y551328D01*
X785873Y553426D01*
X787123Y555494D01*
X788423Y557531D01*
X789772Y559536D01*
X791168Y561509D01*
X792612Y563446D01*
X794103Y565349D01*
X795638Y567214D01*
X797219Y569042D01*
X798843Y570832D01*
X800510Y572581D01*
X802219Y574290D01*
X803968Y575957D01*
X805758Y577581D01*
X807586Y579162D01*
X809451Y580697D01*
X811354Y582188D01*
X813291Y583632D01*
X815264Y585028D01*
X817269Y586377D01*
X819306Y587677D01*
X821374Y588927D01*
X823472Y590127D01*
X825598Y591276D01*
X827751Y592373D01*
X829930Y593417D01*
X832134Y594409D01*
X834361Y595347D01*
X836610Y596232D01*
X838879Y597061D01*
X841168Y597836D01*
X843475Y598555D01*
X845799Y599218D01*
X848138Y599824D01*
X850492Y600374D01*
X852857Y600867D01*
X855234Y601303D01*
X857621Y601681D01*
X860016Y602001D01*
X862419Y602263D01*
X864827Y602467D01*
X867239Y602613D01*
X869654Y602701D01*
X872070Y602730D01*
D10*
X1283462Y296277D02*
X1294638Y296277D01*
X1294638Y299381D01*
X1294636Y299492D01*
X1294630Y299602D01*
X1294620Y299713D01*
X1294606Y299823D01*
X1294589Y299932D01*
X1294567Y300041D01*
X1294542Y300149D01*
X1294512Y300255D01*
X1294479Y300361D01*
X1294442Y300466D01*
X1294402Y300569D01*
X1294357Y300670D01*
X1294310Y300770D01*
X1294258Y300869D01*
X1294203Y300965D01*
X1294145Y301059D01*
X1294084Y301151D01*
X1294019Y301241D01*
X1293951Y301329D01*
X1293880Y301414D01*
X1293806Y301496D01*
X1293729Y301576D01*
X1293649Y301653D01*
X1293567Y301727D01*
X1293482Y301798D01*
X1293394Y301866D01*
X1293304Y301931D01*
X1293212Y301992D01*
X1293118Y302050D01*
X1293022Y302105D01*
X1292923Y302157D01*
X1292823Y302204D01*
X1292722Y302249D01*
X1292619Y302289D01*
X1292514Y302326D01*
X1292408Y302359D01*
X1292302Y302389D01*
X1292194Y302414D01*
X1292085Y302436D01*
X1291976Y302453D01*
X1291866Y302467D01*
X1291755Y302477D01*
X1291645Y302483D01*
X1291534Y302485D01*
X1291423Y302483D01*
X1291313Y302477D01*
X1291202Y302467D01*
X1291092Y302453D01*
X1290983Y302436D01*
X1290874Y302414D01*
X1290766Y302389D01*
X1290660Y302359D01*
X1290554Y302326D01*
X1290449Y302289D01*
X1290346Y302249D01*
X1290245Y302204D01*
X1290145Y302157D01*
X1290046Y302105D01*
X1289950Y302050D01*
X1289856Y301992D01*
X1289764Y301931D01*
X1289674Y301866D01*
X1289586Y301798D01*
X1289501Y301727D01*
X1289419Y301653D01*
X1289339Y301576D01*
X1289262Y301496D01*
X1289188Y301414D01*
X1289117Y301329D01*
X1289049Y301241D01*
X1288984Y301151D01*
X1288923Y301059D01*
X1288865Y300965D01*
X1288810Y300869D01*
X1288758Y300770D01*
X1288711Y300670D01*
X1288666Y300569D01*
X1288626Y300466D01*
X1288589Y300361D01*
X1288556Y300255D01*
X1288526Y300149D01*
X1288501Y300041D01*
X1288479Y299932D01*
X1288462Y299823D01*
X1288448Y299713D01*
X1288438Y299602D01*
X1288432Y299492D01*
X1288430Y299381D01*
X1288429Y299381D02*
X1288429Y296277D01*
X1292154Y307114D02*
X1294638Y310219D01*
X1283462Y310219D01*
X1283462Y313323D02*
X1283462Y307114D01*
X1283462Y550277D02*
X1294638Y550277D01*
X1294638Y553381D01*
X1294636Y553492D01*
X1294630Y553602D01*
X1294620Y553713D01*
X1294606Y553823D01*
X1294589Y553932D01*
X1294567Y554041D01*
X1294542Y554149D01*
X1294512Y554255D01*
X1294479Y554361D01*
X1294442Y554466D01*
X1294402Y554569D01*
X1294357Y554670D01*
X1294310Y554770D01*
X1294258Y554869D01*
X1294203Y554965D01*
X1294145Y555059D01*
X1294084Y555151D01*
X1294019Y555241D01*
X1293951Y555329D01*
X1293880Y555414D01*
X1293806Y555496D01*
X1293729Y555576D01*
X1293649Y555653D01*
X1293567Y555727D01*
X1293482Y555798D01*
X1293394Y555866D01*
X1293304Y555931D01*
X1293212Y555992D01*
X1293118Y556050D01*
X1293022Y556105D01*
X1292923Y556157D01*
X1292823Y556204D01*
X1292722Y556249D01*
X1292619Y556289D01*
X1292514Y556326D01*
X1292408Y556359D01*
X1292302Y556389D01*
X1292194Y556414D01*
X1292085Y556436D01*
X1291976Y556453D01*
X1291866Y556467D01*
X1291755Y556477D01*
X1291645Y556483D01*
X1291534Y556485D01*
X1291423Y556483D01*
X1291313Y556477D01*
X1291202Y556467D01*
X1291092Y556453D01*
X1290983Y556436D01*
X1290874Y556414D01*
X1290766Y556389D01*
X1290660Y556359D01*
X1290554Y556326D01*
X1290449Y556289D01*
X1290346Y556249D01*
X1290245Y556204D01*
X1290145Y556157D01*
X1290046Y556105D01*
X1289950Y556050D01*
X1289856Y555992D01*
X1289764Y555931D01*
X1289674Y555866D01*
X1289586Y555798D01*
X1289501Y555727D01*
X1289419Y555653D01*
X1289339Y555576D01*
X1289262Y555496D01*
X1289188Y555414D01*
X1289117Y555329D01*
X1289049Y555241D01*
X1288984Y555151D01*
X1288923Y555059D01*
X1288865Y554965D01*
X1288810Y554869D01*
X1288758Y554770D01*
X1288711Y554670D01*
X1288666Y554569D01*
X1288626Y554466D01*
X1288589Y554361D01*
X1288556Y554255D01*
X1288526Y554149D01*
X1288501Y554041D01*
X1288479Y553932D01*
X1288462Y553823D01*
X1288448Y553713D01*
X1288438Y553602D01*
X1288432Y553492D01*
X1288430Y553381D01*
X1288429Y553381D02*
X1288429Y550277D01*
X1294638Y564529D02*
X1294636Y564633D01*
X1294630Y564738D01*
X1294620Y564842D01*
X1294607Y564945D01*
X1294589Y565048D01*
X1294568Y565151D01*
X1294543Y565252D01*
X1294514Y565353D01*
X1294481Y565452D01*
X1294445Y565550D01*
X1294405Y565646D01*
X1294361Y565741D01*
X1294314Y565835D01*
X1294264Y565926D01*
X1294210Y566015D01*
X1294153Y566103D01*
X1294092Y566188D01*
X1294028Y566271D01*
X1293962Y566351D01*
X1293892Y566429D01*
X1293820Y566505D01*
X1293744Y566577D01*
X1293666Y566647D01*
X1293586Y566713D01*
X1293503Y566777D01*
X1293418Y566838D01*
X1293330Y566895D01*
X1293241Y566949D01*
X1293150Y566999D01*
X1293056Y567046D01*
X1292961Y567090D01*
X1292865Y567130D01*
X1292767Y567166D01*
X1292668Y567199D01*
X1292567Y567228D01*
X1292466Y567253D01*
X1292363Y567274D01*
X1292260Y567292D01*
X1292157Y567305D01*
X1292053Y567315D01*
X1291948Y567321D01*
X1291844Y567323D01*
X1294639Y564529D02*
X1294637Y564410D01*
X1294631Y564292D01*
X1294621Y564173D01*
X1294608Y564055D01*
X1294590Y563938D01*
X1294568Y563821D01*
X1294543Y563705D01*
X1294514Y563590D01*
X1294481Y563475D01*
X1294444Y563362D01*
X1294404Y563251D01*
X1294360Y563140D01*
X1294312Y563032D01*
X1294261Y562925D01*
X1294206Y562819D01*
X1294147Y562716D01*
X1294086Y562614D01*
X1294021Y562515D01*
X1293952Y562417D01*
X1293881Y562323D01*
X1293806Y562230D01*
X1293729Y562140D01*
X1293648Y562053D01*
X1293565Y561968D01*
X1293479Y561886D01*
X1293390Y561807D01*
X1293299Y561731D01*
X1293205Y561658D01*
X1293109Y561589D01*
X1293010Y561522D01*
X1292910Y561459D01*
X1292807Y561399D01*
X1292703Y561342D01*
X1292596Y561290D01*
X1292488Y561240D01*
X1292379Y561194D01*
X1292267Y561152D01*
X1292155Y561114D01*
X1289671Y566392D02*
X1289745Y566467D01*
X1289822Y566539D01*
X1289901Y566609D01*
X1289983Y566676D01*
X1290067Y566740D01*
X1290153Y566801D01*
X1290241Y566859D01*
X1290332Y566914D01*
X1290424Y566966D01*
X1290518Y567014D01*
X1290613Y567059D01*
X1290711Y567101D01*
X1290809Y567139D01*
X1290909Y567174D01*
X1291010Y567205D01*
X1291112Y567232D01*
X1291215Y567256D01*
X1291318Y567277D01*
X1291423Y567293D01*
X1291528Y567306D01*
X1291633Y567316D01*
X1291738Y567321D01*
X1291844Y567323D01*
X1289671Y566392D02*
X1283462Y561114D01*
X1283462Y567323D01*
D12*
X1104392Y513842D02*
X1104392Y502158D01*
X1104392Y513842D02*
X1101146Y513842D01*
X1101033Y513840D01*
X1100920Y513834D01*
X1100807Y513824D01*
X1100694Y513810D01*
X1100582Y513793D01*
X1100471Y513771D01*
X1100361Y513746D01*
X1100251Y513716D01*
X1100143Y513683D01*
X1100036Y513646D01*
X1099930Y513606D01*
X1099826Y513561D01*
X1099723Y513513D01*
X1099622Y513462D01*
X1099523Y513407D01*
X1099426Y513349D01*
X1099331Y513287D01*
X1099238Y513222D01*
X1099148Y513154D01*
X1099060Y513083D01*
X1098974Y513008D01*
X1098891Y512931D01*
X1098811Y512851D01*
X1098734Y512768D01*
X1098659Y512682D01*
X1098588Y512594D01*
X1098520Y512504D01*
X1098455Y512411D01*
X1098393Y512316D01*
X1098335Y512219D01*
X1098280Y512120D01*
X1098229Y512019D01*
X1098181Y511916D01*
X1098136Y511812D01*
X1098096Y511706D01*
X1098059Y511599D01*
X1098026Y511491D01*
X1097996Y511381D01*
X1097971Y511271D01*
X1097949Y511160D01*
X1097932Y511048D01*
X1097918Y510935D01*
X1097908Y510822D01*
X1097902Y510709D01*
X1097900Y510596D01*
X1097902Y510483D01*
X1097908Y510370D01*
X1097918Y510257D01*
X1097932Y510144D01*
X1097949Y510032D01*
X1097971Y509921D01*
X1097996Y509811D01*
X1098026Y509701D01*
X1098059Y509593D01*
X1098096Y509486D01*
X1098136Y509380D01*
X1098181Y509276D01*
X1098229Y509173D01*
X1098280Y509072D01*
X1098335Y508973D01*
X1098393Y508876D01*
X1098455Y508781D01*
X1098520Y508688D01*
X1098588Y508598D01*
X1098659Y508510D01*
X1098734Y508424D01*
X1098811Y508341D01*
X1098891Y508261D01*
X1098974Y508184D01*
X1099060Y508109D01*
X1099148Y508038D01*
X1099238Y507970D01*
X1099331Y507905D01*
X1099426Y507843D01*
X1099523Y507785D01*
X1099622Y507730D01*
X1099723Y507679D01*
X1099826Y507631D01*
X1099930Y507586D01*
X1100036Y507546D01*
X1100143Y507509D01*
X1100251Y507476D01*
X1100361Y507446D01*
X1100471Y507421D01*
X1100582Y507399D01*
X1100694Y507382D01*
X1100807Y507368D01*
X1100920Y507358D01*
X1101033Y507352D01*
X1101146Y507350D01*
X1101146Y507351D02*
X1104392Y507351D01*
X1093625Y507351D02*
X1093625Y504754D01*
X1093625Y507351D02*
X1093623Y507452D01*
X1093617Y507552D01*
X1093607Y507652D01*
X1093594Y507752D01*
X1093576Y507851D01*
X1093555Y507950D01*
X1093530Y508047D01*
X1093501Y508144D01*
X1093468Y508239D01*
X1093432Y508333D01*
X1093392Y508425D01*
X1093349Y508516D01*
X1093302Y508605D01*
X1093252Y508692D01*
X1093198Y508778D01*
X1093141Y508861D01*
X1093081Y508941D01*
X1093018Y509020D01*
X1092951Y509096D01*
X1092882Y509169D01*
X1092810Y509239D01*
X1092736Y509307D01*
X1092659Y509372D01*
X1092579Y509433D01*
X1092497Y509492D01*
X1092413Y509547D01*
X1092327Y509599D01*
X1092239Y509648D01*
X1092149Y509693D01*
X1092057Y509735D01*
X1091964Y509773D01*
X1091869Y509807D01*
X1091774Y509838D01*
X1091677Y509865D01*
X1091579Y509888D01*
X1091480Y509908D01*
X1091380Y509923D01*
X1091280Y509935D01*
X1091180Y509943D01*
X1091079Y509947D01*
X1090979Y509947D01*
X1090878Y509943D01*
X1090778Y509935D01*
X1090678Y509923D01*
X1090578Y509908D01*
X1090479Y509888D01*
X1090381Y509865D01*
X1090284Y509838D01*
X1090189Y509807D01*
X1090094Y509773D01*
X1090001Y509735D01*
X1089909Y509693D01*
X1089819Y509648D01*
X1089731Y509599D01*
X1089645Y509547D01*
X1089561Y509492D01*
X1089479Y509433D01*
X1089399Y509372D01*
X1089322Y509307D01*
X1089248Y509239D01*
X1089176Y509169D01*
X1089107Y509096D01*
X1089040Y509020D01*
X1088977Y508941D01*
X1088917Y508861D01*
X1088860Y508778D01*
X1088806Y508692D01*
X1088756Y508605D01*
X1088709Y508516D01*
X1088666Y508425D01*
X1088626Y508333D01*
X1088590Y508239D01*
X1088557Y508144D01*
X1088528Y508047D01*
X1088503Y507950D01*
X1088482Y507851D01*
X1088464Y507752D01*
X1088451Y507652D01*
X1088441Y507552D01*
X1088435Y507452D01*
X1088433Y507351D01*
X1088432Y507351D02*
X1088432Y504754D01*
X1088433Y504754D02*
X1088435Y504653D01*
X1088441Y504553D01*
X1088451Y504453D01*
X1088464Y504353D01*
X1088482Y504254D01*
X1088503Y504155D01*
X1088528Y504058D01*
X1088557Y503961D01*
X1088590Y503866D01*
X1088626Y503772D01*
X1088666Y503680D01*
X1088709Y503589D01*
X1088756Y503500D01*
X1088806Y503413D01*
X1088860Y503327D01*
X1088917Y503244D01*
X1088977Y503164D01*
X1089040Y503085D01*
X1089107Y503009D01*
X1089176Y502936D01*
X1089248Y502866D01*
X1089322Y502798D01*
X1089399Y502733D01*
X1089479Y502672D01*
X1089561Y502613D01*
X1089645Y502558D01*
X1089731Y502506D01*
X1089819Y502457D01*
X1089909Y502412D01*
X1090001Y502370D01*
X1090094Y502332D01*
X1090189Y502298D01*
X1090284Y502267D01*
X1090381Y502240D01*
X1090479Y502217D01*
X1090578Y502197D01*
X1090678Y502182D01*
X1090778Y502170D01*
X1090878Y502162D01*
X1090979Y502158D01*
X1091079Y502158D01*
X1091180Y502162D01*
X1091280Y502170D01*
X1091380Y502182D01*
X1091480Y502197D01*
X1091579Y502217D01*
X1091677Y502240D01*
X1091774Y502267D01*
X1091869Y502298D01*
X1091964Y502332D01*
X1092057Y502370D01*
X1092149Y502412D01*
X1092239Y502457D01*
X1092327Y502506D01*
X1092413Y502558D01*
X1092497Y502613D01*
X1092579Y502672D01*
X1092659Y502733D01*
X1092736Y502798D01*
X1092810Y502866D01*
X1092882Y502936D01*
X1092951Y503009D01*
X1093018Y503085D01*
X1093081Y503164D01*
X1093141Y503244D01*
X1093198Y503327D01*
X1093252Y503413D01*
X1093302Y503500D01*
X1093349Y503589D01*
X1093392Y503680D01*
X1093432Y503772D01*
X1093468Y503866D01*
X1093501Y503961D01*
X1093530Y504058D01*
X1093555Y504155D01*
X1093576Y504254D01*
X1093594Y504353D01*
X1093607Y504453D01*
X1093617Y504553D01*
X1093623Y504653D01*
X1093625Y504754D01*
X1081759Y502158D02*
X1079162Y502158D01*
X1081759Y502158D02*
X1081846Y502160D01*
X1081934Y502166D01*
X1082020Y502176D01*
X1082107Y502189D01*
X1082192Y502207D01*
X1082277Y502228D01*
X1082361Y502253D01*
X1082443Y502282D01*
X1082524Y502315D01*
X1082604Y502351D01*
X1082682Y502390D01*
X1082758Y502434D01*
X1082832Y502480D01*
X1082903Y502530D01*
X1082973Y502583D01*
X1083040Y502639D01*
X1083104Y502698D01*
X1083166Y502760D01*
X1083225Y502824D01*
X1083281Y502891D01*
X1083334Y502961D01*
X1083384Y503032D01*
X1083430Y503106D01*
X1083474Y503182D01*
X1083513Y503260D01*
X1083549Y503340D01*
X1083582Y503421D01*
X1083611Y503503D01*
X1083636Y503587D01*
X1083657Y503672D01*
X1083675Y503757D01*
X1083688Y503844D01*
X1083698Y503930D01*
X1083704Y504018D01*
X1083706Y504105D01*
X1083706Y508000D01*
X1083704Y508087D01*
X1083698Y508175D01*
X1083688Y508261D01*
X1083675Y508348D01*
X1083657Y508433D01*
X1083636Y508518D01*
X1083611Y508602D01*
X1083582Y508684D01*
X1083549Y508765D01*
X1083513Y508845D01*
X1083474Y508923D01*
X1083430Y508999D01*
X1083384Y509073D01*
X1083334Y509144D01*
X1083281Y509214D01*
X1083225Y509281D01*
X1083166Y509345D01*
X1083104Y509407D01*
X1083040Y509466D01*
X1082973Y509522D01*
X1082903Y509575D01*
X1082832Y509625D01*
X1082758Y509671D01*
X1082682Y509715D01*
X1082604Y509754D01*
X1082524Y509790D01*
X1082443Y509823D01*
X1082361Y509852D01*
X1082277Y509877D01*
X1082192Y509898D01*
X1082107Y509916D01*
X1082020Y509929D01*
X1081934Y509939D01*
X1081846Y509945D01*
X1081759Y509947D01*
X1079162Y509947D01*
X1073009Y502158D02*
X1069763Y502158D01*
X1073009Y502158D02*
X1073096Y502160D01*
X1073184Y502166D01*
X1073270Y502176D01*
X1073357Y502189D01*
X1073442Y502207D01*
X1073527Y502228D01*
X1073611Y502253D01*
X1073693Y502282D01*
X1073774Y502315D01*
X1073854Y502351D01*
X1073932Y502390D01*
X1074008Y502434D01*
X1074082Y502480D01*
X1074153Y502530D01*
X1074223Y502583D01*
X1074290Y502639D01*
X1074354Y502698D01*
X1074416Y502760D01*
X1074475Y502824D01*
X1074531Y502891D01*
X1074584Y502961D01*
X1074634Y503032D01*
X1074680Y503106D01*
X1074724Y503182D01*
X1074763Y503260D01*
X1074799Y503340D01*
X1074832Y503421D01*
X1074861Y503503D01*
X1074886Y503587D01*
X1074907Y503672D01*
X1074925Y503757D01*
X1074938Y503844D01*
X1074948Y503930D01*
X1074954Y504018D01*
X1074956Y504105D01*
X1074956Y507351D01*
X1074954Y507452D01*
X1074948Y507552D01*
X1074938Y507652D01*
X1074925Y507752D01*
X1074907Y507851D01*
X1074886Y507950D01*
X1074861Y508047D01*
X1074832Y508144D01*
X1074799Y508239D01*
X1074763Y508333D01*
X1074723Y508425D01*
X1074680Y508516D01*
X1074633Y508605D01*
X1074583Y508692D01*
X1074529Y508778D01*
X1074472Y508861D01*
X1074412Y508941D01*
X1074349Y509020D01*
X1074282Y509096D01*
X1074213Y509169D01*
X1074141Y509239D01*
X1074067Y509307D01*
X1073990Y509372D01*
X1073910Y509433D01*
X1073828Y509492D01*
X1073744Y509547D01*
X1073658Y509599D01*
X1073570Y509648D01*
X1073480Y509693D01*
X1073388Y509735D01*
X1073295Y509773D01*
X1073200Y509807D01*
X1073105Y509838D01*
X1073008Y509865D01*
X1072910Y509888D01*
X1072811Y509908D01*
X1072711Y509923D01*
X1072611Y509935D01*
X1072511Y509943D01*
X1072410Y509947D01*
X1072310Y509947D01*
X1072209Y509943D01*
X1072109Y509935D01*
X1072009Y509923D01*
X1071909Y509908D01*
X1071810Y509888D01*
X1071712Y509865D01*
X1071615Y509838D01*
X1071520Y509807D01*
X1071425Y509773D01*
X1071332Y509735D01*
X1071240Y509693D01*
X1071150Y509648D01*
X1071062Y509599D01*
X1070976Y509547D01*
X1070892Y509492D01*
X1070810Y509433D01*
X1070730Y509372D01*
X1070653Y509307D01*
X1070579Y509239D01*
X1070507Y509169D01*
X1070438Y509096D01*
X1070371Y509020D01*
X1070308Y508941D01*
X1070248Y508861D01*
X1070191Y508778D01*
X1070137Y508692D01*
X1070087Y508605D01*
X1070040Y508516D01*
X1069997Y508425D01*
X1069957Y508333D01*
X1069921Y508239D01*
X1069888Y508144D01*
X1069859Y508047D01*
X1069834Y507950D01*
X1069813Y507851D01*
X1069795Y507752D01*
X1069782Y507652D01*
X1069772Y507552D01*
X1069766Y507452D01*
X1069764Y507351D01*
X1069763Y507351D02*
X1069763Y506053D01*
X1074956Y506053D01*
X1064534Y502158D02*
X1064534Y513842D01*
X1059341Y509947D02*
X1064534Y506053D01*
X1062262Y507675D02*
X1059341Y502158D01*
X1056112Y509947D02*
X1052217Y509947D01*
X1054813Y513842D02*
X1054813Y504105D01*
X1054811Y504018D01*
X1054805Y503930D01*
X1054795Y503844D01*
X1054782Y503757D01*
X1054764Y503672D01*
X1054743Y503587D01*
X1054718Y503503D01*
X1054689Y503421D01*
X1054656Y503340D01*
X1054620Y503260D01*
X1054581Y503182D01*
X1054537Y503106D01*
X1054491Y503032D01*
X1054441Y502961D01*
X1054388Y502891D01*
X1054332Y502824D01*
X1054273Y502760D01*
X1054211Y502698D01*
X1054147Y502639D01*
X1054080Y502583D01*
X1054010Y502530D01*
X1053939Y502480D01*
X1053865Y502434D01*
X1053789Y502390D01*
X1053711Y502351D01*
X1053631Y502315D01*
X1053550Y502282D01*
X1053468Y502253D01*
X1053384Y502228D01*
X1053299Y502207D01*
X1053214Y502189D01*
X1053127Y502176D01*
X1053041Y502166D01*
X1052953Y502160D01*
X1052866Y502158D01*
X1052217Y502158D01*
X1047242Y508649D02*
X1043997Y508649D01*
X1043997Y508650D02*
X1043884Y508648D01*
X1043771Y508642D01*
X1043658Y508632D01*
X1043545Y508618D01*
X1043433Y508601D01*
X1043322Y508579D01*
X1043212Y508554D01*
X1043102Y508524D01*
X1042994Y508491D01*
X1042887Y508454D01*
X1042781Y508414D01*
X1042677Y508369D01*
X1042574Y508321D01*
X1042473Y508270D01*
X1042374Y508215D01*
X1042277Y508157D01*
X1042182Y508095D01*
X1042089Y508030D01*
X1041999Y507962D01*
X1041911Y507891D01*
X1041825Y507816D01*
X1041742Y507739D01*
X1041662Y507659D01*
X1041585Y507576D01*
X1041510Y507490D01*
X1041439Y507402D01*
X1041371Y507312D01*
X1041306Y507219D01*
X1041244Y507124D01*
X1041186Y507027D01*
X1041131Y506928D01*
X1041080Y506827D01*
X1041032Y506724D01*
X1040987Y506620D01*
X1040947Y506514D01*
X1040910Y506407D01*
X1040877Y506299D01*
X1040847Y506189D01*
X1040822Y506079D01*
X1040800Y505968D01*
X1040783Y505856D01*
X1040769Y505743D01*
X1040759Y505630D01*
X1040753Y505517D01*
X1040751Y505404D01*
X1040753Y505291D01*
X1040759Y505178D01*
X1040769Y505065D01*
X1040783Y504952D01*
X1040800Y504840D01*
X1040822Y504729D01*
X1040847Y504619D01*
X1040877Y504509D01*
X1040910Y504401D01*
X1040947Y504294D01*
X1040987Y504188D01*
X1041032Y504084D01*
X1041080Y503981D01*
X1041131Y503880D01*
X1041186Y503781D01*
X1041244Y503684D01*
X1041306Y503589D01*
X1041371Y503496D01*
X1041439Y503406D01*
X1041510Y503318D01*
X1041585Y503232D01*
X1041662Y503149D01*
X1041742Y503069D01*
X1041825Y502992D01*
X1041911Y502917D01*
X1041999Y502846D01*
X1042089Y502778D01*
X1042182Y502713D01*
X1042277Y502651D01*
X1042374Y502593D01*
X1042473Y502538D01*
X1042574Y502487D01*
X1042677Y502439D01*
X1042781Y502394D01*
X1042887Y502354D01*
X1042994Y502317D01*
X1043102Y502284D01*
X1043212Y502254D01*
X1043322Y502229D01*
X1043433Y502207D01*
X1043545Y502190D01*
X1043658Y502176D01*
X1043771Y502166D01*
X1043884Y502160D01*
X1043997Y502158D01*
X1047242Y502158D01*
X1047242Y513842D01*
X1043997Y513842D01*
X1043896Y513840D01*
X1043796Y513834D01*
X1043696Y513824D01*
X1043596Y513811D01*
X1043497Y513793D01*
X1043398Y513772D01*
X1043301Y513747D01*
X1043204Y513718D01*
X1043109Y513685D01*
X1043015Y513649D01*
X1042923Y513609D01*
X1042832Y513566D01*
X1042743Y513519D01*
X1042656Y513469D01*
X1042570Y513415D01*
X1042487Y513358D01*
X1042407Y513298D01*
X1042328Y513235D01*
X1042252Y513168D01*
X1042179Y513099D01*
X1042109Y513027D01*
X1042041Y512953D01*
X1041976Y512876D01*
X1041915Y512796D01*
X1041856Y512714D01*
X1041801Y512630D01*
X1041749Y512544D01*
X1041700Y512456D01*
X1041655Y512366D01*
X1041613Y512274D01*
X1041575Y512181D01*
X1041541Y512086D01*
X1041510Y511991D01*
X1041483Y511894D01*
X1041460Y511796D01*
X1041440Y511697D01*
X1041425Y511597D01*
X1041413Y511497D01*
X1041405Y511397D01*
X1041401Y511296D01*
X1041401Y511196D01*
X1041405Y511095D01*
X1041413Y510995D01*
X1041425Y510895D01*
X1041440Y510795D01*
X1041460Y510696D01*
X1041483Y510598D01*
X1041510Y510501D01*
X1041541Y510406D01*
X1041575Y510311D01*
X1041613Y510218D01*
X1041655Y510126D01*
X1041700Y510036D01*
X1041749Y509948D01*
X1041801Y509862D01*
X1041856Y509778D01*
X1041915Y509696D01*
X1041976Y509616D01*
X1042041Y509539D01*
X1042109Y509465D01*
X1042179Y509393D01*
X1042252Y509324D01*
X1042328Y509257D01*
X1042407Y509194D01*
X1042487Y509134D01*
X1042570Y509077D01*
X1042656Y509023D01*
X1042743Y508973D01*
X1042832Y508926D01*
X1042923Y508883D01*
X1043015Y508843D01*
X1043109Y508807D01*
X1043204Y508774D01*
X1043301Y508745D01*
X1043398Y508720D01*
X1043497Y508699D01*
X1043596Y508681D01*
X1043696Y508668D01*
X1043796Y508658D01*
X1043896Y508652D01*
X1043997Y508650D01*
X1034528Y502158D02*
X1031282Y502158D01*
X1034528Y502158D02*
X1034615Y502160D01*
X1034703Y502166D01*
X1034789Y502176D01*
X1034876Y502189D01*
X1034961Y502207D01*
X1035046Y502228D01*
X1035130Y502253D01*
X1035212Y502282D01*
X1035293Y502315D01*
X1035373Y502351D01*
X1035451Y502390D01*
X1035527Y502434D01*
X1035601Y502480D01*
X1035672Y502530D01*
X1035742Y502583D01*
X1035809Y502639D01*
X1035873Y502698D01*
X1035935Y502760D01*
X1035994Y502824D01*
X1036050Y502891D01*
X1036103Y502961D01*
X1036153Y503032D01*
X1036199Y503106D01*
X1036243Y503182D01*
X1036282Y503260D01*
X1036318Y503340D01*
X1036351Y503421D01*
X1036380Y503503D01*
X1036405Y503587D01*
X1036426Y503672D01*
X1036444Y503757D01*
X1036457Y503844D01*
X1036467Y503930D01*
X1036473Y504018D01*
X1036475Y504105D01*
X1036475Y507351D01*
X1036473Y507452D01*
X1036467Y507552D01*
X1036457Y507652D01*
X1036444Y507752D01*
X1036426Y507851D01*
X1036405Y507950D01*
X1036380Y508047D01*
X1036351Y508144D01*
X1036318Y508239D01*
X1036282Y508333D01*
X1036242Y508425D01*
X1036199Y508516D01*
X1036152Y508605D01*
X1036102Y508692D01*
X1036048Y508778D01*
X1035991Y508861D01*
X1035931Y508941D01*
X1035868Y509020D01*
X1035801Y509096D01*
X1035732Y509169D01*
X1035660Y509239D01*
X1035586Y509307D01*
X1035509Y509372D01*
X1035429Y509433D01*
X1035347Y509492D01*
X1035263Y509547D01*
X1035177Y509599D01*
X1035089Y509648D01*
X1034999Y509693D01*
X1034907Y509735D01*
X1034814Y509773D01*
X1034719Y509807D01*
X1034624Y509838D01*
X1034527Y509865D01*
X1034429Y509888D01*
X1034330Y509908D01*
X1034230Y509923D01*
X1034130Y509935D01*
X1034030Y509943D01*
X1033929Y509947D01*
X1033829Y509947D01*
X1033728Y509943D01*
X1033628Y509935D01*
X1033528Y509923D01*
X1033428Y509908D01*
X1033329Y509888D01*
X1033231Y509865D01*
X1033134Y509838D01*
X1033039Y509807D01*
X1032944Y509773D01*
X1032851Y509735D01*
X1032759Y509693D01*
X1032669Y509648D01*
X1032581Y509599D01*
X1032495Y509547D01*
X1032411Y509492D01*
X1032329Y509433D01*
X1032249Y509372D01*
X1032172Y509307D01*
X1032098Y509239D01*
X1032026Y509169D01*
X1031957Y509096D01*
X1031890Y509020D01*
X1031827Y508941D01*
X1031767Y508861D01*
X1031710Y508778D01*
X1031656Y508692D01*
X1031606Y508605D01*
X1031559Y508516D01*
X1031516Y508425D01*
X1031476Y508333D01*
X1031440Y508239D01*
X1031407Y508144D01*
X1031378Y508047D01*
X1031353Y507950D01*
X1031332Y507851D01*
X1031314Y507752D01*
X1031301Y507652D01*
X1031291Y507552D01*
X1031285Y507452D01*
X1031283Y507351D01*
X1031282Y507351D02*
X1031282Y506053D01*
X1036475Y506053D01*
X1024356Y506702D02*
X1021435Y506702D01*
X1024356Y506702D02*
X1024450Y506700D01*
X1024544Y506694D01*
X1024637Y506685D01*
X1024730Y506671D01*
X1024822Y506654D01*
X1024914Y506632D01*
X1025004Y506608D01*
X1025094Y506579D01*
X1025182Y506547D01*
X1025269Y506511D01*
X1025354Y506471D01*
X1025437Y506428D01*
X1025519Y506382D01*
X1025599Y506332D01*
X1025676Y506279D01*
X1025751Y506223D01*
X1025824Y506164D01*
X1025895Y506102D01*
X1025963Y506037D01*
X1026028Y505969D01*
X1026090Y505898D01*
X1026149Y505825D01*
X1026205Y505750D01*
X1026258Y505673D01*
X1026308Y505593D01*
X1026354Y505511D01*
X1026397Y505428D01*
X1026437Y505343D01*
X1026473Y505256D01*
X1026505Y505168D01*
X1026534Y505078D01*
X1026558Y504988D01*
X1026580Y504896D01*
X1026597Y504804D01*
X1026611Y504711D01*
X1026620Y504618D01*
X1026626Y504524D01*
X1026628Y504430D01*
X1026626Y504336D01*
X1026620Y504242D01*
X1026611Y504149D01*
X1026597Y504056D01*
X1026580Y503964D01*
X1026558Y503872D01*
X1026534Y503782D01*
X1026505Y503692D01*
X1026473Y503604D01*
X1026437Y503517D01*
X1026397Y503432D01*
X1026354Y503349D01*
X1026308Y503267D01*
X1026258Y503187D01*
X1026205Y503110D01*
X1026149Y503035D01*
X1026090Y502962D01*
X1026028Y502891D01*
X1025963Y502823D01*
X1025895Y502758D01*
X1025824Y502696D01*
X1025751Y502637D01*
X1025676Y502581D01*
X1025599Y502528D01*
X1025519Y502478D01*
X1025437Y502432D01*
X1025354Y502389D01*
X1025269Y502349D01*
X1025182Y502313D01*
X1025094Y502281D01*
X1025004Y502252D01*
X1024914Y502228D01*
X1024822Y502206D01*
X1024730Y502189D01*
X1024637Y502175D01*
X1024544Y502166D01*
X1024450Y502160D01*
X1024356Y502158D01*
X1021435Y502158D01*
X1021435Y508000D01*
X1021436Y508000D02*
X1021438Y508087D01*
X1021444Y508175D01*
X1021454Y508261D01*
X1021467Y508348D01*
X1021485Y508433D01*
X1021506Y508518D01*
X1021531Y508602D01*
X1021560Y508684D01*
X1021593Y508765D01*
X1021629Y508845D01*
X1021668Y508923D01*
X1021712Y508999D01*
X1021758Y509073D01*
X1021808Y509144D01*
X1021861Y509214D01*
X1021917Y509281D01*
X1021976Y509346D01*
X1022038Y509407D01*
X1022102Y509466D01*
X1022169Y509522D01*
X1022239Y509575D01*
X1022310Y509625D01*
X1022384Y509671D01*
X1022460Y509715D01*
X1022538Y509754D01*
X1022618Y509790D01*
X1022699Y509823D01*
X1022781Y509852D01*
X1022865Y509877D01*
X1022950Y509898D01*
X1023035Y509916D01*
X1023122Y509929D01*
X1023209Y509939D01*
X1023296Y509945D01*
X1023383Y509947D01*
X1025979Y509947D01*
X1014394Y502158D02*
X1011148Y502158D01*
X1014394Y502158D02*
X1014481Y502160D01*
X1014569Y502166D01*
X1014655Y502176D01*
X1014742Y502189D01*
X1014827Y502207D01*
X1014912Y502228D01*
X1014996Y502253D01*
X1015078Y502282D01*
X1015159Y502315D01*
X1015239Y502351D01*
X1015317Y502390D01*
X1015393Y502434D01*
X1015467Y502480D01*
X1015538Y502530D01*
X1015608Y502583D01*
X1015675Y502639D01*
X1015739Y502698D01*
X1015801Y502760D01*
X1015860Y502824D01*
X1015916Y502891D01*
X1015969Y502961D01*
X1016019Y503032D01*
X1016065Y503106D01*
X1016109Y503182D01*
X1016148Y503260D01*
X1016184Y503340D01*
X1016217Y503421D01*
X1016246Y503503D01*
X1016271Y503587D01*
X1016292Y503672D01*
X1016310Y503757D01*
X1016323Y503844D01*
X1016333Y503930D01*
X1016339Y504018D01*
X1016341Y504105D01*
X1016341Y508000D01*
X1016339Y508087D01*
X1016333Y508175D01*
X1016323Y508261D01*
X1016310Y508348D01*
X1016292Y508433D01*
X1016271Y508518D01*
X1016246Y508602D01*
X1016217Y508684D01*
X1016184Y508765D01*
X1016148Y508845D01*
X1016109Y508923D01*
X1016065Y508999D01*
X1016019Y509073D01*
X1015969Y509144D01*
X1015916Y509214D01*
X1015860Y509281D01*
X1015801Y509345D01*
X1015739Y509407D01*
X1015675Y509466D01*
X1015608Y509522D01*
X1015538Y509575D01*
X1015467Y509625D01*
X1015393Y509671D01*
X1015317Y509715D01*
X1015239Y509754D01*
X1015159Y509790D01*
X1015078Y509823D01*
X1014996Y509852D01*
X1014912Y509877D01*
X1014827Y509898D01*
X1014742Y509916D01*
X1014655Y509929D01*
X1014569Y509939D01*
X1014481Y509945D01*
X1014394Y509947D01*
X1011148Y509947D01*
X1011148Y500211D01*
X1011149Y500211D02*
X1011151Y500124D01*
X1011157Y500036D01*
X1011167Y499950D01*
X1011180Y499863D01*
X1011198Y499778D01*
X1011219Y499693D01*
X1011244Y499609D01*
X1011273Y499527D01*
X1011306Y499446D01*
X1011342Y499366D01*
X1011381Y499288D01*
X1011425Y499212D01*
X1011471Y499138D01*
X1011521Y499067D01*
X1011574Y498997D01*
X1011630Y498930D01*
X1011689Y498866D01*
X1011751Y498804D01*
X1011815Y498745D01*
X1011882Y498689D01*
X1011952Y498636D01*
X1012023Y498586D01*
X1012097Y498540D01*
X1012173Y498496D01*
X1012251Y498457D01*
X1012331Y498421D01*
X1012412Y498388D01*
X1012494Y498359D01*
X1012578Y498334D01*
X1012663Y498313D01*
X1012748Y498295D01*
X1012835Y498282D01*
X1012921Y498272D01*
X1013009Y498266D01*
X1013096Y498264D01*
X1013096Y498263D02*
X1015692Y498263D01*
X1005846Y504105D02*
X1005846Y513842D01*
X1005846Y504105D02*
X1005844Y504018D01*
X1005838Y503930D01*
X1005828Y503844D01*
X1005815Y503757D01*
X1005797Y503672D01*
X1005776Y503587D01*
X1005751Y503503D01*
X1005722Y503421D01*
X1005689Y503340D01*
X1005653Y503260D01*
X1005614Y503182D01*
X1005570Y503106D01*
X1005524Y503032D01*
X1005474Y502961D01*
X1005421Y502891D01*
X1005365Y502824D01*
X1005306Y502760D01*
X1005244Y502698D01*
X1005180Y502639D01*
X1005113Y502583D01*
X1005043Y502530D01*
X1004972Y502480D01*
X1004898Y502434D01*
X1004822Y502390D01*
X1004744Y502351D01*
X1004664Y502315D01*
X1004583Y502282D01*
X1004501Y502253D01*
X1004417Y502228D01*
X1004332Y502207D01*
X1004247Y502189D01*
X1004160Y502176D01*
X1004074Y502166D01*
X1003986Y502160D01*
X1003899Y502158D01*
X997952Y502158D02*
X994707Y502158D01*
X997952Y502158D02*
X998039Y502160D01*
X998127Y502166D01*
X998213Y502176D01*
X998300Y502189D01*
X998385Y502207D01*
X998470Y502228D01*
X998554Y502253D01*
X998636Y502282D01*
X998717Y502315D01*
X998797Y502351D01*
X998875Y502390D01*
X998951Y502434D01*
X999025Y502480D01*
X999096Y502530D01*
X999166Y502583D01*
X999233Y502639D01*
X999297Y502698D01*
X999359Y502760D01*
X999418Y502824D01*
X999474Y502891D01*
X999527Y502961D01*
X999577Y503032D01*
X999623Y503106D01*
X999667Y503182D01*
X999706Y503260D01*
X999742Y503340D01*
X999775Y503421D01*
X999804Y503503D01*
X999829Y503587D01*
X999850Y503672D01*
X999868Y503757D01*
X999881Y503844D01*
X999891Y503930D01*
X999897Y504018D01*
X999899Y504105D01*
X999899Y507351D01*
X999897Y507452D01*
X999891Y507552D01*
X999881Y507652D01*
X999868Y507752D01*
X999850Y507851D01*
X999829Y507950D01*
X999804Y508047D01*
X999775Y508144D01*
X999742Y508239D01*
X999706Y508333D01*
X999666Y508425D01*
X999623Y508516D01*
X999576Y508605D01*
X999526Y508692D01*
X999472Y508778D01*
X999415Y508861D01*
X999355Y508941D01*
X999292Y509020D01*
X999225Y509096D01*
X999156Y509169D01*
X999084Y509239D01*
X999010Y509307D01*
X998933Y509372D01*
X998853Y509433D01*
X998771Y509492D01*
X998687Y509547D01*
X998601Y509599D01*
X998513Y509648D01*
X998423Y509693D01*
X998331Y509735D01*
X998238Y509773D01*
X998143Y509807D01*
X998048Y509838D01*
X997951Y509865D01*
X997853Y509888D01*
X997754Y509908D01*
X997654Y509923D01*
X997554Y509935D01*
X997454Y509943D01*
X997353Y509947D01*
X997253Y509947D01*
X997152Y509943D01*
X997052Y509935D01*
X996952Y509923D01*
X996852Y509908D01*
X996753Y509888D01*
X996655Y509865D01*
X996558Y509838D01*
X996463Y509807D01*
X996368Y509773D01*
X996275Y509735D01*
X996183Y509693D01*
X996093Y509648D01*
X996005Y509599D01*
X995919Y509547D01*
X995835Y509492D01*
X995753Y509433D01*
X995673Y509372D01*
X995596Y509307D01*
X995522Y509239D01*
X995450Y509169D01*
X995381Y509096D01*
X995314Y509020D01*
X995251Y508941D01*
X995191Y508861D01*
X995134Y508778D01*
X995080Y508692D01*
X995030Y508605D01*
X994983Y508516D01*
X994940Y508425D01*
X994900Y508333D01*
X994864Y508239D01*
X994831Y508144D01*
X994802Y508047D01*
X994777Y507950D01*
X994756Y507851D01*
X994738Y507752D01*
X994725Y507652D01*
X994715Y507552D01*
X994709Y507452D01*
X994707Y507351D01*
X994707Y506053D01*
X999899Y506053D01*
M02*
