G04 EAGLE Gerber RS-274X export*
G75*
%MOMM*%
%FSLAX34Y34*%
%LPD*%
%INSilkscreen Top*%
%IPPOS*%
%AMOC8*
5,1,8,0,0,1.08239X$1,22.5*%
G01*
%ADD10C,0.152400*%
%ADD11C,0.127000*%
%ADD12C,0.076200*%
%ADD13C,0.101600*%
%ADD14R,0.508000X0.508000*%
%ADD15C,0.050800*%
%ADD16C,0.500000*%
%ADD17C,0.254000*%


D10*
X686562Y56078D02*
X686562Y63302D01*
X686564Y63435D01*
X686570Y63567D01*
X686580Y63699D01*
X686593Y63831D01*
X686611Y63963D01*
X686632Y64093D01*
X686657Y64224D01*
X686686Y64353D01*
X686719Y64481D01*
X686755Y64609D01*
X686795Y64735D01*
X686839Y64860D01*
X686887Y64984D01*
X686938Y65106D01*
X686993Y65227D01*
X687051Y65346D01*
X687113Y65464D01*
X687178Y65579D01*
X687247Y65693D01*
X687318Y65804D01*
X687394Y65913D01*
X687472Y66020D01*
X687553Y66125D01*
X687638Y66227D01*
X687725Y66327D01*
X687815Y66424D01*
X687908Y66519D01*
X688004Y66610D01*
X688102Y66699D01*
X688203Y66785D01*
X688307Y66868D01*
X688413Y66948D01*
X688521Y67024D01*
X688631Y67098D01*
X688744Y67168D01*
X688858Y67235D01*
X688975Y67298D01*
X689093Y67358D01*
X689213Y67415D01*
X689335Y67468D01*
X689458Y67517D01*
X689582Y67563D01*
X689708Y67605D01*
X689835Y67643D01*
X689963Y67678D01*
X690092Y67709D01*
X690221Y67736D01*
X690352Y67759D01*
X690483Y67779D01*
X690615Y67794D01*
X690747Y67806D01*
X690879Y67814D01*
X691012Y67818D01*
X691144Y67818D01*
X691277Y67814D01*
X691409Y67806D01*
X691541Y67794D01*
X691673Y67779D01*
X691804Y67759D01*
X691935Y67736D01*
X692064Y67709D01*
X692193Y67678D01*
X692321Y67643D01*
X692448Y67605D01*
X692574Y67563D01*
X692698Y67517D01*
X692821Y67468D01*
X692943Y67415D01*
X693063Y67358D01*
X693181Y67298D01*
X693298Y67235D01*
X693412Y67168D01*
X693525Y67098D01*
X693635Y67024D01*
X693743Y66948D01*
X693849Y66868D01*
X693953Y66785D01*
X694054Y66699D01*
X694152Y66610D01*
X694248Y66519D01*
X694341Y66424D01*
X694431Y66327D01*
X694518Y66227D01*
X694603Y66125D01*
X694684Y66020D01*
X694762Y65913D01*
X694838Y65804D01*
X694909Y65693D01*
X694978Y65579D01*
X695043Y65464D01*
X695105Y65346D01*
X695163Y65227D01*
X695218Y65106D01*
X695269Y64984D01*
X695317Y64860D01*
X695361Y64735D01*
X695401Y64609D01*
X695437Y64481D01*
X695470Y64353D01*
X695499Y64224D01*
X695524Y64093D01*
X695545Y63963D01*
X695563Y63831D01*
X695576Y63699D01*
X695586Y63567D01*
X695592Y63435D01*
X695594Y63302D01*
X695593Y63302D02*
X695593Y56078D01*
X695594Y56078D02*
X695592Y55945D01*
X695586Y55813D01*
X695576Y55681D01*
X695563Y55549D01*
X695545Y55417D01*
X695524Y55287D01*
X695499Y55156D01*
X695470Y55027D01*
X695437Y54899D01*
X695401Y54771D01*
X695361Y54645D01*
X695317Y54520D01*
X695269Y54396D01*
X695218Y54274D01*
X695163Y54153D01*
X695105Y54034D01*
X695043Y53916D01*
X694978Y53801D01*
X694909Y53687D01*
X694838Y53576D01*
X694762Y53467D01*
X694684Y53360D01*
X694603Y53255D01*
X694518Y53153D01*
X694431Y53053D01*
X694341Y52956D01*
X694248Y52861D01*
X694152Y52770D01*
X694054Y52681D01*
X693953Y52595D01*
X693849Y52512D01*
X693743Y52432D01*
X693635Y52356D01*
X693525Y52282D01*
X693412Y52212D01*
X693298Y52145D01*
X693181Y52082D01*
X693063Y52022D01*
X692943Y51965D01*
X692821Y51912D01*
X692698Y51863D01*
X692574Y51817D01*
X692448Y51775D01*
X692321Y51737D01*
X692193Y51702D01*
X692064Y51671D01*
X691935Y51644D01*
X691804Y51621D01*
X691673Y51601D01*
X691541Y51586D01*
X691409Y51574D01*
X691277Y51566D01*
X691144Y51562D01*
X691012Y51562D01*
X690879Y51566D01*
X690747Y51574D01*
X690615Y51586D01*
X690483Y51601D01*
X690352Y51621D01*
X690221Y51644D01*
X690092Y51671D01*
X689963Y51702D01*
X689835Y51737D01*
X689708Y51775D01*
X689582Y51817D01*
X689458Y51863D01*
X689335Y51912D01*
X689213Y51965D01*
X689093Y52022D01*
X688975Y52082D01*
X688858Y52145D01*
X688744Y52212D01*
X688631Y52282D01*
X688521Y52356D01*
X688413Y52432D01*
X688307Y52512D01*
X688203Y52595D01*
X688102Y52681D01*
X688004Y52770D01*
X687908Y52861D01*
X687815Y52956D01*
X687725Y53053D01*
X687638Y53153D01*
X687553Y53255D01*
X687472Y53360D01*
X687394Y53467D01*
X687318Y53576D01*
X687247Y53687D01*
X687178Y53801D01*
X687113Y53916D01*
X687051Y54034D01*
X686993Y54153D01*
X686938Y54274D01*
X686887Y54396D01*
X686839Y54520D01*
X686795Y54645D01*
X686755Y54771D01*
X686719Y54899D01*
X686686Y55027D01*
X686657Y55156D01*
X686632Y55287D01*
X686611Y55417D01*
X686593Y55549D01*
X686580Y55681D01*
X686570Y55813D01*
X686564Y55945D01*
X686562Y56078D01*
X709036Y60593D02*
X711745Y60593D01*
X711745Y51562D01*
X706327Y51562D01*
X706209Y51564D01*
X706091Y51570D01*
X705973Y51579D01*
X705856Y51593D01*
X705739Y51610D01*
X705622Y51631D01*
X705507Y51656D01*
X705392Y51685D01*
X705278Y51718D01*
X705166Y51754D01*
X705055Y51794D01*
X704945Y51837D01*
X704836Y51884D01*
X704729Y51934D01*
X704624Y51989D01*
X704521Y52046D01*
X704420Y52107D01*
X704320Y52171D01*
X704223Y52238D01*
X704128Y52308D01*
X704036Y52382D01*
X703945Y52458D01*
X703858Y52538D01*
X703773Y52620D01*
X703691Y52705D01*
X703611Y52792D01*
X703535Y52883D01*
X703461Y52975D01*
X703391Y53070D01*
X703324Y53167D01*
X703260Y53267D01*
X703199Y53368D01*
X703142Y53471D01*
X703087Y53576D01*
X703037Y53683D01*
X702990Y53792D01*
X702947Y53902D01*
X702907Y54013D01*
X702871Y54125D01*
X702838Y54239D01*
X702809Y54354D01*
X702784Y54469D01*
X702763Y54586D01*
X702746Y54703D01*
X702732Y54820D01*
X702723Y54938D01*
X702717Y55056D01*
X702715Y55174D01*
X702714Y55174D02*
X702714Y64206D01*
X702715Y64206D02*
X702717Y64324D01*
X702723Y64442D01*
X702732Y64560D01*
X702746Y64677D01*
X702763Y64794D01*
X702784Y64911D01*
X702809Y65026D01*
X702838Y65141D01*
X702871Y65255D01*
X702907Y65367D01*
X702947Y65478D01*
X702990Y65588D01*
X703037Y65697D01*
X703087Y65804D01*
X703141Y65909D01*
X703199Y66012D01*
X703260Y66113D01*
X703324Y66213D01*
X703391Y66310D01*
X703461Y66405D01*
X703535Y66497D01*
X703611Y66588D01*
X703691Y66675D01*
X703773Y66760D01*
X703858Y66842D01*
X703945Y66922D01*
X704036Y66998D01*
X704128Y67072D01*
X704223Y67142D01*
X704320Y67209D01*
X704420Y67273D01*
X704521Y67334D01*
X704624Y67391D01*
X704729Y67445D01*
X704836Y67496D01*
X704945Y67543D01*
X705055Y67586D01*
X705166Y67626D01*
X705278Y67662D01*
X705392Y67695D01*
X705507Y67724D01*
X705622Y67749D01*
X705739Y67770D01*
X705856Y67787D01*
X705973Y67801D01*
X706091Y67810D01*
X706209Y67816D01*
X706327Y67818D01*
X711745Y67818D01*
D11*
X473710Y488950D02*
X473710Y704850D01*
X974090Y704850D02*
X974090Y488950D01*
X948690Y730250D02*
X499110Y730250D01*
X499110Y463550D02*
X948690Y463550D01*
X949304Y463557D01*
X949917Y463580D01*
X950530Y463617D01*
X951141Y463669D01*
X951752Y463735D01*
X952360Y463817D01*
X952966Y463913D01*
X953570Y464023D01*
X954171Y464148D01*
X954769Y464288D01*
X955363Y464442D01*
X955953Y464611D01*
X956539Y464793D01*
X957120Y464990D01*
X957697Y465201D01*
X958268Y465425D01*
X958834Y465663D01*
X959394Y465915D01*
X959947Y466181D01*
X960494Y466459D01*
X961034Y466751D01*
X961567Y467056D01*
X962092Y467374D01*
X962610Y467704D01*
X963119Y468046D01*
X963620Y468401D01*
X964112Y468768D01*
X964595Y469146D01*
X965069Y469536D01*
X965533Y469938D01*
X965988Y470350D01*
X966432Y470774D01*
X966866Y471208D01*
X967290Y471652D01*
X967702Y472107D01*
X968104Y472571D01*
X968494Y473045D01*
X968872Y473528D01*
X969239Y474020D01*
X969594Y474521D01*
X969936Y475030D01*
X970266Y475548D01*
X970584Y476073D01*
X970889Y476606D01*
X971181Y477146D01*
X971459Y477693D01*
X971725Y478246D01*
X971977Y478806D01*
X972215Y479372D01*
X972439Y479943D01*
X972650Y480520D01*
X972847Y481101D01*
X973029Y481687D01*
X973198Y482277D01*
X973352Y482871D01*
X973492Y483469D01*
X973617Y484070D01*
X973727Y484674D01*
X973823Y485280D01*
X973905Y485888D01*
X973971Y486499D01*
X974023Y487110D01*
X974060Y487723D01*
X974083Y488336D01*
X974090Y488950D01*
X974090Y704850D02*
X974083Y705464D01*
X974060Y706077D01*
X974023Y706690D01*
X973971Y707301D01*
X973905Y707912D01*
X973823Y708520D01*
X973727Y709126D01*
X973617Y709730D01*
X973492Y710331D01*
X973352Y710929D01*
X973198Y711523D01*
X973029Y712113D01*
X972847Y712699D01*
X972650Y713280D01*
X972439Y713857D01*
X972215Y714428D01*
X971977Y714994D01*
X971725Y715554D01*
X971459Y716107D01*
X971181Y716654D01*
X970889Y717194D01*
X970584Y717727D01*
X970266Y718252D01*
X969936Y718770D01*
X969594Y719279D01*
X969239Y719780D01*
X968872Y720272D01*
X968494Y720755D01*
X968104Y721229D01*
X967702Y721693D01*
X967290Y722148D01*
X966866Y722592D01*
X966432Y723026D01*
X965988Y723450D01*
X965533Y723862D01*
X965069Y724264D01*
X964595Y724654D01*
X964112Y725032D01*
X963620Y725399D01*
X963119Y725754D01*
X962610Y726096D01*
X962092Y726426D01*
X961567Y726744D01*
X961034Y727049D01*
X960494Y727341D01*
X959947Y727619D01*
X959394Y727885D01*
X958834Y728137D01*
X958268Y728375D01*
X957697Y728599D01*
X957120Y728810D01*
X956539Y729007D01*
X955953Y729189D01*
X955363Y729358D01*
X954769Y729512D01*
X954171Y729652D01*
X953570Y729777D01*
X952966Y729887D01*
X952360Y729983D01*
X951752Y730065D01*
X951141Y730131D01*
X950530Y730183D01*
X949917Y730220D01*
X949304Y730243D01*
X948690Y730250D01*
X499110Y730250D02*
X498496Y730243D01*
X497883Y730220D01*
X497270Y730183D01*
X496659Y730131D01*
X496048Y730065D01*
X495440Y729983D01*
X494834Y729887D01*
X494230Y729777D01*
X493629Y729652D01*
X493031Y729512D01*
X492437Y729358D01*
X491847Y729189D01*
X491261Y729007D01*
X490680Y728810D01*
X490103Y728599D01*
X489532Y728375D01*
X488966Y728137D01*
X488406Y727885D01*
X487853Y727619D01*
X487306Y727341D01*
X486766Y727049D01*
X486233Y726744D01*
X485708Y726426D01*
X485190Y726096D01*
X484681Y725754D01*
X484180Y725399D01*
X483688Y725032D01*
X483205Y724654D01*
X482731Y724264D01*
X482267Y723862D01*
X481812Y723450D01*
X481368Y723026D01*
X480934Y722592D01*
X480510Y722148D01*
X480098Y721693D01*
X479696Y721229D01*
X479306Y720755D01*
X478928Y720272D01*
X478561Y719780D01*
X478206Y719279D01*
X477864Y718770D01*
X477534Y718252D01*
X477216Y717727D01*
X476911Y717194D01*
X476619Y716654D01*
X476341Y716107D01*
X476075Y715554D01*
X475823Y714994D01*
X475585Y714428D01*
X475361Y713857D01*
X475150Y713280D01*
X474953Y712699D01*
X474771Y712113D01*
X474602Y711523D01*
X474448Y710929D01*
X474308Y710331D01*
X474183Y709730D01*
X474073Y709126D01*
X473977Y708520D01*
X473895Y707912D01*
X473829Y707301D01*
X473777Y706690D01*
X473740Y706077D01*
X473717Y705464D01*
X473710Y704850D01*
X473710Y488950D02*
X473717Y488336D01*
X473740Y487723D01*
X473777Y487110D01*
X473829Y486499D01*
X473895Y485888D01*
X473977Y485280D01*
X474073Y484674D01*
X474183Y484070D01*
X474308Y483469D01*
X474448Y482871D01*
X474602Y482277D01*
X474771Y481687D01*
X474953Y481101D01*
X475150Y480520D01*
X475361Y479943D01*
X475585Y479372D01*
X475823Y478806D01*
X476075Y478246D01*
X476341Y477693D01*
X476619Y477146D01*
X476911Y476606D01*
X477216Y476073D01*
X477534Y475548D01*
X477864Y475030D01*
X478206Y474521D01*
X478561Y474020D01*
X478928Y473528D01*
X479306Y473045D01*
X479696Y472571D01*
X480098Y472107D01*
X480510Y471652D01*
X480934Y471208D01*
X481368Y470774D01*
X481812Y470350D01*
X482267Y469938D01*
X482731Y469536D01*
X483205Y469146D01*
X483688Y468768D01*
X484180Y468401D01*
X484681Y468046D01*
X485190Y467704D01*
X485708Y467374D01*
X486233Y467056D01*
X486766Y466751D01*
X487306Y466459D01*
X487853Y466181D01*
X488406Y465915D01*
X488966Y465663D01*
X489532Y465425D01*
X490103Y465201D01*
X490680Y464990D01*
X491261Y464793D01*
X491847Y464611D01*
X492437Y464442D01*
X493031Y464288D01*
X493629Y464148D01*
X494230Y464023D01*
X494834Y463913D01*
X495440Y463817D01*
X496048Y463735D01*
X496659Y463669D01*
X497270Y463617D01*
X497883Y463580D01*
X498496Y463557D01*
X499110Y463550D01*
D12*
X688269Y736981D02*
X690358Y736981D01*
X688269Y736981D02*
X688180Y736983D01*
X688092Y736989D01*
X688004Y736998D01*
X687916Y737011D01*
X687829Y737028D01*
X687743Y737048D01*
X687658Y737073D01*
X687573Y737100D01*
X687490Y737132D01*
X687409Y737166D01*
X687329Y737205D01*
X687251Y737246D01*
X687174Y737291D01*
X687100Y737339D01*
X687027Y737390D01*
X686957Y737444D01*
X686890Y737502D01*
X686824Y737562D01*
X686762Y737624D01*
X686702Y737690D01*
X686644Y737757D01*
X686590Y737827D01*
X686539Y737900D01*
X686491Y737974D01*
X686446Y738051D01*
X686405Y738129D01*
X686366Y738209D01*
X686332Y738290D01*
X686300Y738373D01*
X686273Y738458D01*
X686248Y738543D01*
X686228Y738629D01*
X686211Y738716D01*
X686198Y738804D01*
X686189Y738892D01*
X686183Y738980D01*
X686181Y739069D01*
X686181Y744291D01*
X686183Y744382D01*
X686189Y744473D01*
X686199Y744564D01*
X686213Y744654D01*
X686230Y744743D01*
X686252Y744831D01*
X686278Y744919D01*
X686307Y745005D01*
X686340Y745090D01*
X686377Y745173D01*
X686417Y745255D01*
X686461Y745335D01*
X686508Y745413D01*
X686559Y745489D01*
X686612Y745562D01*
X686669Y745633D01*
X686730Y745702D01*
X686793Y745767D01*
X686858Y745830D01*
X686927Y745890D01*
X686998Y745948D01*
X687071Y746001D01*
X687147Y746052D01*
X687225Y746099D01*
X687305Y746143D01*
X687387Y746183D01*
X687470Y746220D01*
X687555Y746253D01*
X687641Y746282D01*
X687729Y746308D01*
X687817Y746330D01*
X687906Y746347D01*
X687996Y746361D01*
X688087Y746371D01*
X688178Y746377D01*
X688269Y746379D01*
X690358Y746379D01*
X711581Y746379D02*
X711581Y736981D01*
X711581Y746379D02*
X714192Y746379D01*
X714292Y746377D01*
X714392Y746371D01*
X714491Y746362D01*
X714591Y746348D01*
X714689Y746331D01*
X714787Y746310D01*
X714884Y746286D01*
X714980Y746257D01*
X715075Y746225D01*
X715168Y746190D01*
X715260Y746151D01*
X715351Y746108D01*
X715439Y746062D01*
X715526Y746012D01*
X715611Y745960D01*
X715694Y745904D01*
X715775Y745845D01*
X715853Y745782D01*
X715929Y745717D01*
X716003Y745649D01*
X716073Y745579D01*
X716141Y745505D01*
X716206Y745429D01*
X716269Y745351D01*
X716328Y745270D01*
X716384Y745187D01*
X716436Y745102D01*
X716486Y745015D01*
X716532Y744927D01*
X716575Y744836D01*
X716614Y744744D01*
X716649Y744651D01*
X716681Y744556D01*
X716710Y744460D01*
X716734Y744363D01*
X716755Y744265D01*
X716772Y744167D01*
X716786Y744067D01*
X716795Y743968D01*
X716801Y743868D01*
X716803Y743768D01*
X716802Y743768D02*
X716802Y739592D01*
X716803Y739592D02*
X716801Y739492D01*
X716795Y739392D01*
X716786Y739293D01*
X716772Y739193D01*
X716755Y739095D01*
X716734Y738997D01*
X716710Y738900D01*
X716681Y738804D01*
X716649Y738709D01*
X716614Y738616D01*
X716575Y738524D01*
X716532Y738433D01*
X716486Y738345D01*
X716436Y738258D01*
X716384Y738173D01*
X716328Y738090D01*
X716269Y738009D01*
X716206Y737931D01*
X716141Y737855D01*
X716073Y737781D01*
X716003Y737711D01*
X715929Y737643D01*
X715853Y737578D01*
X715775Y737515D01*
X715694Y737456D01*
X715611Y737400D01*
X715526Y737348D01*
X715439Y737298D01*
X715351Y737252D01*
X715260Y737209D01*
X715168Y737170D01*
X715075Y737135D01*
X714980Y737103D01*
X714884Y737074D01*
X714787Y737050D01*
X714689Y737029D01*
X714591Y737012D01*
X714491Y736998D01*
X714392Y736989D01*
X714292Y736983D01*
X714192Y736981D01*
X711581Y736981D01*
X762381Y740636D02*
X768646Y740636D01*
X765514Y743768D02*
X765514Y737503D01*
D13*
X744897Y741652D02*
X737108Y741652D01*
D12*
X736981Y740636D02*
X743246Y740636D01*
D13*
X503597Y741652D02*
X495808Y744897D01*
X495808Y738406D02*
X503597Y741652D01*
X509030Y737108D02*
X509030Y748792D01*
X509030Y743599D02*
X515521Y743599D01*
X515521Y748792D02*
X515521Y737108D01*
X521245Y737108D02*
X526438Y737108D01*
X521245Y737108D02*
X521245Y748792D01*
X526438Y748792D01*
X525139Y743599D02*
X521245Y743599D01*
X530098Y737108D02*
X537887Y748792D01*
X530098Y748792D02*
X537887Y737108D01*
X542290Y741652D02*
X550079Y741652D01*
X555512Y737108D02*
X555512Y748792D01*
X558758Y748792D01*
X558871Y748790D01*
X558984Y748784D01*
X559097Y748774D01*
X559210Y748760D01*
X559322Y748743D01*
X559433Y748721D01*
X559543Y748696D01*
X559653Y748666D01*
X559761Y748633D01*
X559868Y748596D01*
X559974Y748556D01*
X560078Y748511D01*
X560181Y748463D01*
X560282Y748412D01*
X560381Y748357D01*
X560478Y748299D01*
X560573Y748237D01*
X560666Y748172D01*
X560756Y748104D01*
X560844Y748033D01*
X560930Y747958D01*
X561013Y747881D01*
X561093Y747801D01*
X561170Y747718D01*
X561245Y747632D01*
X561316Y747544D01*
X561384Y747454D01*
X561449Y747361D01*
X561511Y747266D01*
X561569Y747169D01*
X561624Y747070D01*
X561675Y746969D01*
X561723Y746866D01*
X561768Y746762D01*
X561808Y746656D01*
X561845Y746549D01*
X561878Y746441D01*
X561908Y746331D01*
X561933Y746221D01*
X561955Y746110D01*
X561972Y745998D01*
X561986Y745885D01*
X561996Y745772D01*
X562002Y745659D01*
X562004Y745546D01*
X562003Y745546D02*
X562003Y740354D01*
X562004Y740354D02*
X562002Y740241D01*
X561996Y740128D01*
X561986Y740015D01*
X561972Y739902D01*
X561955Y739790D01*
X561933Y739679D01*
X561908Y739569D01*
X561878Y739459D01*
X561845Y739351D01*
X561808Y739244D01*
X561768Y739138D01*
X561723Y739034D01*
X561675Y738931D01*
X561624Y738830D01*
X561569Y738731D01*
X561511Y738634D01*
X561449Y738539D01*
X561384Y738446D01*
X561316Y738356D01*
X561245Y738268D01*
X561170Y738182D01*
X561093Y738099D01*
X561013Y738019D01*
X560930Y737942D01*
X560844Y737867D01*
X560756Y737796D01*
X560666Y737728D01*
X560573Y737663D01*
X560478Y737601D01*
X560381Y737543D01*
X560282Y737488D01*
X560181Y737437D01*
X560078Y737389D01*
X559974Y737344D01*
X559868Y737304D01*
X559761Y737267D01*
X559653Y737234D01*
X559543Y737204D01*
X559433Y737179D01*
X559322Y737157D01*
X559210Y737140D01*
X559097Y737126D01*
X558984Y737116D01*
X558871Y737110D01*
X558758Y737108D01*
X555512Y737108D01*
X568283Y737108D02*
X568283Y748792D01*
X566984Y737108D02*
X569581Y737108D01*
X569581Y748792D02*
X566984Y748792D01*
X577695Y737108D02*
X577794Y737110D01*
X577894Y737116D01*
X577993Y737125D01*
X578091Y737138D01*
X578189Y737155D01*
X578287Y737176D01*
X578383Y737201D01*
X578478Y737229D01*
X578572Y737261D01*
X578665Y737296D01*
X578757Y737335D01*
X578847Y737378D01*
X578935Y737423D01*
X579022Y737473D01*
X579106Y737525D01*
X579189Y737581D01*
X579269Y737639D01*
X579347Y737701D01*
X579422Y737766D01*
X579495Y737834D01*
X579565Y737904D01*
X579633Y737977D01*
X579698Y738052D01*
X579760Y738130D01*
X579818Y738210D01*
X579874Y738293D01*
X579926Y738377D01*
X579976Y738464D01*
X580021Y738552D01*
X580064Y738642D01*
X580103Y738734D01*
X580138Y738827D01*
X580170Y738921D01*
X580198Y739016D01*
X580223Y739112D01*
X580244Y739210D01*
X580261Y739308D01*
X580274Y739406D01*
X580283Y739505D01*
X580289Y739605D01*
X580291Y739704D01*
X577695Y737108D02*
X577551Y737110D01*
X577406Y737116D01*
X577262Y737125D01*
X577119Y737138D01*
X576975Y737155D01*
X576832Y737176D01*
X576690Y737201D01*
X576549Y737229D01*
X576408Y737261D01*
X576268Y737297D01*
X576129Y737336D01*
X575991Y737379D01*
X575855Y737426D01*
X575719Y737476D01*
X575585Y737530D01*
X575453Y737587D01*
X575322Y737648D01*
X575193Y737712D01*
X575065Y737780D01*
X574939Y737850D01*
X574815Y737925D01*
X574694Y738002D01*
X574574Y738083D01*
X574456Y738166D01*
X574341Y738253D01*
X574228Y738343D01*
X574117Y738436D01*
X574009Y738531D01*
X573903Y738630D01*
X573800Y738731D01*
X574125Y746196D02*
X574127Y746295D01*
X574133Y746395D01*
X574142Y746494D01*
X574155Y746592D01*
X574172Y746690D01*
X574193Y746788D01*
X574218Y746884D01*
X574246Y746979D01*
X574278Y747073D01*
X574313Y747166D01*
X574352Y747258D01*
X574395Y747348D01*
X574440Y747436D01*
X574490Y747523D01*
X574542Y747607D01*
X574598Y747690D01*
X574656Y747770D01*
X574718Y747848D01*
X574783Y747923D01*
X574851Y747996D01*
X574921Y748066D01*
X574994Y748134D01*
X575069Y748199D01*
X575147Y748261D01*
X575227Y748319D01*
X575310Y748375D01*
X575394Y748427D01*
X575481Y748477D01*
X575569Y748522D01*
X575659Y748565D01*
X575751Y748604D01*
X575844Y748639D01*
X575938Y748671D01*
X576033Y748699D01*
X576130Y748724D01*
X576227Y748745D01*
X576325Y748762D01*
X576423Y748775D01*
X576522Y748784D01*
X576622Y748790D01*
X576721Y748792D01*
X576857Y748790D01*
X576993Y748784D01*
X577129Y748775D01*
X577265Y748762D01*
X577400Y748744D01*
X577534Y748724D01*
X577668Y748699D01*
X577802Y748671D01*
X577934Y748638D01*
X578065Y748603D01*
X578196Y748563D01*
X578325Y748520D01*
X578453Y748474D01*
X578579Y748423D01*
X578705Y748370D01*
X578828Y748312D01*
X578950Y748252D01*
X579070Y748188D01*
X579189Y748120D01*
X579305Y748050D01*
X579419Y747976D01*
X579532Y747899D01*
X579642Y747818D01*
X575423Y743924D02*
X575337Y743977D01*
X575253Y744034D01*
X575171Y744093D01*
X575091Y744156D01*
X575014Y744222D01*
X574939Y744290D01*
X574867Y744362D01*
X574798Y744436D01*
X574732Y744513D01*
X574669Y744592D01*
X574609Y744674D01*
X574552Y744758D01*
X574498Y744844D01*
X574448Y744932D01*
X574401Y745022D01*
X574357Y745113D01*
X574318Y745207D01*
X574281Y745301D01*
X574249Y745397D01*
X574220Y745495D01*
X574195Y745593D01*
X574174Y745692D01*
X574156Y745792D01*
X574143Y745892D01*
X574133Y745993D01*
X574127Y746095D01*
X574125Y746196D01*
X578993Y741976D02*
X579079Y741923D01*
X579163Y741866D01*
X579245Y741807D01*
X579325Y741744D01*
X579402Y741678D01*
X579477Y741610D01*
X579549Y741538D01*
X579618Y741464D01*
X579684Y741387D01*
X579747Y741308D01*
X579807Y741226D01*
X579864Y741142D01*
X579918Y741056D01*
X579968Y740968D01*
X580015Y740878D01*
X580059Y740787D01*
X580098Y740693D01*
X580135Y740599D01*
X580167Y740503D01*
X580196Y740405D01*
X580221Y740307D01*
X580242Y740208D01*
X580260Y740108D01*
X580273Y740008D01*
X580283Y739907D01*
X580289Y739805D01*
X580291Y739704D01*
X578993Y741976D02*
X575423Y743924D01*
X585399Y748792D02*
X585399Y737108D01*
X585399Y748792D02*
X588645Y748792D01*
X588758Y748790D01*
X588871Y748784D01*
X588984Y748774D01*
X589097Y748760D01*
X589209Y748743D01*
X589320Y748721D01*
X589430Y748696D01*
X589540Y748666D01*
X589648Y748633D01*
X589755Y748596D01*
X589861Y748556D01*
X589965Y748511D01*
X590068Y748463D01*
X590169Y748412D01*
X590268Y748357D01*
X590365Y748299D01*
X590460Y748237D01*
X590553Y748172D01*
X590643Y748104D01*
X590731Y748033D01*
X590817Y747958D01*
X590900Y747881D01*
X590980Y747801D01*
X591057Y747718D01*
X591132Y747632D01*
X591203Y747544D01*
X591271Y747454D01*
X591336Y747361D01*
X591398Y747266D01*
X591456Y747169D01*
X591511Y747070D01*
X591562Y746969D01*
X591610Y746866D01*
X591655Y746762D01*
X591695Y746656D01*
X591732Y746549D01*
X591765Y746441D01*
X591795Y746331D01*
X591820Y746221D01*
X591842Y746110D01*
X591859Y745998D01*
X591873Y745885D01*
X591883Y745772D01*
X591889Y745659D01*
X591891Y745546D01*
X591889Y745433D01*
X591883Y745320D01*
X591873Y745207D01*
X591859Y745094D01*
X591842Y744982D01*
X591820Y744871D01*
X591795Y744761D01*
X591765Y744651D01*
X591732Y744543D01*
X591695Y744436D01*
X591655Y744330D01*
X591610Y744226D01*
X591562Y744123D01*
X591511Y744022D01*
X591456Y743923D01*
X591398Y743826D01*
X591336Y743731D01*
X591271Y743638D01*
X591203Y743548D01*
X591132Y743460D01*
X591057Y743374D01*
X590980Y743291D01*
X590900Y743211D01*
X590817Y743134D01*
X590731Y743059D01*
X590643Y742988D01*
X590553Y742920D01*
X590460Y742855D01*
X590365Y742793D01*
X590268Y742735D01*
X590169Y742680D01*
X590068Y742629D01*
X589965Y742581D01*
X589861Y742536D01*
X589755Y742496D01*
X589648Y742459D01*
X589540Y742426D01*
X589430Y742396D01*
X589320Y742371D01*
X589209Y742349D01*
X589097Y742332D01*
X588984Y742318D01*
X588871Y742308D01*
X588758Y742302D01*
X588645Y742300D01*
X588645Y742301D02*
X585399Y742301D01*
X596683Y737108D02*
X596683Y748792D01*
X596683Y737108D02*
X601875Y737108D01*
X605536Y737108D02*
X609431Y748792D01*
X613325Y737108D01*
X612352Y740029D02*
X606510Y740029D01*
X616966Y748792D02*
X620861Y743275D01*
X624755Y748792D01*
X620861Y743275D02*
X620861Y737108D01*
X533908Y405892D02*
X533908Y394208D01*
X533908Y400699D02*
X540399Y400699D01*
X540399Y405892D02*
X540399Y394208D01*
X546123Y394208D02*
X551315Y394208D01*
X546123Y394208D02*
X546123Y405892D01*
X551315Y405892D01*
X550017Y400699D02*
X546123Y400699D01*
X554976Y394208D02*
X562765Y405892D01*
X554976Y405892D02*
X562765Y394208D01*
X567168Y398752D02*
X574957Y398752D01*
X580390Y394208D02*
X580390Y405892D01*
X583636Y405892D01*
X583749Y405890D01*
X583862Y405884D01*
X583975Y405874D01*
X584088Y405860D01*
X584200Y405843D01*
X584311Y405821D01*
X584421Y405796D01*
X584531Y405766D01*
X584639Y405733D01*
X584746Y405696D01*
X584852Y405656D01*
X584956Y405611D01*
X585059Y405563D01*
X585160Y405512D01*
X585259Y405457D01*
X585356Y405399D01*
X585451Y405337D01*
X585544Y405272D01*
X585634Y405204D01*
X585722Y405133D01*
X585808Y405058D01*
X585891Y404981D01*
X585971Y404901D01*
X586048Y404818D01*
X586123Y404732D01*
X586194Y404644D01*
X586262Y404554D01*
X586327Y404461D01*
X586389Y404366D01*
X586447Y404269D01*
X586502Y404170D01*
X586553Y404069D01*
X586601Y403966D01*
X586646Y403862D01*
X586686Y403756D01*
X586723Y403649D01*
X586756Y403541D01*
X586786Y403431D01*
X586811Y403321D01*
X586833Y403210D01*
X586850Y403098D01*
X586864Y402985D01*
X586874Y402872D01*
X586880Y402759D01*
X586882Y402646D01*
X586881Y402646D02*
X586881Y397454D01*
X586882Y397454D02*
X586880Y397341D01*
X586874Y397228D01*
X586864Y397115D01*
X586850Y397002D01*
X586833Y396890D01*
X586811Y396779D01*
X586786Y396669D01*
X586756Y396559D01*
X586723Y396451D01*
X586686Y396344D01*
X586646Y396238D01*
X586601Y396134D01*
X586553Y396031D01*
X586502Y395930D01*
X586447Y395831D01*
X586389Y395734D01*
X586327Y395639D01*
X586262Y395546D01*
X586194Y395456D01*
X586123Y395368D01*
X586048Y395282D01*
X585971Y395199D01*
X585891Y395119D01*
X585808Y395042D01*
X585722Y394967D01*
X585634Y394896D01*
X585544Y394828D01*
X585451Y394763D01*
X585356Y394701D01*
X585259Y394643D01*
X585160Y394588D01*
X585059Y394537D01*
X584956Y394489D01*
X584852Y394444D01*
X584746Y394404D01*
X584639Y394367D01*
X584531Y394334D01*
X584421Y394304D01*
X584311Y394279D01*
X584200Y394257D01*
X584088Y394240D01*
X583975Y394226D01*
X583862Y394216D01*
X583749Y394210D01*
X583636Y394208D01*
X580390Y394208D01*
X593161Y394208D02*
X593161Y405892D01*
X591862Y394208D02*
X594459Y394208D01*
X594459Y405892D02*
X591862Y405892D01*
X602573Y394208D02*
X602672Y394210D01*
X602772Y394216D01*
X602871Y394225D01*
X602969Y394238D01*
X603067Y394255D01*
X603165Y394276D01*
X603261Y394301D01*
X603356Y394329D01*
X603450Y394361D01*
X603543Y394396D01*
X603635Y394435D01*
X603725Y394478D01*
X603813Y394523D01*
X603900Y394573D01*
X603984Y394625D01*
X604067Y394681D01*
X604147Y394739D01*
X604225Y394801D01*
X604300Y394866D01*
X604373Y394934D01*
X604443Y395004D01*
X604511Y395077D01*
X604576Y395152D01*
X604638Y395230D01*
X604696Y395310D01*
X604752Y395393D01*
X604804Y395477D01*
X604854Y395564D01*
X604899Y395652D01*
X604942Y395742D01*
X604981Y395834D01*
X605016Y395927D01*
X605048Y396021D01*
X605076Y396116D01*
X605101Y396212D01*
X605122Y396310D01*
X605139Y396408D01*
X605152Y396506D01*
X605161Y396605D01*
X605167Y396705D01*
X605169Y396804D01*
X602573Y394208D02*
X602429Y394210D01*
X602284Y394216D01*
X602140Y394225D01*
X601997Y394238D01*
X601853Y394255D01*
X601710Y394276D01*
X601568Y394301D01*
X601427Y394329D01*
X601286Y394361D01*
X601146Y394397D01*
X601007Y394436D01*
X600869Y394479D01*
X600733Y394526D01*
X600597Y394576D01*
X600463Y394630D01*
X600331Y394687D01*
X600200Y394748D01*
X600071Y394812D01*
X599943Y394880D01*
X599817Y394950D01*
X599693Y395025D01*
X599572Y395102D01*
X599452Y395183D01*
X599334Y395266D01*
X599219Y395353D01*
X599106Y395443D01*
X598995Y395536D01*
X598887Y395631D01*
X598781Y395730D01*
X598678Y395831D01*
X599003Y403296D02*
X599005Y403395D01*
X599011Y403495D01*
X599020Y403594D01*
X599033Y403692D01*
X599050Y403790D01*
X599071Y403888D01*
X599096Y403984D01*
X599124Y404079D01*
X599156Y404173D01*
X599191Y404266D01*
X599230Y404358D01*
X599273Y404448D01*
X599318Y404536D01*
X599368Y404623D01*
X599420Y404707D01*
X599476Y404790D01*
X599534Y404870D01*
X599596Y404948D01*
X599661Y405023D01*
X599729Y405096D01*
X599799Y405166D01*
X599872Y405234D01*
X599947Y405299D01*
X600025Y405361D01*
X600105Y405419D01*
X600188Y405475D01*
X600272Y405527D01*
X600359Y405577D01*
X600447Y405622D01*
X600537Y405665D01*
X600629Y405704D01*
X600722Y405739D01*
X600816Y405771D01*
X600911Y405799D01*
X601008Y405824D01*
X601105Y405845D01*
X601203Y405862D01*
X601301Y405875D01*
X601400Y405884D01*
X601500Y405890D01*
X601599Y405892D01*
X601735Y405890D01*
X601871Y405884D01*
X602007Y405875D01*
X602143Y405862D01*
X602278Y405844D01*
X602412Y405824D01*
X602546Y405799D01*
X602680Y405771D01*
X602812Y405738D01*
X602943Y405703D01*
X603074Y405663D01*
X603203Y405620D01*
X603331Y405574D01*
X603457Y405523D01*
X603583Y405470D01*
X603706Y405412D01*
X603828Y405352D01*
X603948Y405288D01*
X604067Y405220D01*
X604183Y405150D01*
X604297Y405076D01*
X604410Y404999D01*
X604520Y404918D01*
X600300Y401024D02*
X600214Y401077D01*
X600130Y401134D01*
X600048Y401193D01*
X599968Y401256D01*
X599891Y401322D01*
X599816Y401390D01*
X599744Y401462D01*
X599675Y401536D01*
X599609Y401613D01*
X599546Y401692D01*
X599486Y401774D01*
X599429Y401858D01*
X599375Y401944D01*
X599325Y402032D01*
X599278Y402122D01*
X599234Y402213D01*
X599195Y402307D01*
X599158Y402401D01*
X599126Y402497D01*
X599097Y402595D01*
X599072Y402693D01*
X599051Y402792D01*
X599033Y402892D01*
X599020Y402992D01*
X599010Y403093D01*
X599004Y403195D01*
X599002Y403296D01*
X603871Y399076D02*
X603957Y399023D01*
X604041Y398966D01*
X604123Y398907D01*
X604203Y398844D01*
X604280Y398778D01*
X604355Y398710D01*
X604427Y398638D01*
X604496Y398564D01*
X604562Y398487D01*
X604625Y398408D01*
X604685Y398326D01*
X604742Y398242D01*
X604796Y398156D01*
X604846Y398068D01*
X604893Y397978D01*
X604937Y397887D01*
X604976Y397793D01*
X605013Y397699D01*
X605045Y397603D01*
X605074Y397505D01*
X605099Y397407D01*
X605120Y397308D01*
X605138Y397208D01*
X605151Y397108D01*
X605161Y397007D01*
X605167Y396905D01*
X605169Y396804D01*
X603871Y399076D02*
X600301Y401024D01*
X610277Y405892D02*
X610277Y394208D01*
X610277Y405892D02*
X613523Y405892D01*
X613636Y405890D01*
X613749Y405884D01*
X613862Y405874D01*
X613975Y405860D01*
X614087Y405843D01*
X614198Y405821D01*
X614308Y405796D01*
X614418Y405766D01*
X614526Y405733D01*
X614633Y405696D01*
X614739Y405656D01*
X614843Y405611D01*
X614946Y405563D01*
X615047Y405512D01*
X615146Y405457D01*
X615243Y405399D01*
X615338Y405337D01*
X615431Y405272D01*
X615521Y405204D01*
X615609Y405133D01*
X615695Y405058D01*
X615778Y404981D01*
X615858Y404901D01*
X615935Y404818D01*
X616010Y404732D01*
X616081Y404644D01*
X616149Y404554D01*
X616214Y404461D01*
X616276Y404366D01*
X616334Y404269D01*
X616389Y404170D01*
X616440Y404069D01*
X616488Y403966D01*
X616533Y403862D01*
X616573Y403756D01*
X616610Y403649D01*
X616643Y403541D01*
X616673Y403431D01*
X616698Y403321D01*
X616720Y403210D01*
X616737Y403098D01*
X616751Y402985D01*
X616761Y402872D01*
X616767Y402759D01*
X616769Y402646D01*
X616767Y402533D01*
X616761Y402420D01*
X616751Y402307D01*
X616737Y402194D01*
X616720Y402082D01*
X616698Y401971D01*
X616673Y401861D01*
X616643Y401751D01*
X616610Y401643D01*
X616573Y401536D01*
X616533Y401430D01*
X616488Y401326D01*
X616440Y401223D01*
X616389Y401122D01*
X616334Y401023D01*
X616276Y400926D01*
X616214Y400831D01*
X616149Y400738D01*
X616081Y400648D01*
X616010Y400560D01*
X615935Y400474D01*
X615858Y400391D01*
X615778Y400311D01*
X615695Y400234D01*
X615609Y400159D01*
X615521Y400088D01*
X615431Y400020D01*
X615338Y399955D01*
X615243Y399893D01*
X615146Y399835D01*
X615047Y399780D01*
X614946Y399729D01*
X614843Y399681D01*
X614739Y399636D01*
X614633Y399596D01*
X614526Y399559D01*
X614418Y399526D01*
X614308Y399496D01*
X614198Y399471D01*
X614087Y399449D01*
X613975Y399432D01*
X613862Y399418D01*
X613749Y399408D01*
X613636Y399402D01*
X613523Y399400D01*
X613523Y399401D02*
X610277Y399401D01*
X621560Y394208D02*
X621560Y405892D01*
X621560Y394208D02*
X626753Y394208D01*
X630414Y394208D02*
X634308Y405892D01*
X638203Y394208D01*
X637229Y397129D02*
X631387Y397129D01*
X641844Y405892D02*
X645738Y400375D01*
X649633Y405892D01*
X645738Y400375D02*
X645738Y394208D01*
D11*
X304800Y228600D02*
X304800Y768600D01*
X304800Y228600D02*
X104800Y228600D01*
X104800Y768600D01*
X304800Y768600D01*
D14*
X342900Y736600D03*
X368300Y736600D03*
X393700Y736600D03*
D11*
X327660Y723900D02*
X327660Y749300D01*
X408940Y749300D01*
X408940Y723900D01*
X327660Y723900D01*
D13*
X370868Y719497D02*
X370868Y711708D01*
X366974Y715603D02*
X374763Y715603D01*
X398808Y711708D02*
X398808Y719497D01*
D15*
X345186Y701294D02*
X338074Y701294D01*
X338074Y703270D01*
X338076Y703357D01*
X338082Y703445D01*
X338091Y703532D01*
X338105Y703618D01*
X338122Y703704D01*
X338143Y703788D01*
X338168Y703872D01*
X338197Y703955D01*
X338229Y704036D01*
X338264Y704116D01*
X338303Y704194D01*
X338346Y704271D01*
X338392Y704345D01*
X338441Y704417D01*
X338493Y704487D01*
X338549Y704555D01*
X338607Y704620D01*
X338668Y704683D01*
X338732Y704742D01*
X338799Y704799D01*
X338867Y704853D01*
X338939Y704904D01*
X339012Y704951D01*
X339087Y704996D01*
X339165Y705037D01*
X339244Y705074D01*
X339324Y705108D01*
X339406Y705138D01*
X339489Y705165D01*
X339574Y705188D01*
X339659Y705207D01*
X339745Y705222D01*
X339832Y705234D01*
X339919Y705242D01*
X340006Y705246D01*
X340094Y705246D01*
X340181Y705242D01*
X340268Y705234D01*
X340355Y705222D01*
X340441Y705207D01*
X340526Y705188D01*
X340611Y705165D01*
X340694Y705138D01*
X340776Y705108D01*
X340856Y705074D01*
X340935Y705037D01*
X341013Y704996D01*
X341088Y704951D01*
X341161Y704904D01*
X341233Y704853D01*
X341301Y704799D01*
X341368Y704742D01*
X341432Y704683D01*
X341493Y704620D01*
X341551Y704555D01*
X341607Y704487D01*
X341659Y704417D01*
X341708Y704345D01*
X341754Y704271D01*
X341797Y704194D01*
X341836Y704116D01*
X341871Y704036D01*
X341903Y703955D01*
X341932Y703872D01*
X341957Y703788D01*
X341978Y703704D01*
X341995Y703618D01*
X342009Y703532D01*
X342018Y703445D01*
X342024Y703357D01*
X342026Y703270D01*
X342025Y703270D02*
X342025Y701294D01*
X338074Y707559D02*
X345186Y709140D01*
X340445Y710720D01*
X345186Y712301D01*
X338074Y713881D01*
X338074Y716808D02*
X345186Y716808D01*
X342025Y719178D02*
X338074Y716808D01*
X342025Y719178D02*
X338074Y721549D01*
X345186Y721549D01*
D16*
X234580Y158900D02*
X234582Y158989D01*
X234588Y159078D01*
X234598Y159167D01*
X234612Y159255D01*
X234629Y159342D01*
X234651Y159428D01*
X234677Y159514D01*
X234706Y159598D01*
X234739Y159681D01*
X234775Y159762D01*
X234816Y159842D01*
X234859Y159919D01*
X234906Y159995D01*
X234957Y160068D01*
X235010Y160139D01*
X235067Y160208D01*
X235127Y160274D01*
X235190Y160338D01*
X235255Y160398D01*
X235323Y160456D01*
X235394Y160510D01*
X235467Y160561D01*
X235542Y160609D01*
X235619Y160654D01*
X235698Y160695D01*
X235779Y160732D01*
X235861Y160766D01*
X235945Y160797D01*
X236030Y160823D01*
X236116Y160846D01*
X236203Y160864D01*
X236291Y160879D01*
X236380Y160890D01*
X236469Y160897D01*
X236558Y160900D01*
X236647Y160899D01*
X236736Y160894D01*
X236824Y160885D01*
X236913Y160872D01*
X237000Y160855D01*
X237087Y160835D01*
X237173Y160810D01*
X237257Y160782D01*
X237340Y160750D01*
X237422Y160714D01*
X237502Y160675D01*
X237580Y160632D01*
X237656Y160586D01*
X237730Y160536D01*
X237802Y160483D01*
X237871Y160427D01*
X237938Y160368D01*
X238002Y160306D01*
X238063Y160242D01*
X238122Y160174D01*
X238177Y160104D01*
X238229Y160032D01*
X238278Y159957D01*
X238323Y159881D01*
X238365Y159802D01*
X238403Y159722D01*
X238438Y159640D01*
X238469Y159556D01*
X238497Y159471D01*
X238520Y159385D01*
X238540Y159298D01*
X238556Y159211D01*
X238568Y159122D01*
X238576Y159034D01*
X238580Y158945D01*
X238580Y158855D01*
X238576Y158766D01*
X238568Y158678D01*
X238556Y158589D01*
X238540Y158502D01*
X238520Y158415D01*
X238497Y158329D01*
X238469Y158244D01*
X238438Y158160D01*
X238403Y158078D01*
X238365Y157998D01*
X238323Y157919D01*
X238278Y157843D01*
X238229Y157768D01*
X238177Y157696D01*
X238122Y157626D01*
X238063Y157558D01*
X238002Y157494D01*
X237938Y157432D01*
X237871Y157373D01*
X237802Y157317D01*
X237730Y157264D01*
X237656Y157214D01*
X237580Y157168D01*
X237502Y157125D01*
X237422Y157086D01*
X237340Y157050D01*
X237257Y157018D01*
X237173Y156990D01*
X237087Y156965D01*
X237000Y156945D01*
X236913Y156928D01*
X236824Y156915D01*
X236736Y156906D01*
X236647Y156901D01*
X236558Y156900D01*
X236469Y156903D01*
X236380Y156910D01*
X236291Y156921D01*
X236203Y156936D01*
X236116Y156954D01*
X236030Y156977D01*
X235945Y157003D01*
X235861Y157034D01*
X235779Y157068D01*
X235698Y157105D01*
X235619Y157146D01*
X235542Y157191D01*
X235467Y157239D01*
X235394Y157290D01*
X235323Y157344D01*
X235255Y157402D01*
X235190Y157462D01*
X235127Y157526D01*
X235067Y157592D01*
X235010Y157661D01*
X234957Y157732D01*
X234906Y157805D01*
X234859Y157881D01*
X234816Y157958D01*
X234775Y158038D01*
X234739Y158119D01*
X234706Y158202D01*
X234677Y158286D01*
X234651Y158372D01*
X234629Y158458D01*
X234612Y158545D01*
X234598Y158633D01*
X234588Y158722D01*
X234582Y158811D01*
X234580Y158900D01*
D11*
X251080Y109300D02*
X267080Y109300D01*
X267080Y119300D02*
X251080Y119300D01*
X256580Y115800D02*
X256580Y112800D01*
X259080Y114300D01*
X256580Y115800D01*
X260080Y116800D02*
X260080Y111800D01*
X257580Y114300D02*
X257080Y114300D01*
D12*
X246761Y124841D02*
X246761Y132207D01*
X248807Y132207D01*
X248896Y132205D01*
X248985Y132199D01*
X249074Y132189D01*
X249162Y132176D01*
X249250Y132159D01*
X249337Y132137D01*
X249422Y132112D01*
X249507Y132084D01*
X249590Y132051D01*
X249672Y132015D01*
X249752Y131976D01*
X249830Y131933D01*
X249906Y131887D01*
X249981Y131837D01*
X250053Y131784D01*
X250122Y131728D01*
X250189Y131669D01*
X250254Y131608D01*
X250315Y131543D01*
X250374Y131476D01*
X250430Y131407D01*
X250483Y131335D01*
X250533Y131260D01*
X250579Y131184D01*
X250622Y131106D01*
X250661Y131026D01*
X250697Y130944D01*
X250730Y130861D01*
X250758Y130776D01*
X250783Y130691D01*
X250805Y130604D01*
X250822Y130516D01*
X250835Y130428D01*
X250845Y130339D01*
X250851Y130250D01*
X250853Y130161D01*
X250853Y126887D01*
X250851Y126798D01*
X250845Y126709D01*
X250835Y126620D01*
X250822Y126532D01*
X250805Y126444D01*
X250783Y126357D01*
X250758Y126272D01*
X250730Y126187D01*
X250697Y126104D01*
X250661Y126022D01*
X250622Y125942D01*
X250579Y125864D01*
X250533Y125788D01*
X250483Y125713D01*
X250430Y125641D01*
X250374Y125572D01*
X250315Y125505D01*
X250254Y125440D01*
X250189Y125379D01*
X250122Y125320D01*
X250053Y125264D01*
X249981Y125211D01*
X249906Y125161D01*
X249830Y125115D01*
X249752Y125072D01*
X249672Y125033D01*
X249590Y124997D01*
X249507Y124964D01*
X249422Y124936D01*
X249337Y124911D01*
X249250Y124889D01*
X249162Y124872D01*
X249074Y124859D01*
X248985Y124849D01*
X248896Y124843D01*
X248807Y124841D01*
X246761Y124841D01*
X254320Y130570D02*
X256366Y132207D01*
X256366Y124841D01*
X254320Y124841D02*
X258412Y124841D01*
D11*
X1156500Y114300D02*
X1156500Y164300D01*
X1156500Y204300D02*
X1156500Y239300D01*
X1256500Y239300D01*
X1256500Y204300D01*
X1256500Y164300D02*
X1256500Y114300D01*
X1246500Y114300D01*
X1166500Y114300D02*
X1156500Y114300D01*
X1176500Y184300D02*
X1176509Y185036D01*
X1176536Y185772D01*
X1176581Y186507D01*
X1176644Y187241D01*
X1176726Y187972D01*
X1176825Y188702D01*
X1176942Y189429D01*
X1177076Y190153D01*
X1177229Y190873D01*
X1177399Y191589D01*
X1177587Y192301D01*
X1177792Y193009D01*
X1178014Y193710D01*
X1178254Y194407D01*
X1178510Y195097D01*
X1178784Y195781D01*
X1179074Y196457D01*
X1179380Y197127D01*
X1179703Y197788D01*
X1180042Y198442D01*
X1180397Y199087D01*
X1180768Y199723D01*
X1181154Y200350D01*
X1181556Y200967D01*
X1181972Y201574D01*
X1182404Y202171D01*
X1182850Y202757D01*
X1183310Y203332D01*
X1183784Y203895D01*
X1184271Y204447D01*
X1184773Y204986D01*
X1185287Y205513D01*
X1185814Y206027D01*
X1186353Y206529D01*
X1186905Y207016D01*
X1187468Y207490D01*
X1188043Y207950D01*
X1188629Y208396D01*
X1189226Y208828D01*
X1189833Y209244D01*
X1190450Y209646D01*
X1191077Y210032D01*
X1191713Y210403D01*
X1192358Y210758D01*
X1193012Y211097D01*
X1193673Y211420D01*
X1194343Y211726D01*
X1195019Y212016D01*
X1195703Y212290D01*
X1196393Y212546D01*
X1197090Y212786D01*
X1197791Y213008D01*
X1198499Y213213D01*
X1199211Y213401D01*
X1199927Y213571D01*
X1200647Y213724D01*
X1201371Y213858D01*
X1202098Y213975D01*
X1202828Y214074D01*
X1203559Y214156D01*
X1204293Y214219D01*
X1205028Y214264D01*
X1205764Y214291D01*
X1206500Y214300D01*
X1207236Y214291D01*
X1207972Y214264D01*
X1208707Y214219D01*
X1209441Y214156D01*
X1210172Y214074D01*
X1210902Y213975D01*
X1211629Y213858D01*
X1212353Y213724D01*
X1213073Y213571D01*
X1213789Y213401D01*
X1214501Y213213D01*
X1215209Y213008D01*
X1215910Y212786D01*
X1216607Y212546D01*
X1217297Y212290D01*
X1217981Y212016D01*
X1218657Y211726D01*
X1219327Y211420D01*
X1219988Y211097D01*
X1220642Y210758D01*
X1221287Y210403D01*
X1221923Y210032D01*
X1222550Y209646D01*
X1223167Y209244D01*
X1223774Y208828D01*
X1224371Y208396D01*
X1224957Y207950D01*
X1225532Y207490D01*
X1226095Y207016D01*
X1226647Y206529D01*
X1227186Y206027D01*
X1227713Y205513D01*
X1228227Y204986D01*
X1228729Y204447D01*
X1229216Y203895D01*
X1229690Y203332D01*
X1230150Y202757D01*
X1230596Y202171D01*
X1231028Y201574D01*
X1231444Y200967D01*
X1231846Y200350D01*
X1232232Y199723D01*
X1232603Y199087D01*
X1232958Y198442D01*
X1233297Y197788D01*
X1233620Y197127D01*
X1233926Y196457D01*
X1234216Y195781D01*
X1234490Y195097D01*
X1234746Y194407D01*
X1234986Y193710D01*
X1235208Y193009D01*
X1235413Y192301D01*
X1235601Y191589D01*
X1235771Y190873D01*
X1235924Y190153D01*
X1236058Y189429D01*
X1236175Y188702D01*
X1236274Y187972D01*
X1236356Y187241D01*
X1236419Y186507D01*
X1236464Y185772D01*
X1236491Y185036D01*
X1236500Y184300D01*
X1236491Y183564D01*
X1236464Y182828D01*
X1236419Y182093D01*
X1236356Y181359D01*
X1236274Y180628D01*
X1236175Y179898D01*
X1236058Y179171D01*
X1235924Y178447D01*
X1235771Y177727D01*
X1235601Y177011D01*
X1235413Y176299D01*
X1235208Y175591D01*
X1234986Y174890D01*
X1234746Y174193D01*
X1234490Y173503D01*
X1234216Y172819D01*
X1233926Y172143D01*
X1233620Y171473D01*
X1233297Y170812D01*
X1232958Y170158D01*
X1232603Y169513D01*
X1232232Y168877D01*
X1231846Y168250D01*
X1231444Y167633D01*
X1231028Y167026D01*
X1230596Y166429D01*
X1230150Y165843D01*
X1229690Y165268D01*
X1229216Y164705D01*
X1228729Y164153D01*
X1228227Y163614D01*
X1227713Y163087D01*
X1227186Y162573D01*
X1226647Y162071D01*
X1226095Y161584D01*
X1225532Y161110D01*
X1224957Y160650D01*
X1224371Y160204D01*
X1223774Y159772D01*
X1223167Y159356D01*
X1222550Y158954D01*
X1221923Y158568D01*
X1221287Y158197D01*
X1220642Y157842D01*
X1219988Y157503D01*
X1219327Y157180D01*
X1218657Y156874D01*
X1217981Y156584D01*
X1217297Y156310D01*
X1216607Y156054D01*
X1215910Y155814D01*
X1215209Y155592D01*
X1214501Y155387D01*
X1213789Y155199D01*
X1213073Y155029D01*
X1212353Y154876D01*
X1211629Y154742D01*
X1210902Y154625D01*
X1210172Y154526D01*
X1209441Y154444D01*
X1208707Y154381D01*
X1207972Y154336D01*
X1207236Y154309D01*
X1206500Y154300D01*
X1205764Y154309D01*
X1205028Y154336D01*
X1204293Y154381D01*
X1203559Y154444D01*
X1202828Y154526D01*
X1202098Y154625D01*
X1201371Y154742D01*
X1200647Y154876D01*
X1199927Y155029D01*
X1199211Y155199D01*
X1198499Y155387D01*
X1197791Y155592D01*
X1197090Y155814D01*
X1196393Y156054D01*
X1195703Y156310D01*
X1195019Y156584D01*
X1194343Y156874D01*
X1193673Y157180D01*
X1193012Y157503D01*
X1192358Y157842D01*
X1191713Y158197D01*
X1191077Y158568D01*
X1190450Y158954D01*
X1189833Y159356D01*
X1189226Y159772D01*
X1188629Y160204D01*
X1188043Y160650D01*
X1187468Y161110D01*
X1186905Y161584D01*
X1186353Y162071D01*
X1185814Y162573D01*
X1185287Y163087D01*
X1184773Y163614D01*
X1184271Y164153D01*
X1183784Y164705D01*
X1183310Y165268D01*
X1182850Y165843D01*
X1182404Y166429D01*
X1181972Y167026D01*
X1181556Y167633D01*
X1181154Y168250D01*
X1180768Y168877D01*
X1180397Y169513D01*
X1180042Y170158D01*
X1179703Y170812D01*
X1179380Y171473D01*
X1179074Y172143D01*
X1178784Y172819D01*
X1178510Y173503D01*
X1178254Y174193D01*
X1178014Y174890D01*
X1177792Y175591D01*
X1177587Y176299D01*
X1177399Y177011D01*
X1177229Y177727D01*
X1177076Y178447D01*
X1176942Y179171D01*
X1176825Y179898D01*
X1176726Y180628D01*
X1176644Y181359D01*
X1176581Y182093D01*
X1176536Y182828D01*
X1176509Y183564D01*
X1176500Y184300D01*
D12*
X1156081Y241681D02*
X1156081Y249047D01*
X1158127Y249047D01*
X1158216Y249045D01*
X1158305Y249039D01*
X1158394Y249029D01*
X1158482Y249016D01*
X1158570Y248999D01*
X1158657Y248977D01*
X1158742Y248952D01*
X1158827Y248924D01*
X1158910Y248891D01*
X1158992Y248855D01*
X1159072Y248816D01*
X1159150Y248773D01*
X1159226Y248727D01*
X1159301Y248677D01*
X1159373Y248624D01*
X1159442Y248568D01*
X1159509Y248509D01*
X1159574Y248448D01*
X1159635Y248383D01*
X1159694Y248316D01*
X1159750Y248247D01*
X1159803Y248175D01*
X1159853Y248100D01*
X1159899Y248024D01*
X1159942Y247946D01*
X1159981Y247866D01*
X1160017Y247784D01*
X1160050Y247701D01*
X1160078Y247616D01*
X1160103Y247531D01*
X1160125Y247444D01*
X1160142Y247356D01*
X1160155Y247268D01*
X1160165Y247179D01*
X1160171Y247090D01*
X1160173Y247001D01*
X1160171Y246912D01*
X1160165Y246823D01*
X1160155Y246734D01*
X1160142Y246646D01*
X1160125Y246558D01*
X1160103Y246471D01*
X1160078Y246386D01*
X1160050Y246301D01*
X1160017Y246218D01*
X1159981Y246136D01*
X1159942Y246056D01*
X1159899Y245978D01*
X1159853Y245902D01*
X1159803Y245827D01*
X1159750Y245755D01*
X1159694Y245686D01*
X1159635Y245619D01*
X1159574Y245554D01*
X1159509Y245493D01*
X1159442Y245434D01*
X1159373Y245378D01*
X1159301Y245325D01*
X1159226Y245275D01*
X1159150Y245229D01*
X1159072Y245186D01*
X1158992Y245147D01*
X1158910Y245111D01*
X1158827Y245078D01*
X1158742Y245050D01*
X1158657Y245025D01*
X1158570Y245003D01*
X1158482Y244986D01*
X1158394Y244973D01*
X1158305Y244963D01*
X1158216Y244957D01*
X1158127Y244955D01*
X1156081Y244955D01*
X1158536Y244955D02*
X1160173Y241681D01*
X1163345Y247410D02*
X1165391Y249047D01*
X1165391Y241681D01*
X1163345Y241681D02*
X1167437Y241681D01*
D11*
X177800Y137160D02*
X177800Y127000D01*
D12*
X178763Y118999D02*
X178763Y111633D01*
X178763Y118999D02*
X180809Y118999D01*
X180898Y118997D01*
X180987Y118991D01*
X181076Y118981D01*
X181164Y118968D01*
X181252Y118951D01*
X181339Y118929D01*
X181424Y118904D01*
X181509Y118876D01*
X181592Y118843D01*
X181674Y118807D01*
X181754Y118768D01*
X181832Y118725D01*
X181908Y118679D01*
X181983Y118629D01*
X182055Y118576D01*
X182124Y118520D01*
X182191Y118461D01*
X182256Y118400D01*
X182317Y118335D01*
X182376Y118268D01*
X182432Y118199D01*
X182485Y118127D01*
X182535Y118052D01*
X182581Y117976D01*
X182624Y117898D01*
X182663Y117818D01*
X182699Y117736D01*
X182732Y117653D01*
X182760Y117568D01*
X182785Y117483D01*
X182807Y117396D01*
X182824Y117308D01*
X182837Y117220D01*
X182847Y117131D01*
X182853Y117042D01*
X182855Y116953D01*
X182853Y116864D01*
X182847Y116775D01*
X182837Y116686D01*
X182824Y116598D01*
X182807Y116510D01*
X182785Y116423D01*
X182760Y116338D01*
X182732Y116253D01*
X182699Y116170D01*
X182663Y116088D01*
X182624Y116008D01*
X182581Y115930D01*
X182535Y115854D01*
X182485Y115779D01*
X182432Y115707D01*
X182376Y115638D01*
X182317Y115571D01*
X182256Y115506D01*
X182191Y115445D01*
X182124Y115386D01*
X182055Y115330D01*
X181983Y115277D01*
X181908Y115227D01*
X181832Y115181D01*
X181754Y115138D01*
X181674Y115099D01*
X181592Y115063D01*
X181509Y115030D01*
X181424Y115002D01*
X181339Y114977D01*
X181252Y114955D01*
X181164Y114938D01*
X181076Y114925D01*
X180987Y114915D01*
X180898Y114909D01*
X180809Y114907D01*
X178763Y114907D01*
X181218Y114907D02*
X182855Y111633D01*
X190120Y117158D02*
X190118Y117243D01*
X190112Y117328D01*
X190102Y117412D01*
X190089Y117496D01*
X190071Y117580D01*
X190050Y117662D01*
X190025Y117743D01*
X189996Y117823D01*
X189963Y117902D01*
X189927Y117979D01*
X189887Y118054D01*
X189844Y118128D01*
X189798Y118199D01*
X189748Y118268D01*
X189695Y118335D01*
X189639Y118399D01*
X189580Y118460D01*
X189519Y118519D01*
X189455Y118575D01*
X189388Y118628D01*
X189319Y118678D01*
X189248Y118724D01*
X189174Y118767D01*
X189099Y118807D01*
X189022Y118843D01*
X188943Y118876D01*
X188863Y118905D01*
X188782Y118930D01*
X188700Y118951D01*
X188616Y118969D01*
X188532Y118982D01*
X188448Y118992D01*
X188363Y118998D01*
X188278Y119000D01*
X188278Y118999D02*
X188182Y118997D01*
X188086Y118991D01*
X187991Y118981D01*
X187896Y118968D01*
X187801Y118950D01*
X187708Y118929D01*
X187615Y118904D01*
X187524Y118875D01*
X187433Y118843D01*
X187344Y118807D01*
X187257Y118767D01*
X187171Y118724D01*
X187087Y118678D01*
X187005Y118628D01*
X186925Y118574D01*
X186848Y118518D01*
X186773Y118458D01*
X186700Y118396D01*
X186630Y118330D01*
X186562Y118262D01*
X186497Y118191D01*
X186436Y118118D01*
X186377Y118042D01*
X186321Y117963D01*
X186269Y117883D01*
X186220Y117800D01*
X186174Y117716D01*
X186132Y117630D01*
X186094Y117542D01*
X186059Y117453D01*
X186027Y117362D01*
X189505Y115726D02*
X189565Y115785D01*
X189622Y115847D01*
X189677Y115911D01*
X189728Y115978D01*
X189777Y116047D01*
X189823Y116117D01*
X189866Y116190D01*
X189906Y116264D01*
X189942Y116340D01*
X189975Y116418D01*
X190005Y116497D01*
X190032Y116577D01*
X190055Y116658D01*
X190074Y116740D01*
X190090Y116822D01*
X190103Y116906D01*
X190112Y116990D01*
X190117Y117074D01*
X190119Y117158D01*
X189505Y115725D02*
X186027Y111633D01*
X190119Y111633D01*
D11*
X177800Y162560D02*
X177800Y172720D01*
D12*
X178763Y154559D02*
X178763Y147193D01*
X178763Y154559D02*
X180809Y154559D01*
X180898Y154557D01*
X180987Y154551D01*
X181076Y154541D01*
X181164Y154528D01*
X181252Y154511D01*
X181339Y154489D01*
X181424Y154464D01*
X181509Y154436D01*
X181592Y154403D01*
X181674Y154367D01*
X181754Y154328D01*
X181832Y154285D01*
X181908Y154239D01*
X181983Y154189D01*
X182055Y154136D01*
X182124Y154080D01*
X182191Y154021D01*
X182256Y153960D01*
X182317Y153895D01*
X182376Y153828D01*
X182432Y153759D01*
X182485Y153687D01*
X182535Y153612D01*
X182581Y153536D01*
X182624Y153458D01*
X182663Y153378D01*
X182699Y153296D01*
X182732Y153213D01*
X182760Y153128D01*
X182785Y153043D01*
X182807Y152956D01*
X182824Y152868D01*
X182837Y152780D01*
X182847Y152691D01*
X182853Y152602D01*
X182855Y152513D01*
X182853Y152424D01*
X182847Y152335D01*
X182837Y152246D01*
X182824Y152158D01*
X182807Y152070D01*
X182785Y151983D01*
X182760Y151898D01*
X182732Y151813D01*
X182699Y151730D01*
X182663Y151648D01*
X182624Y151568D01*
X182581Y151490D01*
X182535Y151414D01*
X182485Y151339D01*
X182432Y151267D01*
X182376Y151198D01*
X182317Y151131D01*
X182256Y151066D01*
X182191Y151005D01*
X182124Y150946D01*
X182055Y150890D01*
X181983Y150837D01*
X181908Y150787D01*
X181832Y150741D01*
X181754Y150698D01*
X181674Y150659D01*
X181592Y150623D01*
X181509Y150590D01*
X181424Y150562D01*
X181339Y150537D01*
X181252Y150515D01*
X181164Y150498D01*
X181076Y150485D01*
X180987Y150475D01*
X180898Y150469D01*
X180809Y150467D01*
X178763Y150467D01*
X181218Y150467D02*
X182855Y147193D01*
X186027Y147193D02*
X188073Y147193D01*
X188162Y147195D01*
X188251Y147201D01*
X188340Y147211D01*
X188428Y147224D01*
X188516Y147241D01*
X188603Y147263D01*
X188688Y147288D01*
X188773Y147316D01*
X188856Y147349D01*
X188938Y147385D01*
X189018Y147424D01*
X189096Y147467D01*
X189172Y147513D01*
X189247Y147563D01*
X189319Y147616D01*
X189388Y147672D01*
X189455Y147731D01*
X189520Y147792D01*
X189581Y147857D01*
X189640Y147924D01*
X189696Y147993D01*
X189749Y148065D01*
X189799Y148140D01*
X189845Y148216D01*
X189888Y148294D01*
X189927Y148374D01*
X189963Y148456D01*
X189996Y148539D01*
X190024Y148624D01*
X190049Y148709D01*
X190071Y148796D01*
X190088Y148884D01*
X190101Y148972D01*
X190111Y149061D01*
X190117Y149150D01*
X190119Y149239D01*
X190117Y149328D01*
X190111Y149417D01*
X190101Y149506D01*
X190088Y149594D01*
X190071Y149682D01*
X190049Y149769D01*
X190024Y149854D01*
X189996Y149939D01*
X189963Y150022D01*
X189927Y150104D01*
X189888Y150184D01*
X189845Y150262D01*
X189799Y150338D01*
X189749Y150413D01*
X189696Y150485D01*
X189640Y150554D01*
X189581Y150621D01*
X189520Y150686D01*
X189455Y150747D01*
X189388Y150806D01*
X189319Y150862D01*
X189247Y150915D01*
X189172Y150965D01*
X189096Y151011D01*
X189018Y151054D01*
X188938Y151093D01*
X188856Y151129D01*
X188773Y151162D01*
X188688Y151190D01*
X188603Y151215D01*
X188516Y151237D01*
X188428Y151254D01*
X188340Y151267D01*
X188251Y151277D01*
X188162Y151283D01*
X188073Y151285D01*
X188482Y154559D02*
X186027Y154559D01*
X188482Y154559D02*
X188561Y154557D01*
X188640Y154551D01*
X188719Y154542D01*
X188797Y154529D01*
X188874Y154511D01*
X188950Y154491D01*
X189025Y154466D01*
X189099Y154438D01*
X189172Y154407D01*
X189243Y154371D01*
X189312Y154333D01*
X189379Y154291D01*
X189444Y154246D01*
X189507Y154198D01*
X189568Y154147D01*
X189625Y154093D01*
X189681Y154037D01*
X189733Y153978D01*
X189783Y153916D01*
X189829Y153852D01*
X189873Y153786D01*
X189913Y153718D01*
X189949Y153648D01*
X189983Y153576D01*
X190013Y153502D01*
X190039Y153428D01*
X190062Y153352D01*
X190080Y153275D01*
X190096Y153198D01*
X190107Y153119D01*
X190115Y153041D01*
X190119Y152962D01*
X190119Y152882D01*
X190115Y152803D01*
X190107Y152725D01*
X190096Y152646D01*
X190080Y152569D01*
X190062Y152492D01*
X190039Y152416D01*
X190013Y152342D01*
X189983Y152268D01*
X189949Y152196D01*
X189913Y152126D01*
X189873Y152058D01*
X189829Y151992D01*
X189783Y151928D01*
X189733Y151866D01*
X189681Y151807D01*
X189625Y151751D01*
X189568Y151697D01*
X189507Y151646D01*
X189444Y151598D01*
X189379Y151553D01*
X189312Y151511D01*
X189243Y151473D01*
X189172Y151437D01*
X189099Y151406D01*
X189025Y151378D01*
X188950Y151353D01*
X188874Y151333D01*
X188797Y151315D01*
X188719Y151302D01*
X188640Y151293D01*
X188561Y151287D01*
X188482Y151285D01*
X186845Y151285D01*
D11*
X180340Y99060D02*
X180340Y88900D01*
D12*
X168021Y107061D02*
X168021Y114427D01*
X170067Y114427D01*
X170156Y114425D01*
X170245Y114419D01*
X170334Y114409D01*
X170422Y114396D01*
X170510Y114379D01*
X170597Y114357D01*
X170682Y114332D01*
X170767Y114304D01*
X170850Y114271D01*
X170932Y114235D01*
X171012Y114196D01*
X171090Y114153D01*
X171166Y114107D01*
X171241Y114057D01*
X171313Y114004D01*
X171382Y113948D01*
X171449Y113889D01*
X171514Y113828D01*
X171575Y113763D01*
X171634Y113696D01*
X171690Y113627D01*
X171743Y113555D01*
X171793Y113480D01*
X171839Y113404D01*
X171882Y113326D01*
X171921Y113246D01*
X171957Y113164D01*
X171990Y113081D01*
X172018Y112996D01*
X172043Y112911D01*
X172065Y112824D01*
X172082Y112736D01*
X172095Y112648D01*
X172105Y112559D01*
X172111Y112470D01*
X172113Y112381D01*
X172111Y112292D01*
X172105Y112203D01*
X172095Y112114D01*
X172082Y112026D01*
X172065Y111938D01*
X172043Y111851D01*
X172018Y111766D01*
X171990Y111681D01*
X171957Y111598D01*
X171921Y111516D01*
X171882Y111436D01*
X171839Y111358D01*
X171793Y111282D01*
X171743Y111207D01*
X171690Y111135D01*
X171634Y111066D01*
X171575Y110999D01*
X171514Y110934D01*
X171449Y110873D01*
X171382Y110814D01*
X171313Y110758D01*
X171241Y110705D01*
X171166Y110655D01*
X171090Y110609D01*
X171012Y110566D01*
X170932Y110527D01*
X170850Y110491D01*
X170767Y110458D01*
X170682Y110430D01*
X170597Y110405D01*
X170510Y110383D01*
X170422Y110366D01*
X170334Y110353D01*
X170245Y110343D01*
X170156Y110337D01*
X170067Y110335D01*
X168021Y110335D01*
X170476Y110335D02*
X172113Y107061D01*
X175285Y108698D02*
X176922Y114427D01*
X175285Y108698D02*
X179377Y108698D01*
X178150Y110335D02*
X178150Y107061D01*
X205218Y127381D02*
X206855Y127381D01*
X205218Y127381D02*
X205140Y127383D01*
X205062Y127388D01*
X204985Y127398D01*
X204908Y127411D01*
X204832Y127427D01*
X204757Y127447D01*
X204683Y127471D01*
X204610Y127498D01*
X204538Y127529D01*
X204468Y127563D01*
X204400Y127600D01*
X204333Y127641D01*
X204268Y127685D01*
X204206Y127731D01*
X204146Y127781D01*
X204088Y127833D01*
X204033Y127888D01*
X203981Y127946D01*
X203931Y128006D01*
X203885Y128068D01*
X203841Y128133D01*
X203800Y128200D01*
X203763Y128268D01*
X203729Y128338D01*
X203698Y128410D01*
X203671Y128483D01*
X203647Y128557D01*
X203627Y128632D01*
X203611Y128708D01*
X203598Y128785D01*
X203588Y128862D01*
X203583Y128940D01*
X203581Y129018D01*
X203581Y133110D01*
X203583Y133190D01*
X203589Y133270D01*
X203599Y133350D01*
X203612Y133429D01*
X203630Y133508D01*
X203651Y133585D01*
X203677Y133661D01*
X203706Y133736D01*
X203738Y133810D01*
X203774Y133882D01*
X203814Y133952D01*
X203857Y134019D01*
X203903Y134085D01*
X203953Y134148D01*
X204005Y134209D01*
X204060Y134268D01*
X204119Y134323D01*
X204179Y134375D01*
X204243Y134425D01*
X204309Y134471D01*
X204376Y134514D01*
X204446Y134554D01*
X204518Y134590D01*
X204592Y134622D01*
X204666Y134651D01*
X204743Y134677D01*
X204820Y134698D01*
X204899Y134716D01*
X204978Y134729D01*
X205058Y134739D01*
X205138Y134745D01*
X205218Y134747D01*
X206855Y134747D01*
X209700Y133110D02*
X211746Y134747D01*
X211746Y127381D01*
X209700Y127381D02*
X213792Y127381D01*
D17*
X971000Y157800D02*
X981000Y157800D01*
X971000Y157800D02*
X971000Y197800D01*
X981000Y197800D01*
X1051000Y197800D02*
X1061000Y197800D01*
X1061000Y157800D01*
X1051000Y157800D01*
X975000Y147800D02*
X975002Y147863D01*
X975008Y147925D01*
X975018Y147987D01*
X975031Y148049D01*
X975049Y148109D01*
X975070Y148168D01*
X975095Y148226D01*
X975124Y148282D01*
X975156Y148336D01*
X975191Y148388D01*
X975229Y148437D01*
X975271Y148485D01*
X975315Y148529D01*
X975363Y148571D01*
X975412Y148609D01*
X975464Y148644D01*
X975518Y148676D01*
X975574Y148705D01*
X975632Y148730D01*
X975691Y148751D01*
X975751Y148769D01*
X975813Y148782D01*
X975875Y148792D01*
X975937Y148798D01*
X976000Y148800D01*
X976063Y148798D01*
X976125Y148792D01*
X976187Y148782D01*
X976249Y148769D01*
X976309Y148751D01*
X976368Y148730D01*
X976426Y148705D01*
X976482Y148676D01*
X976536Y148644D01*
X976588Y148609D01*
X976637Y148571D01*
X976685Y148529D01*
X976729Y148485D01*
X976771Y148437D01*
X976809Y148388D01*
X976844Y148336D01*
X976876Y148282D01*
X976905Y148226D01*
X976930Y148168D01*
X976951Y148109D01*
X976969Y148049D01*
X976982Y147987D01*
X976992Y147925D01*
X976998Y147863D01*
X977000Y147800D01*
X976998Y147737D01*
X976992Y147675D01*
X976982Y147613D01*
X976969Y147551D01*
X976951Y147491D01*
X976930Y147432D01*
X976905Y147374D01*
X976876Y147318D01*
X976844Y147264D01*
X976809Y147212D01*
X976771Y147163D01*
X976729Y147115D01*
X976685Y147071D01*
X976637Y147029D01*
X976588Y146991D01*
X976536Y146956D01*
X976482Y146924D01*
X976426Y146895D01*
X976368Y146870D01*
X976309Y146849D01*
X976249Y146831D01*
X976187Y146818D01*
X976125Y146808D01*
X976063Y146802D01*
X976000Y146800D01*
X975937Y146802D01*
X975875Y146808D01*
X975813Y146818D01*
X975751Y146831D01*
X975691Y146849D01*
X975632Y146870D01*
X975574Y146895D01*
X975518Y146924D01*
X975464Y146956D01*
X975412Y146991D01*
X975363Y147029D01*
X975315Y147071D01*
X975271Y147115D01*
X975229Y147163D01*
X975191Y147212D01*
X975156Y147264D01*
X975124Y147318D01*
X975095Y147374D01*
X975070Y147432D01*
X975049Y147491D01*
X975031Y147551D01*
X975018Y147613D01*
X975008Y147675D01*
X975002Y147737D01*
X975000Y147800D01*
D12*
X980736Y228981D02*
X980814Y228983D01*
X980892Y228988D01*
X980969Y228998D01*
X981046Y229011D01*
X981122Y229027D01*
X981197Y229047D01*
X981271Y229071D01*
X981344Y229098D01*
X981416Y229129D01*
X981486Y229163D01*
X981555Y229200D01*
X981621Y229241D01*
X981686Y229285D01*
X981748Y229331D01*
X981808Y229381D01*
X981866Y229433D01*
X981921Y229488D01*
X981973Y229546D01*
X982023Y229606D01*
X982069Y229668D01*
X982113Y229733D01*
X982154Y229800D01*
X982191Y229868D01*
X982225Y229938D01*
X982256Y230010D01*
X982283Y230083D01*
X982307Y230157D01*
X982327Y230232D01*
X982343Y230308D01*
X982356Y230385D01*
X982366Y230462D01*
X982371Y230540D01*
X982373Y230618D01*
X980736Y228981D02*
X980622Y228983D01*
X980509Y228988D01*
X980395Y228998D01*
X980282Y229011D01*
X980170Y229028D01*
X980058Y229048D01*
X979947Y229072D01*
X979836Y229100D01*
X979727Y229131D01*
X979619Y229166D01*
X979512Y229205D01*
X979406Y229247D01*
X979302Y229292D01*
X979199Y229341D01*
X979098Y229394D01*
X978999Y229449D01*
X978901Y229508D01*
X978806Y229570D01*
X978713Y229635D01*
X978621Y229703D01*
X978533Y229774D01*
X978446Y229848D01*
X978362Y229925D01*
X978281Y230004D01*
X978485Y234710D02*
X978487Y234788D01*
X978492Y234866D01*
X978502Y234943D01*
X978515Y235020D01*
X978531Y235096D01*
X978551Y235171D01*
X978575Y235245D01*
X978602Y235318D01*
X978633Y235390D01*
X978667Y235460D01*
X978704Y235529D01*
X978745Y235595D01*
X978789Y235660D01*
X978835Y235722D01*
X978885Y235782D01*
X978937Y235840D01*
X978992Y235895D01*
X979050Y235947D01*
X979110Y235997D01*
X979172Y236043D01*
X979237Y236087D01*
X979304Y236128D01*
X979372Y236165D01*
X979442Y236199D01*
X979514Y236230D01*
X979587Y236257D01*
X979661Y236281D01*
X979736Y236301D01*
X979812Y236317D01*
X979889Y236330D01*
X979966Y236340D01*
X980044Y236345D01*
X980122Y236347D01*
X980232Y236345D01*
X980341Y236339D01*
X980451Y236329D01*
X980559Y236316D01*
X980668Y236298D01*
X980775Y236277D01*
X980882Y236251D01*
X980988Y236222D01*
X981093Y236190D01*
X981196Y236153D01*
X981298Y236113D01*
X981399Y236069D01*
X981498Y236021D01*
X981595Y235971D01*
X981690Y235916D01*
X981783Y235858D01*
X981874Y235797D01*
X981963Y235733D01*
X979304Y233277D02*
X979237Y233319D01*
X979172Y233363D01*
X979110Y233411D01*
X979050Y233461D01*
X978992Y233514D01*
X978937Y233570D01*
X978885Y233629D01*
X978835Y233689D01*
X978788Y233753D01*
X978745Y233818D01*
X978704Y233885D01*
X978667Y233954D01*
X978633Y234025D01*
X978602Y234097D01*
X978575Y234171D01*
X978551Y234245D01*
X978531Y234321D01*
X978515Y234398D01*
X978502Y234475D01*
X978492Y234553D01*
X978487Y234632D01*
X978485Y234710D01*
X981555Y232050D02*
X981621Y232008D01*
X981686Y231964D01*
X981748Y231917D01*
X981808Y231866D01*
X981866Y231813D01*
X981921Y231757D01*
X981974Y231699D01*
X982023Y231638D01*
X982070Y231575D01*
X982113Y231510D01*
X982154Y231443D01*
X982191Y231374D01*
X982225Y231303D01*
X982256Y231231D01*
X982283Y231157D01*
X982307Y231082D01*
X982327Y231007D01*
X982343Y230930D01*
X982356Y230853D01*
X982366Y230775D01*
X982371Y230696D01*
X982373Y230618D01*
X981555Y232050D02*
X979304Y233278D01*
X985100Y236347D02*
X986737Y228981D01*
X988374Y233892D01*
X990011Y228981D01*
X991648Y236347D01*
X994618Y234710D02*
X996664Y236347D01*
X996664Y228981D01*
X994618Y228981D02*
X998711Y228981D01*
D11*
X736600Y764540D02*
X736600Y774700D01*
D12*
X724281Y782701D02*
X724281Y790067D01*
X726327Y790067D01*
X726416Y790065D01*
X726505Y790059D01*
X726594Y790049D01*
X726682Y790036D01*
X726770Y790019D01*
X726857Y789997D01*
X726942Y789972D01*
X727027Y789944D01*
X727110Y789911D01*
X727192Y789875D01*
X727272Y789836D01*
X727350Y789793D01*
X727426Y789747D01*
X727501Y789697D01*
X727573Y789644D01*
X727642Y789588D01*
X727709Y789529D01*
X727774Y789468D01*
X727835Y789403D01*
X727894Y789336D01*
X727950Y789267D01*
X728003Y789195D01*
X728053Y789120D01*
X728099Y789044D01*
X728142Y788966D01*
X728181Y788886D01*
X728217Y788804D01*
X728250Y788721D01*
X728278Y788636D01*
X728303Y788551D01*
X728325Y788464D01*
X728342Y788376D01*
X728355Y788288D01*
X728365Y788199D01*
X728371Y788110D01*
X728373Y788021D01*
X728371Y787932D01*
X728365Y787843D01*
X728355Y787754D01*
X728342Y787666D01*
X728325Y787578D01*
X728303Y787491D01*
X728278Y787406D01*
X728250Y787321D01*
X728217Y787238D01*
X728181Y787156D01*
X728142Y787076D01*
X728099Y786998D01*
X728053Y786922D01*
X728003Y786847D01*
X727950Y786775D01*
X727894Y786706D01*
X727835Y786639D01*
X727774Y786574D01*
X727709Y786513D01*
X727642Y786454D01*
X727573Y786398D01*
X727501Y786345D01*
X727426Y786295D01*
X727350Y786249D01*
X727272Y786206D01*
X727192Y786167D01*
X727110Y786131D01*
X727027Y786098D01*
X726942Y786070D01*
X726857Y786045D01*
X726770Y786023D01*
X726682Y786006D01*
X726594Y785993D01*
X726505Y785983D01*
X726416Y785977D01*
X726327Y785975D01*
X724281Y785975D01*
X726736Y785975D02*
X728373Y782701D01*
X731545Y782701D02*
X734000Y782701D01*
X734078Y782703D01*
X734156Y782708D01*
X734233Y782718D01*
X734310Y782731D01*
X734386Y782747D01*
X734461Y782767D01*
X734535Y782791D01*
X734608Y782818D01*
X734680Y782849D01*
X734750Y782883D01*
X734819Y782920D01*
X734885Y782961D01*
X734950Y783005D01*
X735012Y783051D01*
X735072Y783101D01*
X735130Y783153D01*
X735185Y783208D01*
X735237Y783266D01*
X735287Y783326D01*
X735333Y783388D01*
X735377Y783453D01*
X735418Y783520D01*
X735455Y783588D01*
X735489Y783658D01*
X735520Y783730D01*
X735547Y783803D01*
X735571Y783877D01*
X735591Y783952D01*
X735607Y784028D01*
X735620Y784105D01*
X735630Y784182D01*
X735635Y784260D01*
X735637Y784338D01*
X735637Y785156D01*
X735635Y785234D01*
X735630Y785312D01*
X735620Y785389D01*
X735607Y785466D01*
X735591Y785542D01*
X735571Y785617D01*
X735547Y785691D01*
X735520Y785764D01*
X735489Y785836D01*
X735455Y785906D01*
X735418Y785975D01*
X735377Y786041D01*
X735333Y786106D01*
X735287Y786168D01*
X735237Y786228D01*
X735185Y786286D01*
X735130Y786341D01*
X735072Y786393D01*
X735012Y786443D01*
X734950Y786489D01*
X734885Y786533D01*
X734819Y786574D01*
X734750Y786611D01*
X734680Y786645D01*
X734608Y786676D01*
X734535Y786703D01*
X734461Y786727D01*
X734386Y786747D01*
X734310Y786763D01*
X734233Y786776D01*
X734156Y786786D01*
X734078Y786791D01*
X734000Y786793D01*
X731545Y786793D01*
X731545Y790067D01*
X735637Y790067D01*
D11*
X685800Y777240D02*
X685800Y767080D01*
D12*
X673481Y785241D02*
X673481Y792607D01*
X675527Y792607D01*
X675616Y792605D01*
X675705Y792599D01*
X675794Y792589D01*
X675882Y792576D01*
X675970Y792559D01*
X676057Y792537D01*
X676142Y792512D01*
X676227Y792484D01*
X676310Y792451D01*
X676392Y792415D01*
X676472Y792376D01*
X676550Y792333D01*
X676626Y792287D01*
X676701Y792237D01*
X676773Y792184D01*
X676842Y792128D01*
X676909Y792069D01*
X676974Y792008D01*
X677035Y791943D01*
X677094Y791876D01*
X677150Y791807D01*
X677203Y791735D01*
X677253Y791660D01*
X677299Y791584D01*
X677342Y791506D01*
X677381Y791426D01*
X677417Y791344D01*
X677450Y791261D01*
X677478Y791176D01*
X677503Y791091D01*
X677525Y791004D01*
X677542Y790916D01*
X677555Y790828D01*
X677565Y790739D01*
X677571Y790650D01*
X677573Y790561D01*
X677571Y790472D01*
X677565Y790383D01*
X677555Y790294D01*
X677542Y790206D01*
X677525Y790118D01*
X677503Y790031D01*
X677478Y789946D01*
X677450Y789861D01*
X677417Y789778D01*
X677381Y789696D01*
X677342Y789616D01*
X677299Y789538D01*
X677253Y789462D01*
X677203Y789387D01*
X677150Y789315D01*
X677094Y789246D01*
X677035Y789179D01*
X676974Y789114D01*
X676909Y789053D01*
X676842Y788994D01*
X676773Y788938D01*
X676701Y788885D01*
X676626Y788835D01*
X676550Y788789D01*
X676472Y788746D01*
X676392Y788707D01*
X676310Y788671D01*
X676227Y788638D01*
X676142Y788610D01*
X676057Y788585D01*
X675970Y788563D01*
X675882Y788546D01*
X675794Y788533D01*
X675705Y788523D01*
X675616Y788517D01*
X675527Y788515D01*
X673481Y788515D01*
X675936Y788515D02*
X677573Y785241D01*
X680745Y789333D02*
X683200Y789333D01*
X683278Y789331D01*
X683356Y789326D01*
X683433Y789316D01*
X683510Y789303D01*
X683586Y789287D01*
X683661Y789267D01*
X683735Y789243D01*
X683808Y789216D01*
X683880Y789185D01*
X683950Y789151D01*
X684019Y789114D01*
X684085Y789073D01*
X684150Y789029D01*
X684212Y788983D01*
X684272Y788933D01*
X684330Y788881D01*
X684385Y788826D01*
X684437Y788768D01*
X684487Y788708D01*
X684533Y788646D01*
X684577Y788581D01*
X684618Y788515D01*
X684655Y788446D01*
X684689Y788376D01*
X684720Y788304D01*
X684747Y788231D01*
X684771Y788157D01*
X684791Y788082D01*
X684807Y788006D01*
X684820Y787929D01*
X684830Y787852D01*
X684835Y787774D01*
X684837Y787696D01*
X684837Y787287D01*
X684835Y787198D01*
X684829Y787109D01*
X684819Y787020D01*
X684806Y786932D01*
X684789Y786844D01*
X684767Y786757D01*
X684742Y786672D01*
X684714Y786587D01*
X684681Y786504D01*
X684645Y786422D01*
X684606Y786342D01*
X684563Y786264D01*
X684517Y786188D01*
X684467Y786113D01*
X684414Y786041D01*
X684358Y785972D01*
X684299Y785905D01*
X684238Y785840D01*
X684173Y785779D01*
X684106Y785720D01*
X684037Y785664D01*
X683965Y785611D01*
X683890Y785561D01*
X683814Y785515D01*
X683736Y785472D01*
X683656Y785433D01*
X683574Y785397D01*
X683491Y785364D01*
X683406Y785336D01*
X683321Y785311D01*
X683234Y785289D01*
X683146Y785272D01*
X683058Y785259D01*
X682969Y785249D01*
X682880Y785243D01*
X682791Y785241D01*
X682702Y785243D01*
X682613Y785249D01*
X682524Y785259D01*
X682436Y785272D01*
X682348Y785289D01*
X682261Y785311D01*
X682176Y785336D01*
X682091Y785364D01*
X682008Y785397D01*
X681926Y785433D01*
X681846Y785472D01*
X681768Y785515D01*
X681692Y785561D01*
X681617Y785611D01*
X681545Y785664D01*
X681476Y785720D01*
X681409Y785779D01*
X681344Y785840D01*
X681283Y785905D01*
X681224Y785972D01*
X681168Y786041D01*
X681115Y786113D01*
X681065Y786188D01*
X681019Y786264D01*
X680976Y786342D01*
X680937Y786422D01*
X680901Y786504D01*
X680868Y786587D01*
X680840Y786672D01*
X680815Y786757D01*
X680793Y786844D01*
X680776Y786932D01*
X680763Y787020D01*
X680753Y787109D01*
X680747Y787198D01*
X680745Y787287D01*
X680745Y789333D01*
X680747Y789447D01*
X680753Y789561D01*
X680763Y789675D01*
X680777Y789789D01*
X680795Y789902D01*
X680817Y790014D01*
X680842Y790125D01*
X680872Y790235D01*
X680905Y790345D01*
X680942Y790453D01*
X680983Y790559D01*
X681028Y790665D01*
X681076Y790768D01*
X681128Y790870D01*
X681184Y790970D01*
X681242Y791068D01*
X681305Y791164D01*
X681370Y791257D01*
X681439Y791349D01*
X681511Y791437D01*
X681586Y791524D01*
X681664Y791607D01*
X681745Y791688D01*
X681828Y791766D01*
X681915Y791841D01*
X682003Y791913D01*
X682095Y791982D01*
X682188Y792047D01*
X682284Y792109D01*
X682382Y792168D01*
X682482Y792224D01*
X682584Y792276D01*
X682687Y792324D01*
X682793Y792369D01*
X682899Y792410D01*
X683007Y792447D01*
X683117Y792480D01*
X683227Y792510D01*
X683338Y792535D01*
X683450Y792557D01*
X683563Y792575D01*
X683677Y792589D01*
X683791Y792599D01*
X683905Y792605D01*
X684019Y792607D01*
D11*
X1248400Y790400D02*
X1248400Y646400D01*
X1248400Y790400D02*
X1088400Y790400D01*
X1088400Y646400D01*
X1248400Y646400D01*
M02*
