G04 EAGLE Gerber RS-274X export*
G75*
%MOMM*%
%FSLAX34Y34*%
%LPD*%
%INSolderpaste Top*%
%IPPOS*%
%AMOC8*
5,1,8,0,0,1.08239X$1,22.5*%
G01*
%ADD10R,0.975000X0.390000*%
%ADD11C,0.025400*%
%ADD12R,0.800000X0.800000*%
%ADD13R,0.949959X1.031241*%
%ADD14R,1.100000X1.000000*%
%ADD15R,1.200000X2.500000*%


D10*
X249655Y158900D03*
X249655Y152400D03*
X249655Y145900D03*
X268505Y158900D03*
X268505Y152400D03*
X268505Y145900D03*
D11*
X243967Y163687D02*
X243967Y167497D01*
X243967Y163687D02*
X245660Y163687D01*
X247335Y163687D02*
X247335Y167497D01*
X246912Y163687D02*
X247759Y163687D01*
X247759Y167497D02*
X246912Y167497D01*
X250807Y165804D02*
X251442Y165804D01*
X251442Y163687D01*
X250172Y163687D01*
X250117Y163689D01*
X250061Y163694D01*
X250007Y163703D01*
X249953Y163716D01*
X249900Y163732D01*
X249848Y163751D01*
X249797Y163774D01*
X249749Y163800D01*
X249701Y163830D01*
X249656Y163862D01*
X249614Y163897D01*
X249573Y163935D01*
X249535Y163976D01*
X249500Y164018D01*
X249468Y164063D01*
X249438Y164111D01*
X249412Y164159D01*
X249389Y164210D01*
X249370Y164262D01*
X249354Y164315D01*
X249341Y164369D01*
X249332Y164423D01*
X249327Y164479D01*
X249325Y164534D01*
X249325Y166650D01*
X249327Y166708D01*
X249333Y166765D01*
X249343Y166822D01*
X249356Y166879D01*
X249374Y166934D01*
X249395Y166987D01*
X249420Y167040D01*
X249448Y167090D01*
X249480Y167138D01*
X249515Y167185D01*
X249553Y167228D01*
X249594Y167269D01*
X249637Y167307D01*
X249684Y167342D01*
X249732Y167374D01*
X249782Y167402D01*
X249835Y167427D01*
X249888Y167448D01*
X249943Y167466D01*
X250000Y167479D01*
X250057Y167489D01*
X250114Y167495D01*
X250172Y167497D01*
X251442Y167497D01*
X253226Y167497D02*
X253226Y163687D01*
X253226Y165804D02*
X255343Y165804D01*
X255343Y167497D02*
X255343Y163687D01*
X257820Y163687D02*
X257820Y167497D01*
X256762Y167497D02*
X258879Y167497D01*
X260022Y163264D02*
X261715Y163264D01*
X264250Y163687D02*
X264308Y163689D01*
X264365Y163695D01*
X264422Y163705D01*
X264479Y163718D01*
X264534Y163736D01*
X264587Y163757D01*
X264640Y163782D01*
X264690Y163810D01*
X264738Y163842D01*
X264785Y163877D01*
X264828Y163915D01*
X264869Y163956D01*
X264907Y163999D01*
X264942Y164046D01*
X264974Y164094D01*
X265002Y164144D01*
X265027Y164197D01*
X265048Y164250D01*
X265066Y164305D01*
X265079Y164362D01*
X265089Y164419D01*
X265095Y164476D01*
X265097Y164534D01*
X264250Y163687D02*
X264167Y163689D01*
X264084Y163695D01*
X264002Y163704D01*
X263920Y163718D01*
X263839Y163735D01*
X263758Y163756D01*
X263679Y163781D01*
X263601Y163809D01*
X263524Y163841D01*
X263449Y163876D01*
X263376Y163915D01*
X263304Y163958D01*
X263235Y164003D01*
X263168Y164052D01*
X263103Y164104D01*
X263040Y164158D01*
X262980Y164216D01*
X263085Y166650D02*
X263087Y166705D01*
X263092Y166761D01*
X263101Y166815D01*
X263114Y166869D01*
X263130Y166922D01*
X263149Y166974D01*
X263172Y167025D01*
X263198Y167074D01*
X263228Y167121D01*
X263260Y167166D01*
X263295Y167208D01*
X263333Y167249D01*
X263374Y167287D01*
X263416Y167322D01*
X263461Y167354D01*
X263509Y167384D01*
X263557Y167410D01*
X263608Y167433D01*
X263660Y167452D01*
X263713Y167468D01*
X263767Y167481D01*
X263821Y167490D01*
X263877Y167495D01*
X263932Y167497D01*
X263932Y167498D02*
X264011Y167496D01*
X264089Y167490D01*
X264167Y167481D01*
X264244Y167467D01*
X264321Y167450D01*
X264397Y167428D01*
X264471Y167404D01*
X264545Y167375D01*
X264616Y167343D01*
X264686Y167307D01*
X264755Y167268D01*
X264821Y167226D01*
X264885Y167180D01*
X263509Y165909D02*
X263462Y165939D01*
X263417Y165972D01*
X263374Y166008D01*
X263334Y166046D01*
X263296Y166087D01*
X263261Y166130D01*
X263229Y166176D01*
X263199Y166223D01*
X263173Y166273D01*
X263150Y166324D01*
X263131Y166376D01*
X263115Y166429D01*
X263102Y166484D01*
X263093Y166539D01*
X263088Y166594D01*
X263086Y166650D01*
X264674Y165275D02*
X264721Y165245D01*
X264766Y165212D01*
X264809Y165176D01*
X264849Y165138D01*
X264887Y165097D01*
X264922Y165054D01*
X264954Y165008D01*
X264984Y164961D01*
X265010Y164911D01*
X265033Y164860D01*
X265052Y164808D01*
X265068Y164755D01*
X265081Y164700D01*
X265090Y164645D01*
X265095Y164590D01*
X265097Y164534D01*
X264673Y165275D02*
X263509Y165910D01*
X266644Y163687D02*
X268337Y163687D01*
X266644Y163687D02*
X266644Y167497D01*
X268337Y167497D01*
X267914Y165804D02*
X266644Y165804D01*
X269807Y167497D02*
X269807Y163687D01*
X271924Y163687D02*
X269807Y167497D01*
X271924Y167497D02*
X271924Y163687D01*
X274735Y163687D02*
X274793Y163689D01*
X274850Y163695D01*
X274907Y163705D01*
X274964Y163718D01*
X275019Y163736D01*
X275072Y163757D01*
X275125Y163782D01*
X275175Y163810D01*
X275223Y163842D01*
X275270Y163877D01*
X275313Y163915D01*
X275354Y163956D01*
X275392Y163999D01*
X275427Y164046D01*
X275459Y164094D01*
X275487Y164144D01*
X275512Y164197D01*
X275533Y164250D01*
X275551Y164305D01*
X275564Y164362D01*
X275574Y164419D01*
X275580Y164476D01*
X275582Y164534D01*
X274735Y163687D02*
X274652Y163689D01*
X274569Y163695D01*
X274487Y163704D01*
X274405Y163718D01*
X274324Y163735D01*
X274243Y163756D01*
X274164Y163781D01*
X274086Y163809D01*
X274009Y163841D01*
X273934Y163876D01*
X273861Y163915D01*
X273789Y163958D01*
X273720Y164003D01*
X273653Y164052D01*
X273588Y164104D01*
X273525Y164158D01*
X273465Y164216D01*
X273570Y166650D02*
X273572Y166705D01*
X273577Y166761D01*
X273586Y166815D01*
X273599Y166869D01*
X273615Y166922D01*
X273634Y166974D01*
X273657Y167025D01*
X273683Y167074D01*
X273713Y167121D01*
X273745Y167166D01*
X273780Y167208D01*
X273818Y167249D01*
X273859Y167287D01*
X273901Y167322D01*
X273946Y167354D01*
X273994Y167384D01*
X274042Y167410D01*
X274093Y167433D01*
X274145Y167452D01*
X274198Y167468D01*
X274252Y167481D01*
X274306Y167490D01*
X274362Y167495D01*
X274417Y167497D01*
X274417Y167498D02*
X274496Y167496D01*
X274574Y167490D01*
X274652Y167481D01*
X274729Y167467D01*
X274806Y167450D01*
X274882Y167428D01*
X274956Y167404D01*
X275030Y167375D01*
X275101Y167343D01*
X275171Y167307D01*
X275240Y167268D01*
X275306Y167226D01*
X275370Y167180D01*
X273994Y165909D02*
X273947Y165939D01*
X273902Y165972D01*
X273859Y166008D01*
X273819Y166046D01*
X273781Y166087D01*
X273746Y166130D01*
X273714Y166176D01*
X273684Y166223D01*
X273658Y166273D01*
X273635Y166324D01*
X273616Y166376D01*
X273600Y166429D01*
X273587Y166484D01*
X273578Y166539D01*
X273573Y166594D01*
X273571Y166650D01*
X275159Y165275D02*
X275206Y165245D01*
X275251Y165212D01*
X275294Y165176D01*
X275334Y165138D01*
X275372Y165097D01*
X275407Y165054D01*
X275439Y165008D01*
X275469Y164961D01*
X275495Y164911D01*
X275518Y164860D01*
X275537Y164808D01*
X275553Y164755D01*
X275566Y164700D01*
X275575Y164645D01*
X275580Y164590D01*
X275582Y164534D01*
X275158Y165275D02*
X273994Y165910D01*
X277001Y166439D02*
X277001Y164745D01*
X277001Y166439D02*
X277003Y166503D01*
X277009Y166567D01*
X277018Y166630D01*
X277032Y166692D01*
X277049Y166754D01*
X277070Y166814D01*
X277094Y166873D01*
X277122Y166931D01*
X277154Y166986D01*
X277188Y167040D01*
X277226Y167091D01*
X277267Y167141D01*
X277311Y167187D01*
X277357Y167231D01*
X277407Y167272D01*
X277458Y167310D01*
X277512Y167344D01*
X277567Y167376D01*
X277625Y167404D01*
X277684Y167428D01*
X277744Y167449D01*
X277806Y167466D01*
X277868Y167480D01*
X277931Y167489D01*
X277995Y167495D01*
X278059Y167497D01*
X278123Y167495D01*
X278187Y167489D01*
X278250Y167480D01*
X278312Y167466D01*
X278374Y167449D01*
X278434Y167428D01*
X278493Y167404D01*
X278551Y167376D01*
X278606Y167344D01*
X278660Y167310D01*
X278711Y167272D01*
X278761Y167231D01*
X278807Y167187D01*
X278851Y167141D01*
X278892Y167091D01*
X278930Y167040D01*
X278964Y166986D01*
X278996Y166931D01*
X279024Y166873D01*
X279048Y166814D01*
X279069Y166754D01*
X279086Y166692D01*
X279100Y166630D01*
X279109Y166567D01*
X279115Y166503D01*
X279117Y166439D01*
X279117Y164745D01*
X279115Y164681D01*
X279109Y164617D01*
X279100Y164554D01*
X279086Y164492D01*
X279069Y164430D01*
X279048Y164370D01*
X279024Y164311D01*
X278996Y164253D01*
X278964Y164198D01*
X278930Y164144D01*
X278892Y164093D01*
X278851Y164043D01*
X278807Y163997D01*
X278761Y163953D01*
X278711Y163912D01*
X278660Y163874D01*
X278606Y163840D01*
X278551Y163808D01*
X278493Y163780D01*
X278434Y163756D01*
X278374Y163735D01*
X278312Y163718D01*
X278250Y163704D01*
X278187Y163695D01*
X278123Y163689D01*
X278059Y163687D01*
X277995Y163689D01*
X277931Y163695D01*
X277868Y163704D01*
X277806Y163718D01*
X277744Y163735D01*
X277684Y163756D01*
X277625Y163780D01*
X277567Y163808D01*
X277512Y163840D01*
X277458Y163874D01*
X277407Y163912D01*
X277357Y163953D01*
X277311Y163997D01*
X277267Y164043D01*
X277226Y164093D01*
X277188Y164144D01*
X277154Y164198D01*
X277122Y164253D01*
X277094Y164311D01*
X277070Y164370D01*
X277049Y164430D01*
X277032Y164492D01*
X277018Y164554D01*
X277009Y164617D01*
X277003Y164681D01*
X277001Y164745D01*
X280801Y163687D02*
X280801Y167497D01*
X281859Y167497D01*
X281923Y167495D01*
X281987Y167489D01*
X282050Y167480D01*
X282112Y167466D01*
X282174Y167449D01*
X282234Y167428D01*
X282293Y167404D01*
X282351Y167376D01*
X282406Y167344D01*
X282460Y167310D01*
X282511Y167272D01*
X282561Y167231D01*
X282607Y167187D01*
X282651Y167141D01*
X282692Y167091D01*
X282730Y167040D01*
X282764Y166986D01*
X282796Y166931D01*
X282824Y166873D01*
X282848Y166814D01*
X282869Y166754D01*
X282886Y166692D01*
X282900Y166630D01*
X282909Y166567D01*
X282915Y166503D01*
X282917Y166439D01*
X282915Y166375D01*
X282909Y166311D01*
X282900Y166248D01*
X282886Y166186D01*
X282869Y166124D01*
X282848Y166064D01*
X282824Y166005D01*
X282796Y165947D01*
X282764Y165892D01*
X282730Y165838D01*
X282692Y165787D01*
X282651Y165737D01*
X282607Y165691D01*
X282561Y165647D01*
X282511Y165606D01*
X282460Y165568D01*
X282406Y165534D01*
X282351Y165502D01*
X282293Y165474D01*
X282234Y165450D01*
X282174Y165429D01*
X282112Y165412D01*
X282050Y165398D01*
X281987Y165389D01*
X281923Y165383D01*
X281859Y165381D01*
X281859Y165380D02*
X280801Y165380D01*
X282071Y165380D02*
X282918Y163687D01*
D12*
X266580Y114300D03*
X251580Y114300D03*
D13*
X185801Y132080D03*
X169799Y132080D03*
X185801Y167640D03*
X169799Y167640D03*
X172339Y93980D03*
X188341Y93980D03*
D14*
X207400Y114300D03*
X224400Y114300D03*
D15*
X991000Y150300D03*
X1016000Y150300D03*
X1041000Y150300D03*
X991000Y205300D03*
X1016000Y205300D03*
X1041000Y205300D03*
D13*
X728599Y769620D03*
X744601Y769620D03*
X677799Y772160D03*
X693801Y772160D03*
M02*
